M48
;DRILL file {KiCad (2016-03-19 BZR 6630)-stable} date Fri 05 Aug 2016 07:03:53 PM EEST
;FORMAT={-:-/ absolute / inch / decimal}
FMAT,2
INCH,TZ
T1C0.016
T2C0.030
T3C0.031
T4C0.035
T5C0.039
T6C0.040
T7C0.051
T8C0.053
T9C0.055
T10C0.106
T11C0.039
%
G90
G05
M72
T1
X4.1783Y-3.2531
X4.3252Y-3.4055
X4.3555Y-2.9563
X4.389Y-3.4705
X4.4382Y-3.1217
X4.472Y-3.1728
X4.6878Y-3.1728
X4.7677Y-3.4705
X5.5429Y-3.0835
X5.5787Y-3.7311
X6.0008Y-3.0846
T2
X5.4717Y-3.7827
X5.4717Y-4.0386
X5.6488Y-3.7827
X5.6488Y-4.0386
X5.9177Y-4.326
X6.0512Y-3.7835
X6.0512Y-3.8346
X6.0512Y-3.8858
X6.0512Y-3.937
X6.1146Y-4.326
T3
X5.865Y-3.3016
X5.865Y-3.4016
X5.865Y-3.5016
X5.865Y-3.6016
X6.165Y-3.3016
X6.165Y-3.4016
X6.165Y-3.5016
X6.165Y-3.6016
T4
X3.9583Y-2.9976
X3.9583Y-3.0976
X3.9583Y-3.1976
T5
X3.9575Y-3.3055
X3.9575Y-3.4055
T6
X3.9583Y-4.5355
X4.0583Y-4.5355
X4.1583Y-4.5355
X4.1878Y-2.7886
X4.1878Y-2.8886
X4.2583Y-4.5355
X4.2878Y-2.7886
X4.2878Y-2.8886
X4.3543Y-3.6181
X4.3583Y-4.5355
X4.3878Y-2.7886
X4.3878Y-2.8886
X4.4543Y-3.6181
X4.4583Y-4.5355
X4.4878Y-2.7886
X4.4878Y-2.8886
X4.5543Y-3.6181
X4.5583Y-4.5355
X4.5878Y-2.7886
X4.5878Y-2.8886
X4.6543Y-3.6181
X4.6583Y-4.5355
X4.6878Y-2.7886
X4.6878Y-2.8886
X4.7583Y-4.5355
X4.7878Y-2.7886
X4.7878Y-2.8886
X4.8583Y-4.5355
X4.8878Y-2.7886
X4.8878Y-2.8886
X4.9583Y-4.5355
X4.9878Y-2.7886
X4.9878Y-2.8886
X5.0583Y-4.5355
X5.0878Y-2.7886
X5.0878Y-2.8886
X5.0976Y-3.0512
X5.0976Y-3.1929
X5.0976Y-3.3346
X5.0976Y-3.4764
X5.0976Y-3.6181
X5.1583Y-4.5355
X5.1878Y-2.7886
X5.1878Y-2.8886
X5.1976Y-3.0512
X5.1976Y-3.1929
X5.1976Y-3.3346
X5.1976Y-3.4764
X5.1976Y-3.6181
X5.2583Y-4.5355
X5.2878Y-2.7886
X5.2878Y-2.8886
X5.2976Y-3.0512
X5.2976Y-3.1929
X5.2976Y-3.3346
X5.2976Y-3.4764
X5.2976Y-3.6181
X5.3583Y-4.5355
X5.3878Y-2.7886
X5.3878Y-2.8886
X5.3976Y-3.0512
X5.3976Y-3.1929
X5.3976Y-3.3346
X5.3976Y-3.4764
X5.3976Y-3.6181
X5.4583Y-4.5355
X5.4878Y-2.7886
X5.4878Y-2.8886
X5.5878Y-2.7886
X5.5878Y-2.8886
X5.6878Y-2.7886
X5.6878Y-2.8886
X5.7878Y-2.7886
X5.7878Y-2.8886
X5.8878Y-2.7886
X5.8878Y-2.8886
X5.9878Y-2.7886
X5.9878Y-2.8886
X6.0878Y-2.7886
X6.0878Y-2.8886
X6.252Y-3.7992
X6.252Y-3.8992
T7
X4.6425Y-3.8039
X4.6425Y-4.2764
X5.1228Y-3.8039
X5.1228Y-4.2764
X5.2016Y-4.0402
T8
X5.2594Y-4.702
X5.3579Y-4.8004
X5.4563Y-4.702
T9
X4.2933Y-3.8114
X4.2933Y-4.0083
X4.2933Y-4.2051
T10
X3.9961Y-2.8386
X3.9961Y-4.7677
X6.2795Y-2.8386
X6.2795Y-4.7677
T11
X6.0161Y-4.1783
X6.0161Y-4.4736
T0
M30
