G04 #@! TF.FileFunction,Legend,Top*
%FSLAX46Y46*%
G04 Gerber Fmt 4.6, Leading zero omitted, Abs format (unit mm)*
G04 Created by KiCad (PCBNEW (2016-03-19 BZR 6630)-stable) date Fri 05 Aug 2016 07:03:03 PM EEST*
%MOMM*%
G01*
G04 APERTURE LIST*
%ADD10C,0.100000*%
%ADD11C,0.250000*%
%ADD12C,0.300000*%
%ADD13C,0.150000*%
%ADD14C,0.010000*%
G04 APERTURE END LIST*
D10*
D11*
X111227381Y-123652381D02*
X111227381Y-122652381D01*
X111655953Y-123652381D02*
X111655953Y-123128571D01*
X111608334Y-123033333D01*
X111513096Y-122985714D01*
X111370238Y-122985714D01*
X111275000Y-123033333D01*
X111227381Y-123080952D01*
X111989286Y-122985714D02*
X112370238Y-122985714D01*
X112132143Y-122652381D02*
X112132143Y-123509524D01*
X112179762Y-123604762D01*
X112275000Y-123652381D01*
X112370238Y-123652381D01*
X112560715Y-122985714D02*
X112941667Y-122985714D01*
X112703572Y-122652381D02*
X112703572Y-123509524D01*
X112751191Y-123604762D01*
X112846429Y-123652381D01*
X112941667Y-123652381D01*
X113275001Y-122985714D02*
X113275001Y-123985714D01*
X113275001Y-123033333D02*
X113370239Y-122985714D01*
X113560716Y-122985714D01*
X113655954Y-123033333D01*
X113703573Y-123080952D01*
X113751192Y-123176190D01*
X113751192Y-123461905D01*
X113703573Y-123557143D01*
X113655954Y-123604762D01*
X113560716Y-123652381D01*
X113370239Y-123652381D01*
X113275001Y-123604762D01*
X114179763Y-123557143D02*
X114227382Y-123604762D01*
X114179763Y-123652381D01*
X114132144Y-123604762D01*
X114179763Y-123557143D01*
X114179763Y-123652381D01*
X114179763Y-123033333D02*
X114227382Y-123080952D01*
X114179763Y-123128571D01*
X114132144Y-123080952D01*
X114179763Y-123033333D01*
X114179763Y-123128571D01*
X115370239Y-122604762D02*
X114513096Y-123890476D01*
X116417858Y-122604762D02*
X115560715Y-123890476D01*
X116751191Y-123652381D02*
X116751191Y-122985714D01*
X116751191Y-123176190D02*
X116798810Y-123080952D01*
X116846429Y-123033333D01*
X116941667Y-122985714D01*
X117036906Y-122985714D01*
X117798811Y-123652381D02*
X117798811Y-123128571D01*
X117751192Y-123033333D01*
X117655954Y-122985714D01*
X117465477Y-122985714D01*
X117370239Y-123033333D01*
X117798811Y-123604762D02*
X117703573Y-123652381D01*
X117465477Y-123652381D01*
X117370239Y-123604762D01*
X117322620Y-123509524D01*
X117322620Y-123414286D01*
X117370239Y-123319048D01*
X117465477Y-123271429D01*
X117703573Y-123271429D01*
X117798811Y-123223810D01*
X118275001Y-123652381D02*
X118275001Y-122652381D01*
X118275001Y-123033333D02*
X118370239Y-122985714D01*
X118560716Y-122985714D01*
X118655954Y-123033333D01*
X118703573Y-123080952D01*
X118751192Y-123176190D01*
X118751192Y-123461905D01*
X118703573Y-123557143D01*
X118655954Y-123604762D01*
X118560716Y-123652381D01*
X118370239Y-123652381D01*
X118275001Y-123604762D01*
X119179763Y-123652381D02*
X119179763Y-122652381D01*
X119179763Y-123033333D02*
X119275001Y-122985714D01*
X119465478Y-122985714D01*
X119560716Y-123033333D01*
X119608335Y-123080952D01*
X119655954Y-123176190D01*
X119655954Y-123461905D01*
X119608335Y-123557143D01*
X119560716Y-123604762D01*
X119465478Y-123652381D01*
X119275001Y-123652381D01*
X119179763Y-123604762D01*
X120084525Y-123652381D02*
X120084525Y-122985714D01*
X120084525Y-122652381D02*
X120036906Y-122700000D01*
X120084525Y-122747619D01*
X120132144Y-122700000D01*
X120084525Y-122652381D01*
X120084525Y-122747619D01*
X120417858Y-122985714D02*
X120798810Y-122985714D01*
X120560715Y-122652381D02*
X120560715Y-123509524D01*
X120608334Y-123604762D01*
X120703572Y-123652381D01*
X120798810Y-123652381D01*
X121132144Y-123652381D02*
X121132144Y-122985714D01*
X121132144Y-123080952D02*
X121179763Y-123033333D01*
X121275001Y-122985714D01*
X121417859Y-122985714D01*
X121513097Y-123033333D01*
X121560716Y-123128571D01*
X121560716Y-123652381D01*
X121560716Y-123128571D02*
X121608335Y-123033333D01*
X121703573Y-122985714D01*
X121846430Y-122985714D01*
X121941668Y-123033333D01*
X121989287Y-123128571D01*
X121989287Y-123652381D01*
X122894049Y-123652381D02*
X122894049Y-123128571D01*
X122846430Y-123033333D01*
X122751192Y-122985714D01*
X122560715Y-122985714D01*
X122465477Y-123033333D01*
X122894049Y-123604762D02*
X122798811Y-123652381D01*
X122560715Y-123652381D01*
X122465477Y-123604762D01*
X122417858Y-123509524D01*
X122417858Y-123414286D01*
X122465477Y-123319048D01*
X122560715Y-123271429D01*
X122798811Y-123271429D01*
X122894049Y-123223810D01*
X123275001Y-123652381D02*
X123798811Y-122985714D01*
X123275001Y-122985714D02*
X123798811Y-123652381D01*
X124179763Y-123557143D02*
X124227382Y-123604762D01*
X124179763Y-123652381D01*
X124132144Y-123604762D01*
X124179763Y-123557143D01*
X124179763Y-123652381D01*
X125084525Y-123604762D02*
X124989287Y-123652381D01*
X124798810Y-123652381D01*
X124703572Y-123604762D01*
X124655953Y-123557143D01*
X124608334Y-123461905D01*
X124608334Y-123176190D01*
X124655953Y-123080952D01*
X124703572Y-123033333D01*
X124798810Y-122985714D01*
X124989287Y-122985714D01*
X125084525Y-123033333D01*
X125655953Y-123652381D02*
X125560715Y-123604762D01*
X125513096Y-123557143D01*
X125465477Y-123461905D01*
X125465477Y-123176190D01*
X125513096Y-123080952D01*
X125560715Y-123033333D01*
X125655953Y-122985714D01*
X125798811Y-122985714D01*
X125894049Y-123033333D01*
X125941668Y-123080952D01*
X125989287Y-123176190D01*
X125989287Y-123461905D01*
X125941668Y-123557143D01*
X125894049Y-123604762D01*
X125798811Y-123652381D01*
X125655953Y-123652381D01*
X126417858Y-123652381D02*
X126417858Y-122985714D01*
X126417858Y-123080952D02*
X126465477Y-123033333D01*
X126560715Y-122985714D01*
X126703573Y-122985714D01*
X126798811Y-123033333D01*
X126846430Y-123128571D01*
X126846430Y-123652381D01*
X126846430Y-123128571D02*
X126894049Y-123033333D01*
X126989287Y-122985714D01*
X127132144Y-122985714D01*
X127227382Y-123033333D01*
X127275001Y-123128571D01*
X127275001Y-123652381D01*
X128465477Y-122604762D02*
X127608334Y-123890476D01*
X111791666Y-121652381D02*
X111458332Y-121176190D01*
X111220237Y-121652381D02*
X111220237Y-120652381D01*
X111601190Y-120652381D01*
X111696428Y-120700000D01*
X111744047Y-120747619D01*
X111791666Y-120842857D01*
X111791666Y-120985714D01*
X111744047Y-121080952D01*
X111696428Y-121128571D01*
X111601190Y-121176190D01*
X111220237Y-121176190D01*
X112601190Y-121604762D02*
X112505952Y-121652381D01*
X112315475Y-121652381D01*
X112220237Y-121604762D01*
X112172618Y-121509524D01*
X112172618Y-121128571D01*
X112220237Y-121033333D01*
X112315475Y-120985714D01*
X112505952Y-120985714D01*
X112601190Y-121033333D01*
X112648809Y-121128571D01*
X112648809Y-121223810D01*
X112172618Y-121319048D01*
X112982142Y-120985714D02*
X113220237Y-121652381D01*
X113458333Y-120985714D01*
X115125000Y-121652381D02*
X114553571Y-121652381D01*
X114839285Y-121652381D02*
X114839285Y-120652381D01*
X114744047Y-120795238D01*
X114648809Y-120890476D01*
X114553571Y-120938095D01*
X115553571Y-121557143D02*
X115601190Y-121604762D01*
X115553571Y-121652381D01*
X115505952Y-121604762D01*
X115553571Y-121557143D01*
X115553571Y-121652381D01*
X116553571Y-121652381D02*
X115982142Y-121652381D01*
X116267856Y-121652381D02*
X116267856Y-120652381D01*
X116172618Y-120795238D01*
X116077380Y-120890476D01*
X115982142Y-120938095D01*
X118029762Y-122033333D02*
X117982142Y-121985714D01*
X117886904Y-121842857D01*
X117839285Y-121747619D01*
X117791666Y-121604762D01*
X117744047Y-121366667D01*
X117744047Y-121176190D01*
X117791666Y-120938095D01*
X117839285Y-120795238D01*
X117886904Y-120700000D01*
X117982142Y-120557143D01*
X118029762Y-120509524D01*
X118839286Y-121604762D02*
X118744048Y-121652381D01*
X118553571Y-121652381D01*
X118458333Y-121604762D01*
X118410714Y-121557143D01*
X118363095Y-121461905D01*
X118363095Y-121176190D01*
X118410714Y-121080952D01*
X118458333Y-121033333D01*
X118553571Y-120985714D01*
X118744048Y-120985714D01*
X118839286Y-121033333D01*
X119172619Y-122033333D02*
X119220238Y-121985714D01*
X119315476Y-121842857D01*
X119363095Y-121747619D01*
X119410714Y-121604762D01*
X119458333Y-121366667D01*
X119458333Y-121176190D01*
X119410714Y-120938095D01*
X119363095Y-120795238D01*
X119315476Y-120700000D01*
X119220238Y-120557143D01*
X119172619Y-120509524D01*
X120648810Y-120747619D02*
X120696429Y-120700000D01*
X120791667Y-120652381D01*
X121029763Y-120652381D01*
X121125001Y-120700000D01*
X121172620Y-120747619D01*
X121220239Y-120842857D01*
X121220239Y-120938095D01*
X121172620Y-121080952D01*
X120601191Y-121652381D01*
X121220239Y-121652381D01*
X121839286Y-120652381D02*
X121934525Y-120652381D01*
X122029763Y-120700000D01*
X122077382Y-120747619D01*
X122125001Y-120842857D01*
X122172620Y-121033333D01*
X122172620Y-121271429D01*
X122125001Y-121461905D01*
X122077382Y-121557143D01*
X122029763Y-121604762D01*
X121934525Y-121652381D01*
X121839286Y-121652381D01*
X121744048Y-121604762D01*
X121696429Y-121557143D01*
X121648810Y-121461905D01*
X121601191Y-121271429D01*
X121601191Y-121033333D01*
X121648810Y-120842857D01*
X121696429Y-120747619D01*
X121744048Y-120700000D01*
X121839286Y-120652381D01*
X123125001Y-121652381D02*
X122553572Y-121652381D01*
X122839286Y-121652381D02*
X122839286Y-120652381D01*
X122744048Y-120795238D01*
X122648810Y-120890476D01*
X122553572Y-120938095D01*
X123982144Y-120652381D02*
X123791667Y-120652381D01*
X123696429Y-120700000D01*
X123648810Y-120747619D01*
X123553572Y-120890476D01*
X123505953Y-121080952D01*
X123505953Y-121461905D01*
X123553572Y-121557143D01*
X123601191Y-121604762D01*
X123696429Y-121652381D01*
X123886906Y-121652381D01*
X123982144Y-121604762D01*
X124029763Y-121557143D01*
X124077382Y-121461905D01*
X124077382Y-121223810D01*
X124029763Y-121128571D01*
X123982144Y-121080952D01*
X123886906Y-121033333D01*
X123696429Y-121033333D01*
X123601191Y-121080952D01*
X123553572Y-121128571D01*
X123505953Y-121223810D01*
D12*
X112167857Y-119778571D02*
X111667857Y-119064286D01*
X111310714Y-119778571D02*
X111310714Y-118278571D01*
X111882142Y-118278571D01*
X112025000Y-118350000D01*
X112096428Y-118421429D01*
X112167857Y-118564286D01*
X112167857Y-118778571D01*
X112096428Y-118921429D01*
X112025000Y-118992857D01*
X111882142Y-119064286D01*
X111310714Y-119064286D01*
X113453571Y-119778571D02*
X113453571Y-118992857D01*
X113382142Y-118850000D01*
X113239285Y-118778571D01*
X112953571Y-118778571D01*
X112810714Y-118850000D01*
X113453571Y-119707143D02*
X113310714Y-119778571D01*
X112953571Y-119778571D01*
X112810714Y-119707143D01*
X112739285Y-119564286D01*
X112739285Y-119421429D01*
X112810714Y-119278571D01*
X112953571Y-119207143D01*
X113310714Y-119207143D01*
X113453571Y-119135714D01*
X114167857Y-119778571D02*
X114167857Y-118278571D01*
X114167857Y-118850000D02*
X114310714Y-118778571D01*
X114596428Y-118778571D01*
X114739285Y-118850000D01*
X114810714Y-118921429D01*
X114882143Y-119064286D01*
X114882143Y-119492857D01*
X114810714Y-119635714D01*
X114739285Y-119707143D01*
X114596428Y-119778571D01*
X114310714Y-119778571D01*
X114167857Y-119707143D01*
X115525000Y-119778571D02*
X115525000Y-118278571D01*
X115525000Y-118850000D02*
X115667857Y-118778571D01*
X115953571Y-118778571D01*
X116096428Y-118850000D01*
X116167857Y-118921429D01*
X116239286Y-119064286D01*
X116239286Y-119492857D01*
X116167857Y-119635714D01*
X116096428Y-119707143D01*
X115953571Y-119778571D01*
X115667857Y-119778571D01*
X115525000Y-119707143D01*
X116882143Y-119778571D02*
X116882143Y-118778571D01*
X116882143Y-118278571D02*
X116810714Y-118350000D01*
X116882143Y-118421429D01*
X116953571Y-118350000D01*
X116882143Y-118278571D01*
X116882143Y-118421429D01*
X117382143Y-118778571D02*
X117953572Y-118778571D01*
X117596429Y-118278571D02*
X117596429Y-119564286D01*
X117667857Y-119707143D01*
X117810715Y-119778571D01*
X117953572Y-119778571D01*
X118453572Y-119778571D02*
X118453572Y-118278571D01*
X118953572Y-119350000D01*
X119453572Y-118278571D01*
X119453572Y-119778571D01*
X120810715Y-119778571D02*
X120810715Y-118992857D01*
X120739286Y-118850000D01*
X120596429Y-118778571D01*
X120310715Y-118778571D01*
X120167858Y-118850000D01*
X120810715Y-119707143D02*
X120667858Y-119778571D01*
X120310715Y-119778571D01*
X120167858Y-119707143D01*
X120096429Y-119564286D01*
X120096429Y-119421429D01*
X120167858Y-119278571D01*
X120310715Y-119207143D01*
X120667858Y-119207143D01*
X120810715Y-119135714D01*
X121382144Y-119778571D02*
X122167858Y-118778571D01*
X121382144Y-118778571D02*
X122167858Y-119778571D01*
X124382144Y-118992857D02*
X123882144Y-118992857D01*
X123882144Y-119778571D02*
X123882144Y-118278571D01*
X124596430Y-118278571D01*
X125382144Y-119778571D02*
X125239286Y-119707143D01*
X125167858Y-119564286D01*
X125167858Y-118278571D01*
X126525000Y-119707143D02*
X126382143Y-119778571D01*
X126096429Y-119778571D01*
X125953572Y-119707143D01*
X125882143Y-119564286D01*
X125882143Y-118992857D01*
X125953572Y-118850000D01*
X126096429Y-118778571D01*
X126382143Y-118778571D01*
X126525000Y-118850000D01*
X126596429Y-118992857D01*
X126596429Y-119135714D01*
X125882143Y-119278571D01*
X127096429Y-119778571D02*
X127882143Y-118778571D01*
X127096429Y-118778571D02*
X127882143Y-119778571D01*
D13*
X144411904Y-123162381D02*
X144411904Y-122162381D01*
X144745238Y-122876667D01*
X145078571Y-122162381D01*
X145078571Y-123162381D01*
X145983333Y-123162381D02*
X145983333Y-122638571D01*
X145935714Y-122543333D01*
X145840476Y-122495714D01*
X145649999Y-122495714D01*
X145554761Y-122543333D01*
X145983333Y-123114762D02*
X145888095Y-123162381D01*
X145649999Y-123162381D01*
X145554761Y-123114762D01*
X145507142Y-123019524D01*
X145507142Y-122924286D01*
X145554761Y-122829048D01*
X145649999Y-122781429D01*
X145888095Y-122781429D01*
X145983333Y-122733810D01*
X146888095Y-123162381D02*
X146888095Y-122162381D01*
X146888095Y-123114762D02*
X146792857Y-123162381D01*
X146602380Y-123162381D01*
X146507142Y-123114762D01*
X146459523Y-123067143D01*
X146411904Y-122971905D01*
X146411904Y-122686190D01*
X146459523Y-122590952D01*
X146507142Y-122543333D01*
X146602380Y-122495714D01*
X146792857Y-122495714D01*
X146888095Y-122543333D01*
X147745238Y-123114762D02*
X147650000Y-123162381D01*
X147459523Y-123162381D01*
X147364285Y-123114762D01*
X147316666Y-123019524D01*
X147316666Y-122638571D01*
X147364285Y-122543333D01*
X147459523Y-122495714D01*
X147650000Y-122495714D01*
X147745238Y-122543333D01*
X147792857Y-122638571D01*
X147792857Y-122733810D01*
X147316666Y-122829048D01*
X148983333Y-123162381D02*
X148983333Y-122495714D01*
X148983333Y-122162381D02*
X148935714Y-122210000D01*
X148983333Y-122257619D01*
X149030952Y-122210000D01*
X148983333Y-122162381D01*
X148983333Y-122257619D01*
X149459523Y-122495714D02*
X149459523Y-123162381D01*
X149459523Y-122590952D02*
X149507142Y-122543333D01*
X149602380Y-122495714D01*
X149745238Y-122495714D01*
X149840476Y-122543333D01*
X149888095Y-122638571D01*
X149888095Y-123162381D01*
X151459524Y-122638571D02*
X151602381Y-122686190D01*
X151650000Y-122733810D01*
X151697619Y-122829048D01*
X151697619Y-122971905D01*
X151650000Y-123067143D01*
X151602381Y-123114762D01*
X151507143Y-123162381D01*
X151126190Y-123162381D01*
X151126190Y-122162381D01*
X151459524Y-122162381D01*
X151554762Y-122210000D01*
X151602381Y-122257619D01*
X151650000Y-122352857D01*
X151650000Y-122448095D01*
X151602381Y-122543333D01*
X151554762Y-122590952D01*
X151459524Y-122638571D01*
X151126190Y-122638571D01*
X152554762Y-122495714D02*
X152554762Y-123162381D01*
X152126190Y-122495714D02*
X152126190Y-123019524D01*
X152173809Y-123114762D01*
X152269047Y-123162381D01*
X152411905Y-123162381D01*
X152507143Y-123114762D01*
X152554762Y-123067143D01*
X153173809Y-123162381D02*
X153078571Y-123114762D01*
X153030952Y-123019524D01*
X153030952Y-122162381D01*
X153983334Y-122495714D02*
X153983334Y-123305238D01*
X153935715Y-123400476D01*
X153888096Y-123448095D01*
X153792857Y-123495714D01*
X153650000Y-123495714D01*
X153554762Y-123448095D01*
X153983334Y-123114762D02*
X153888096Y-123162381D01*
X153697619Y-123162381D01*
X153602381Y-123114762D01*
X153554762Y-123067143D01*
X153507143Y-122971905D01*
X153507143Y-122686190D01*
X153554762Y-122590952D01*
X153602381Y-122543333D01*
X153697619Y-122495714D01*
X153888096Y-122495714D01*
X153983334Y-122543333D01*
X154888096Y-123162381D02*
X154888096Y-122638571D01*
X154840477Y-122543333D01*
X154745239Y-122495714D01*
X154554762Y-122495714D01*
X154459524Y-122543333D01*
X154888096Y-123114762D02*
X154792858Y-123162381D01*
X154554762Y-123162381D01*
X154459524Y-123114762D01*
X154411905Y-123019524D01*
X154411905Y-122924286D01*
X154459524Y-122829048D01*
X154554762Y-122781429D01*
X154792858Y-122781429D01*
X154888096Y-122733810D01*
X155364286Y-123162381D02*
X155364286Y-122495714D01*
X155364286Y-122686190D02*
X155411905Y-122590952D01*
X155459524Y-122543333D01*
X155554762Y-122495714D01*
X155650001Y-122495714D01*
X155983334Y-123162381D02*
X155983334Y-122495714D01*
X155983334Y-122162381D02*
X155935715Y-122210000D01*
X155983334Y-122257619D01*
X156030953Y-122210000D01*
X155983334Y-122162381D01*
X155983334Y-122257619D01*
X156888096Y-123162381D02*
X156888096Y-122638571D01*
X156840477Y-122543333D01*
X156745239Y-122495714D01*
X156554762Y-122495714D01*
X156459524Y-122543333D01*
X156888096Y-123114762D02*
X156792858Y-123162381D01*
X156554762Y-123162381D01*
X156459524Y-123114762D01*
X156411905Y-123019524D01*
X156411905Y-122924286D01*
X156459524Y-122829048D01*
X156554762Y-122781429D01*
X156792858Y-122781429D01*
X156888096Y-122733810D01*
D12*
X125248571Y-87761428D02*
X125248571Y-88475714D01*
X125962857Y-88547143D01*
X125891429Y-88475714D01*
X125820000Y-88332857D01*
X125820000Y-87975714D01*
X125891429Y-87832857D01*
X125962857Y-87761428D01*
X126105714Y-87690000D01*
X126462857Y-87690000D01*
X126605714Y-87761428D01*
X126677143Y-87832857D01*
X126748571Y-87975714D01*
X126748571Y-88332857D01*
X126677143Y-88475714D01*
X126605714Y-88547143D01*
X126748571Y-87190000D02*
X125748571Y-86404286D01*
X125748571Y-87190000D02*
X126748571Y-86404286D01*
X126748571Y-85832857D02*
X125248571Y-85832857D01*
X125391429Y-85190000D02*
X125320000Y-85118571D01*
X125248571Y-84975714D01*
X125248571Y-84618571D01*
X125320000Y-84475714D01*
X125391429Y-84404285D01*
X125534286Y-84332857D01*
X125677143Y-84332857D01*
X125891429Y-84404285D01*
X126748571Y-85261428D01*
X126748571Y-84332857D01*
X126605714Y-82832857D02*
X126677143Y-82904286D01*
X126748571Y-83118572D01*
X126748571Y-83261429D01*
X126677143Y-83475714D01*
X126534286Y-83618572D01*
X126391429Y-83690000D01*
X126105714Y-83761429D01*
X125891429Y-83761429D01*
X125605714Y-83690000D01*
X125462857Y-83618572D01*
X125320000Y-83475714D01*
X125248571Y-83261429D01*
X125248571Y-83118572D01*
X125320000Y-82904286D01*
X125391429Y-82832857D01*
D10*
X133930477Y-74890000D02*
X133854286Y-74851905D01*
X133740001Y-74851905D01*
X133625715Y-74890000D01*
X133549524Y-74966190D01*
X133511429Y-75042381D01*
X133473334Y-75194762D01*
X133473334Y-75309048D01*
X133511429Y-75461429D01*
X133549524Y-75537619D01*
X133625715Y-75613810D01*
X133740001Y-75651905D01*
X133816191Y-75651905D01*
X133930477Y-75613810D01*
X133968572Y-75575714D01*
X133968572Y-75309048D01*
X133816191Y-75309048D01*
X134311429Y-75651905D02*
X134311429Y-74851905D01*
X134768572Y-75651905D01*
X134768572Y-74851905D01*
X135149524Y-75651905D02*
X135149524Y-74851905D01*
X135340000Y-74851905D01*
X135454286Y-74890000D01*
X135530477Y-74966190D01*
X135568572Y-75042381D01*
X135606667Y-75194762D01*
X135606667Y-75309048D01*
X135568572Y-75461429D01*
X135530477Y-75537619D01*
X135454286Y-75613810D01*
X135340000Y-75651905D01*
X135149524Y-75651905D01*
X131067619Y-75613810D02*
X131181905Y-75651905D01*
X131372381Y-75651905D01*
X131448571Y-75613810D01*
X131486667Y-75575714D01*
X131524762Y-75499524D01*
X131524762Y-75423333D01*
X131486667Y-75347143D01*
X131448571Y-75309048D01*
X131372381Y-75270952D01*
X131220000Y-75232857D01*
X131143809Y-75194762D01*
X131105714Y-75156667D01*
X131067619Y-75080476D01*
X131067619Y-75004286D01*
X131105714Y-74928095D01*
X131143809Y-74890000D01*
X131220000Y-74851905D01*
X131410476Y-74851905D01*
X131524762Y-74890000D01*
X132324762Y-75575714D02*
X132286667Y-75613810D01*
X132172381Y-75651905D01*
X132096191Y-75651905D01*
X131981905Y-75613810D01*
X131905714Y-75537619D01*
X131867619Y-75461429D01*
X131829524Y-75309048D01*
X131829524Y-75194762D01*
X131867619Y-75042381D01*
X131905714Y-74966190D01*
X131981905Y-74890000D01*
X132096191Y-74851905D01*
X132172381Y-74851905D01*
X132286667Y-74890000D01*
X132324762Y-74928095D01*
X133048572Y-75651905D02*
X132667619Y-75651905D01*
X132667619Y-74851905D01*
X135909048Y-74851905D02*
X136404286Y-74851905D01*
X136137619Y-75156667D01*
X136251905Y-75156667D01*
X136328095Y-75194762D01*
X136366191Y-75232857D01*
X136404286Y-75309048D01*
X136404286Y-75499524D01*
X136366191Y-75575714D01*
X136328095Y-75613810D01*
X136251905Y-75651905D01*
X136023333Y-75651905D01*
X135947143Y-75613810D01*
X135909048Y-75575714D01*
X136747143Y-75575714D02*
X136785238Y-75613810D01*
X136747143Y-75651905D01*
X136709048Y-75613810D01*
X136747143Y-75575714D01*
X136747143Y-75651905D01*
X137051905Y-74851905D02*
X137547143Y-74851905D01*
X137280476Y-75156667D01*
X137394762Y-75156667D01*
X137470952Y-75194762D01*
X137509048Y-75232857D01*
X137547143Y-75309048D01*
X137547143Y-75499524D01*
X137509048Y-75575714D01*
X137470952Y-75613810D01*
X137394762Y-75651905D01*
X137166190Y-75651905D01*
X137090000Y-75613810D01*
X137051905Y-75575714D01*
X137775714Y-74851905D02*
X138042381Y-75651905D01*
X138309048Y-74851905D01*
X128518572Y-75643810D02*
X128632858Y-75681905D01*
X128823334Y-75681905D01*
X128899524Y-75643810D01*
X128937620Y-75605714D01*
X128975715Y-75529524D01*
X128975715Y-75453333D01*
X128937620Y-75377143D01*
X128899524Y-75339048D01*
X128823334Y-75300952D01*
X128670953Y-75262857D01*
X128594762Y-75224762D01*
X128556667Y-75186667D01*
X128518572Y-75110476D01*
X128518572Y-75034286D01*
X128556667Y-74958095D01*
X128594762Y-74920000D01*
X128670953Y-74881905D01*
X128861429Y-74881905D01*
X128975715Y-74920000D01*
X129318572Y-75681905D02*
X129318572Y-74881905D01*
X129509048Y-74881905D01*
X129623334Y-74920000D01*
X129699525Y-74996190D01*
X129737620Y-75072381D01*
X129775715Y-75224762D01*
X129775715Y-75339048D01*
X129737620Y-75491429D01*
X129699525Y-75567619D01*
X129623334Y-75643810D01*
X129509048Y-75681905D01*
X129318572Y-75681905D01*
X130080477Y-75453333D02*
X130461429Y-75453333D01*
X130004286Y-75681905D02*
X130270953Y-74881905D01*
X130537620Y-75681905D01*
X136109048Y-93741905D02*
X136604286Y-93741905D01*
X136337619Y-94046667D01*
X136451905Y-94046667D01*
X136528095Y-94084762D01*
X136566191Y-94122857D01*
X136604286Y-94199048D01*
X136604286Y-94389524D01*
X136566191Y-94465714D01*
X136528095Y-94503810D01*
X136451905Y-94541905D01*
X136223333Y-94541905D01*
X136147143Y-94503810D01*
X136109048Y-94465714D01*
X136947143Y-94465714D02*
X136985238Y-94503810D01*
X136947143Y-94541905D01*
X136909048Y-94503810D01*
X136947143Y-94465714D01*
X136947143Y-94541905D01*
X137251905Y-93741905D02*
X137747143Y-93741905D01*
X137480476Y-94046667D01*
X137594762Y-94046667D01*
X137670952Y-94084762D01*
X137709048Y-94122857D01*
X137747143Y-94199048D01*
X137747143Y-94389524D01*
X137709048Y-94465714D01*
X137670952Y-94503810D01*
X137594762Y-94541905D01*
X137366190Y-94541905D01*
X137290000Y-94503810D01*
X137251905Y-94465714D01*
X137975714Y-93741905D02*
X138242381Y-94541905D01*
X138509048Y-93741905D01*
X133970477Y-93780000D02*
X133894286Y-93741905D01*
X133780001Y-93741905D01*
X133665715Y-93780000D01*
X133589524Y-93856190D01*
X133551429Y-93932381D01*
X133513334Y-94084762D01*
X133513334Y-94199048D01*
X133551429Y-94351429D01*
X133589524Y-94427619D01*
X133665715Y-94503810D01*
X133780001Y-94541905D01*
X133856191Y-94541905D01*
X133970477Y-94503810D01*
X134008572Y-94465714D01*
X134008572Y-94199048D01*
X133856191Y-94199048D01*
X134351429Y-94541905D02*
X134351429Y-93741905D01*
X134808572Y-94541905D01*
X134808572Y-93741905D01*
X135189524Y-94541905D02*
X135189524Y-93741905D01*
X135380000Y-93741905D01*
X135494286Y-93780000D01*
X135570477Y-93856190D01*
X135608572Y-93932381D01*
X135646667Y-94084762D01*
X135646667Y-94199048D01*
X135608572Y-94351429D01*
X135570477Y-94427619D01*
X135494286Y-94503810D01*
X135380000Y-94541905D01*
X135189524Y-94541905D01*
X128378572Y-94493810D02*
X128492858Y-94531905D01*
X128683334Y-94531905D01*
X128759524Y-94493810D01*
X128797620Y-94455714D01*
X128835715Y-94379524D01*
X128835715Y-94303333D01*
X128797620Y-94227143D01*
X128759524Y-94189048D01*
X128683334Y-94150952D01*
X128530953Y-94112857D01*
X128454762Y-94074762D01*
X128416667Y-94036667D01*
X128378572Y-93960476D01*
X128378572Y-93884286D01*
X128416667Y-93808095D01*
X128454762Y-93770000D01*
X128530953Y-93731905D01*
X128721429Y-93731905D01*
X128835715Y-93770000D01*
X129178572Y-94531905D02*
X129178572Y-93731905D01*
X129369048Y-93731905D01*
X129483334Y-93770000D01*
X129559525Y-93846190D01*
X129597620Y-93922381D01*
X129635715Y-94074762D01*
X129635715Y-94189048D01*
X129597620Y-94341429D01*
X129559525Y-94417619D01*
X129483334Y-94493810D01*
X129369048Y-94531905D01*
X129178572Y-94531905D01*
X129940477Y-94303333D02*
X130321429Y-94303333D01*
X129864286Y-94531905D02*
X130130953Y-93731905D01*
X130397620Y-94531905D01*
X131057619Y-94473810D02*
X131171905Y-94511905D01*
X131362381Y-94511905D01*
X131438571Y-94473810D01*
X131476667Y-94435714D01*
X131514762Y-94359524D01*
X131514762Y-94283333D01*
X131476667Y-94207143D01*
X131438571Y-94169048D01*
X131362381Y-94130952D01*
X131210000Y-94092857D01*
X131133809Y-94054762D01*
X131095714Y-94016667D01*
X131057619Y-93940476D01*
X131057619Y-93864286D01*
X131095714Y-93788095D01*
X131133809Y-93750000D01*
X131210000Y-93711905D01*
X131400476Y-93711905D01*
X131514762Y-93750000D01*
X132314762Y-94435714D02*
X132276667Y-94473810D01*
X132162381Y-94511905D01*
X132086191Y-94511905D01*
X131971905Y-94473810D01*
X131895714Y-94397619D01*
X131857619Y-94321429D01*
X131819524Y-94169048D01*
X131819524Y-94054762D01*
X131857619Y-93902381D01*
X131895714Y-93826190D01*
X131971905Y-93750000D01*
X132086191Y-93711905D01*
X132162381Y-93711905D01*
X132276667Y-93750000D01*
X132314762Y-93788095D01*
X133038572Y-94511905D02*
X132657619Y-94511905D01*
X132657619Y-93711905D01*
X117900000Y-89509523D02*
X117861905Y-89585714D01*
X117861905Y-89699999D01*
X117900000Y-89814285D01*
X117976190Y-89890476D01*
X118052381Y-89928571D01*
X118204762Y-89966666D01*
X118319048Y-89966666D01*
X118471429Y-89928571D01*
X118547619Y-89890476D01*
X118623810Y-89814285D01*
X118661905Y-89699999D01*
X118661905Y-89623809D01*
X118623810Y-89509523D01*
X118585714Y-89471428D01*
X118319048Y-89471428D01*
X118319048Y-89623809D01*
X118661905Y-89128571D02*
X117861905Y-89128571D01*
X118661905Y-88671428D01*
X117861905Y-88671428D01*
X118661905Y-88290476D02*
X117861905Y-88290476D01*
X117861905Y-88100000D01*
X117900000Y-87985714D01*
X117976190Y-87909523D01*
X118052381Y-87871428D01*
X118204762Y-87833333D01*
X118319048Y-87833333D01*
X118471429Y-87871428D01*
X118547619Y-87909523D01*
X118623810Y-87985714D01*
X118661905Y-88100000D01*
X118661905Y-88290476D01*
X110161905Y-89880952D02*
X110161905Y-89385714D01*
X110466667Y-89652381D01*
X110466667Y-89538095D01*
X110504762Y-89461905D01*
X110542857Y-89423809D01*
X110619048Y-89385714D01*
X110809524Y-89385714D01*
X110885714Y-89423809D01*
X110923810Y-89461905D01*
X110961905Y-89538095D01*
X110961905Y-89766667D01*
X110923810Y-89842857D01*
X110885714Y-89880952D01*
X110885714Y-89042857D02*
X110923810Y-89004762D01*
X110961905Y-89042857D01*
X110923810Y-89080952D01*
X110885714Y-89042857D01*
X110961905Y-89042857D01*
X110161905Y-88738095D02*
X110161905Y-88242857D01*
X110466667Y-88509524D01*
X110466667Y-88395238D01*
X110504762Y-88319048D01*
X110542857Y-88280952D01*
X110619048Y-88242857D01*
X110809524Y-88242857D01*
X110885714Y-88280952D01*
X110923810Y-88319048D01*
X110961905Y-88395238D01*
X110961905Y-88623810D01*
X110923810Y-88700000D01*
X110885714Y-88738095D01*
X110161905Y-88014286D02*
X110961905Y-87747619D01*
X110161905Y-87480952D01*
X112661905Y-90009524D02*
X112661905Y-89552381D01*
X113461905Y-89780952D02*
X112661905Y-89780952D01*
X112661905Y-89361904D02*
X113461905Y-88828571D01*
X112661905Y-88828571D02*
X113461905Y-89361904D01*
X113461905Y-88523809D02*
X112661905Y-88523809D01*
X112661905Y-88333333D01*
X112700000Y-88219047D01*
X112776190Y-88142856D01*
X112852381Y-88104761D01*
X113004762Y-88066666D01*
X113119048Y-88066666D01*
X113271429Y-88104761D01*
X113347619Y-88142856D01*
X113423810Y-88219047D01*
X113461905Y-88333333D01*
X113461905Y-88523809D01*
X116061905Y-89533333D02*
X115680952Y-89800000D01*
X116061905Y-89990476D02*
X115261905Y-89990476D01*
X115261905Y-89685714D01*
X115300000Y-89609523D01*
X115338095Y-89571428D01*
X115414286Y-89533333D01*
X115528571Y-89533333D01*
X115604762Y-89571428D01*
X115642857Y-89609523D01*
X115680952Y-89685714D01*
X115680952Y-89990476D01*
X115261905Y-89266666D02*
X116061905Y-88733333D01*
X115261905Y-88733333D02*
X116061905Y-89266666D01*
X116061905Y-88428571D02*
X115261905Y-88428571D01*
X115261905Y-88238095D01*
X115300000Y-88123809D01*
X115376190Y-88047618D01*
X115452381Y-88009523D01*
X115604762Y-87971428D01*
X115719048Y-87971428D01*
X115871429Y-88009523D01*
X115947619Y-88047618D01*
X116023810Y-88123809D01*
X116061905Y-88238095D01*
X116061905Y-88428571D01*
D13*
X155900000Y-69560000D02*
X105100000Y-69560000D01*
X107640000Y-74640000D02*
X155900000Y-74640000D01*
X155900000Y-69560000D02*
X155900000Y-74640000D01*
X105100000Y-69560000D02*
X105100000Y-72100000D01*
X104820000Y-73370000D02*
X104820000Y-74920000D01*
X105100000Y-72100000D02*
X107640000Y-72100000D01*
X107640000Y-72100000D02*
X107640000Y-74640000D01*
X104820000Y-74920000D02*
X106370000Y-74920000D01*
X152600000Y-95505000D02*
X152150000Y-95505000D01*
X156650000Y-98005000D02*
G75*
G03X156650000Y-98005000I-2950000J0D01*
G01*
X154800000Y-95505000D02*
X155250000Y-95505000D01*
X108560840Y-84470240D02*
X108609100Y-84470240D01*
X111359820Y-83769200D02*
X111359820Y-84470240D01*
X111359820Y-84470240D02*
X111110900Y-84470240D01*
X108560840Y-84470240D02*
X108360180Y-84470240D01*
X108360180Y-84470240D02*
X108360180Y-83769200D01*
X158150000Y-79450000D02*
X158150000Y-78750000D01*
X159350000Y-78750000D02*
X159350000Y-79450000D01*
X158145000Y-85460000D02*
X158145000Y-84460000D01*
X159495000Y-84460000D02*
X159495000Y-85460000D01*
X155000000Y-79425000D02*
X156000000Y-79425000D01*
X156000000Y-80775000D02*
X155000000Y-80775000D01*
X155000000Y-77675000D02*
X156000000Y-77675000D01*
X156000000Y-79025000D02*
X155000000Y-79025000D01*
X102640000Y-79470000D02*
X102640000Y-80470000D01*
X104340000Y-80470000D02*
X104340000Y-79470000D01*
X104530000Y-83285000D02*
X105530000Y-83285000D01*
X105530000Y-84635000D02*
X104530000Y-84635000D01*
X105035000Y-80620000D02*
X105035000Y-79620000D01*
X106385000Y-79620000D02*
X106385000Y-80620000D01*
X140225000Y-88200000D02*
X140225000Y-87200000D01*
X141575000Y-87200000D02*
X141575000Y-88200000D01*
X143275000Y-87200000D02*
X143275000Y-88200000D01*
X141925000Y-88200000D02*
X141925000Y-87200000D01*
X160070000Y-97770000D02*
X160070000Y-100310000D01*
X160350000Y-94950000D02*
X160350000Y-96500000D01*
X160070000Y-97770000D02*
X157530000Y-97770000D01*
X157250000Y-96500000D02*
X157250000Y-94950000D01*
X157250000Y-94950000D02*
X160350000Y-94950000D01*
X157530000Y-97770000D02*
X157530000Y-100310000D01*
X157530000Y-100310000D02*
X160070000Y-100310000D01*
X140400840Y-92550240D02*
X140449100Y-92550240D01*
X143199820Y-91849200D02*
X143199820Y-92550240D01*
X143199820Y-92550240D02*
X142950900Y-92550240D01*
X140400840Y-92550240D02*
X140200180Y-92550240D01*
X140200180Y-92550240D02*
X140200180Y-91849200D01*
X143900840Y-92550240D02*
X143949100Y-92550240D01*
X146699820Y-91849200D02*
X146699820Y-92550240D01*
X146699820Y-92550240D02*
X146450900Y-92550240D01*
X143900840Y-92550240D02*
X143700180Y-92550240D01*
X143700180Y-92550240D02*
X143700180Y-91849200D01*
X110030000Y-77945000D02*
X109030000Y-77945000D01*
X109030000Y-76595000D02*
X110030000Y-76595000D01*
X110030000Y-79605000D02*
X109030000Y-79605000D01*
X109030000Y-78255000D02*
X110030000Y-78255000D01*
X110030000Y-81275000D02*
X109030000Y-81275000D01*
X109030000Y-79925000D02*
X110030000Y-79925000D01*
X146675000Y-87200000D02*
X146675000Y-88200000D01*
X145325000Y-88200000D02*
X145325000Y-87200000D01*
X146681000Y-104542000D02*
X146681000Y-105542000D01*
X145331000Y-105542000D02*
X145331000Y-104542000D01*
X136655000Y-96980000D02*
X136655000Y-97980000D01*
X135305000Y-97980000D02*
X135305000Y-96980000D01*
X149105000Y-81565000D02*
X149105000Y-82835000D01*
X156455000Y-81565000D02*
X156455000Y-82835000D01*
X156455000Y-93775000D02*
X156455000Y-92505000D01*
X149105000Y-93775000D02*
X149105000Y-92505000D01*
X149105000Y-81565000D02*
X156455000Y-81565000D01*
X149105000Y-93775000D02*
X156455000Y-93775000D01*
X149105000Y-82835000D02*
X148170000Y-82835000D01*
X146855000Y-97414000D02*
X146855000Y-96414000D01*
X148205000Y-96414000D02*
X148205000Y-97414000D01*
X148633000Y-97414000D02*
X148633000Y-96414000D01*
X149983000Y-96414000D02*
X149983000Y-97414000D01*
X101810000Y-116472000D02*
X139910000Y-116472000D01*
X139910000Y-116472000D02*
X139910000Y-113932000D01*
X139910000Y-113932000D02*
X101810000Y-113932000D01*
X98990000Y-113652000D02*
X100540000Y-113652000D01*
X101810000Y-113932000D02*
X101810000Y-116472000D01*
X100540000Y-116752000D02*
X98990000Y-116752000D01*
X98990000Y-116752000D02*
X98990000Y-113652000D01*
X159400000Y-102575000D02*
X158400000Y-102575000D01*
X158400000Y-101225000D02*
X159400000Y-101225000D01*
X99270000Y-76140000D02*
G75*
G03X99270000Y-81220000I2540000J-2540000D01*
G01*
X101810000Y-74870000D02*
X101810000Y-82490000D01*
X101810000Y-82490000D02*
X99270000Y-82490000D01*
X99270000Y-82490000D02*
X99270000Y-74870000D01*
X99270000Y-74870000D02*
X101810000Y-74870000D01*
X101834000Y-86699000D02*
X101634000Y-86699000D01*
X99240000Y-86699000D02*
X99420000Y-86699000D01*
X99550357Y-83471256D02*
G75*
G03X99234000Y-86699000I1003643J-1727744D01*
G01*
X99420932Y-84146994D02*
G75*
G03X99420000Y-86250000I1133068J-1052006D01*
G01*
X101860726Y-86686220D02*
G75*
G03X101514000Y-83449000I-1306726J1497220D01*
G01*
X101633253Y-86212889D02*
G75*
G03X101614000Y-84165000I-1079253J1013889D01*
G01*
X111870000Y-93170000D02*
X119490000Y-93170000D01*
X111870000Y-90630000D02*
X119490000Y-90630000D01*
X109050000Y-90350000D02*
X110600000Y-90350000D01*
X119490000Y-93170000D02*
X119490000Y-90630000D01*
X111870000Y-90630000D02*
X111870000Y-93170000D01*
X110600000Y-93450000D02*
X109050000Y-93450000D01*
X109050000Y-93450000D02*
X109050000Y-90350000D01*
X135830000Y-90630000D02*
X128210000Y-90630000D01*
X135830000Y-93170000D02*
X128210000Y-93170000D01*
X138650000Y-93450000D02*
X137100000Y-93450000D01*
X128210000Y-90630000D02*
X128210000Y-93170000D01*
X135830000Y-93170000D02*
X135830000Y-90630000D01*
X137100000Y-90350000D02*
X138650000Y-90350000D01*
X138650000Y-90350000D02*
X138650000Y-93450000D01*
X135830000Y-76230000D02*
X128210000Y-76230000D01*
X135830000Y-78770000D02*
X128210000Y-78770000D01*
X138650000Y-79050000D02*
X137100000Y-79050000D01*
X128210000Y-76230000D02*
X128210000Y-78770000D01*
X135830000Y-78770000D02*
X135830000Y-76230000D01*
X137100000Y-75950000D02*
X138650000Y-75950000D01*
X138650000Y-75950000D02*
X138650000Y-79050000D01*
X135830000Y-87030000D02*
X128210000Y-87030000D01*
X135830000Y-89570000D02*
X128210000Y-89570000D01*
X138650000Y-89850000D02*
X137100000Y-89850000D01*
X128210000Y-87030000D02*
X128210000Y-89570000D01*
X135830000Y-89570000D02*
X135830000Y-87030000D01*
X137100000Y-86750000D02*
X138650000Y-86750000D01*
X138650000Y-86750000D02*
X138650000Y-89850000D01*
X135830000Y-83430000D02*
X128210000Y-83430000D01*
X135830000Y-85970000D02*
X128210000Y-85970000D01*
X138650000Y-86250000D02*
X137100000Y-86250000D01*
X128210000Y-83430000D02*
X128210000Y-85970000D01*
X135830000Y-85970000D02*
X135830000Y-83430000D01*
X137100000Y-83150000D02*
X138650000Y-83150000D01*
X138650000Y-83150000D02*
X138650000Y-86250000D01*
X135830000Y-79830000D02*
X128210000Y-79830000D01*
X135830000Y-82370000D02*
X128210000Y-82370000D01*
X138650000Y-82650000D02*
X137100000Y-82650000D01*
X128210000Y-79830000D02*
X128210000Y-82370000D01*
X135830000Y-82370000D02*
X135830000Y-79830000D01*
X137100000Y-79550000D02*
X138650000Y-79550000D01*
X138650000Y-79550000D02*
X138650000Y-82650000D01*
X144230000Y-103330000D02*
X138230000Y-103330000D01*
X138230000Y-103330000D02*
X138230000Y-95330000D01*
X138230000Y-95330000D02*
X144230000Y-95330000D01*
X144230000Y-95330000D02*
X144230000Y-103330000D01*
X135900000Y-105377500D02*
X135900000Y-105758500D01*
X135900000Y-104361500D02*
X135900000Y-104742500D01*
X135900000Y-104742500D02*
X136281000Y-105377500D01*
X136281000Y-105377500D02*
X135519000Y-105377500D01*
X135519000Y-105377500D02*
X135900000Y-104742500D01*
X136408000Y-104742500D02*
X135392000Y-104742500D01*
X135000000Y-103060000D02*
X135000000Y-106600000D01*
X136800000Y-103060000D02*
X136800000Y-106600000D01*
X159074982Y-109880000D02*
G75*
G03X159074982Y-109880000I-6264982J0D01*
G01*
D14*
G36*
X105400911Y-116862558D02*
X105419465Y-116871105D01*
X105459387Y-116897522D01*
X105497668Y-116935718D01*
X105535379Y-116987872D01*
X105573594Y-117056163D01*
X105613385Y-117142772D01*
X105655825Y-117249877D01*
X105701986Y-117379657D01*
X105752941Y-117534292D01*
X105765829Y-117574793D01*
X105795550Y-117667534D01*
X105827319Y-117764636D01*
X105858218Y-117857306D01*
X105885325Y-117936751D01*
X105897795Y-117972278D01*
X105957581Y-118156946D01*
X106004365Y-118337322D01*
X106033179Y-118487334D01*
X106049572Y-118593167D01*
X106211259Y-118595556D01*
X106288336Y-118598654D01*
X106366566Y-118605091D01*
X106434921Y-118613808D01*
X106469413Y-118620330D01*
X106528580Y-118632488D01*
X106565566Y-118635266D01*
X106584999Y-118628105D01*
X106591509Y-118610443D01*
X106591667Y-118605520D01*
X106601333Y-118561339D01*
X106629933Y-118497726D01*
X106676866Y-118415619D01*
X106741536Y-118315958D01*
X106823341Y-118199682D01*
X106921684Y-118067730D01*
X106995647Y-117972144D01*
X107014739Y-117941013D01*
X107042231Y-117886474D01*
X107076733Y-117811592D01*
X107116855Y-117719428D01*
X107161210Y-117613047D01*
X107184333Y-117556000D01*
X107237567Y-117424366D01*
X107282241Y-117316276D01*
X107319777Y-117228873D01*
X107351595Y-117159303D01*
X107379115Y-117104710D01*
X107403757Y-117062237D01*
X107426941Y-117029030D01*
X107450088Y-117002233D01*
X107468700Y-116984241D01*
X107527891Y-116946077D01*
X107589637Y-116935884D01*
X107653476Y-116953575D01*
X107718941Y-116999061D01*
X107758445Y-117039245D01*
X107788173Y-117076304D01*
X107814152Y-117117303D01*
X107838683Y-117167292D01*
X107864067Y-117231325D01*
X107892604Y-117314451D01*
X107913462Y-117379611D01*
X107928953Y-117430941D01*
X107939790Y-117474578D01*
X107946756Y-117517514D01*
X107950633Y-117566737D01*
X107952206Y-117629236D01*
X107952257Y-117712003D01*
X107952188Y-117725334D01*
X107943769Y-117909456D01*
X107921531Y-118104832D01*
X107887108Y-118302640D01*
X107842137Y-118494062D01*
X107788254Y-118670276D01*
X107765446Y-118732279D01*
X107707506Y-118851845D01*
X107627344Y-118973520D01*
X107529750Y-119091236D01*
X107419514Y-119198924D01*
X107355770Y-119251267D01*
X107326626Y-119275303D01*
X107316740Y-119292972D01*
X107322595Y-119314583D01*
X107329471Y-119328418D01*
X107352581Y-119382495D01*
X107377742Y-119456334D01*
X107402631Y-119541816D01*
X107424924Y-119630819D01*
X107442297Y-119715226D01*
X107445452Y-119733745D01*
X107462697Y-119898011D01*
X107464369Y-120073069D01*
X107450625Y-120246279D01*
X107438119Y-120327696D01*
X107426845Y-120390481D01*
X107417740Y-120442631D01*
X107411838Y-120478133D01*
X107410111Y-120490714D01*
X107423349Y-120491824D01*
X107460118Y-120489445D01*
X107515996Y-120484003D01*
X107586567Y-120475925D01*
X107660584Y-120466542D01*
X107863363Y-120445870D01*
X108054710Y-120438589D01*
X108230659Y-120444653D01*
X108387243Y-120464016D01*
X108443923Y-120475557D01*
X108649181Y-120532276D01*
X108847574Y-120605377D01*
X109036420Y-120693026D01*
X109213038Y-120793387D01*
X109374748Y-120904626D01*
X109518868Y-121024909D01*
X109642717Y-121152402D01*
X109743615Y-121285269D01*
X109815417Y-121414036D01*
X109860154Y-121511461D01*
X109911987Y-121459628D01*
X109943864Y-121421870D01*
X109966292Y-121384501D01*
X109971597Y-121369259D01*
X109984612Y-121313851D01*
X109999078Y-121279342D01*
X110019446Y-121258570D01*
X110048889Y-121244829D01*
X110126875Y-121227418D01*
X110193650Y-121235726D01*
X110249770Y-121270021D01*
X110295792Y-121330570D01*
X110316346Y-121373557D01*
X110329746Y-121408368D01*
X110339176Y-121440900D01*
X110345323Y-121477152D01*
X110348870Y-121523122D01*
X110350501Y-121584806D01*
X110350901Y-121668204D01*
X110350900Y-121676445D01*
X110349046Y-121796021D01*
X110342921Y-121894017D01*
X110331553Y-121976883D01*
X110313970Y-122051068D01*
X110289201Y-122123020D01*
X110280294Y-122144968D01*
X110203279Y-122295562D01*
X110103238Y-122437891D01*
X109984539Y-122567335D01*
X109851553Y-122679273D01*
X109708649Y-122769086D01*
X109673108Y-122786957D01*
X109572493Y-122835083D01*
X109612368Y-122929989D01*
X109656886Y-123065183D01*
X109674238Y-123193170D01*
X109664740Y-123313160D01*
X109628707Y-123424368D01*
X109566457Y-123526005D01*
X109478304Y-123617285D01*
X109364565Y-123697418D01*
X109288162Y-123737923D01*
X109143225Y-123794825D01*
X108999402Y-123827094D01*
X108860250Y-123834119D01*
X108778889Y-123825696D01*
X108697365Y-123805026D01*
X108617065Y-123772660D01*
X108555486Y-123736765D01*
X108509903Y-123709672D01*
X108462429Y-123690158D01*
X108447626Y-123686412D01*
X108384776Y-123661752D01*
X108327700Y-123615927D01*
X108288477Y-123562125D01*
X108276560Y-123531268D01*
X108269041Y-123488266D01*
X108265196Y-123427281D01*
X108264289Y-123367455D01*
X108264518Y-123299819D01*
X108266476Y-123254035D01*
X108271342Y-123223737D01*
X108280291Y-123202559D01*
X108294501Y-123184136D01*
X108299111Y-123179110D01*
X108336021Y-123147046D01*
X108380639Y-123117682D01*
X108387306Y-123114118D01*
X108423271Y-123093463D01*
X108437552Y-123074407D01*
X108434299Y-123047180D01*
X108425840Y-123023342D01*
X108417621Y-123004443D01*
X108406452Y-122993780D01*
X108385736Y-122989833D01*
X108348874Y-122991080D01*
X108302368Y-122994878D01*
X108230687Y-123002925D01*
X108149662Y-123014834D01*
X108080389Y-123027340D01*
X107936710Y-123046713D01*
X107777563Y-123050752D01*
X107610677Y-123040200D01*
X107443779Y-123015800D01*
X107284596Y-122978294D01*
X107168961Y-122939725D01*
X107155697Y-122941031D01*
X107141379Y-122958023D01*
X107123609Y-122994611D01*
X107102461Y-123048110D01*
X107077021Y-123118910D01*
X107051041Y-123196428D01*
X107029748Y-123265011D01*
X107028014Y-123271000D01*
X106981657Y-123402330D01*
X106923335Y-123517955D01*
X106855221Y-123614768D01*
X106779488Y-123689660D01*
X106701443Y-123738132D01*
X106666162Y-123752568D01*
X106631875Y-123762204D01*
X106591566Y-123767977D01*
X106538217Y-123770828D01*
X106464814Y-123771694D01*
X106450556Y-123771711D01*
X106295592Y-123765047D01*
X106159776Y-123745242D01*
X106045531Y-123712747D01*
X105983893Y-123684983D01*
X105932191Y-123648864D01*
X105893443Y-123605749D01*
X105873476Y-123562696D01*
X105872000Y-123549424D01*
X105860366Y-123531893D01*
X105830512Y-123509118D01*
X105804973Y-123494468D01*
X105741037Y-123446841D01*
X105686294Y-123376589D01*
X105642913Y-123288422D01*
X105613063Y-123187048D01*
X105598912Y-123077178D01*
X105598058Y-123045223D01*
X105602025Y-122961109D01*
X105617031Y-122898041D01*
X105646611Y-122849859D01*
X105694300Y-122810403D01*
X105750408Y-122779752D01*
X105808838Y-122755032D01*
X105868332Y-122735316D01*
X105915594Y-122724943D01*
X105983651Y-122716883D01*
X106034813Y-122595303D01*
X106059127Y-122531402D01*
X106079237Y-122467310D01*
X106091811Y-122414044D01*
X106093762Y-122400499D01*
X106096786Y-122359702D01*
X106092922Y-122329978D01*
X106078633Y-122301151D01*
X106050380Y-122263048D01*
X106042519Y-122253138D01*
X105999457Y-122206560D01*
X105949706Y-122163464D01*
X105915794Y-122140337D01*
X105828457Y-122075477D01*
X105747988Y-121985771D01*
X105676440Y-121874183D01*
X105615868Y-121743677D01*
X105589411Y-121669389D01*
X105573767Y-121613290D01*
X105563574Y-121555384D01*
X105557707Y-121486850D01*
X105555059Y-121400276D01*
X105553722Y-121328046D01*
X105551236Y-121276984D01*
X105546131Y-121240038D01*
X105536940Y-121210157D01*
X105522193Y-121180288D01*
X105502168Y-121146276D01*
X105386052Y-120928651D01*
X105297708Y-120707237D01*
X105236840Y-120481176D01*
X105207547Y-120294746D01*
X105200172Y-120161720D01*
X105203863Y-120011480D01*
X105217647Y-119852335D01*
X105240548Y-119692596D01*
X105271591Y-119540572D01*
X105309801Y-119404573D01*
X105313182Y-119394508D01*
X105347844Y-119292737D01*
X105285704Y-119198128D01*
X105200936Y-119045372D01*
X105133766Y-118873270D01*
X105085297Y-118685376D01*
X105056635Y-118485247D01*
X105053941Y-118452056D01*
X105047024Y-118361056D01*
X105038819Y-118259398D01*
X105030489Y-118161253D01*
X105024935Y-118099278D01*
X105017164Y-117945682D01*
X105020103Y-117779491D01*
X105032913Y-117608083D01*
X105054755Y-117438834D01*
X105084789Y-117279119D01*
X105122178Y-117136316D01*
X105140815Y-117080538D01*
X105183886Y-116981421D01*
X105231342Y-116910132D01*
X105283273Y-116866602D01*
X105339766Y-116850767D01*
X105400911Y-116862558D01*
X105400911Y-116862558D01*
G37*
X105400911Y-116862558D02*
X105419465Y-116871105D01*
X105459387Y-116897522D01*
X105497668Y-116935718D01*
X105535379Y-116987872D01*
X105573594Y-117056163D01*
X105613385Y-117142772D01*
X105655825Y-117249877D01*
X105701986Y-117379657D01*
X105752941Y-117534292D01*
X105765829Y-117574793D01*
X105795550Y-117667534D01*
X105827319Y-117764636D01*
X105858218Y-117857306D01*
X105885325Y-117936751D01*
X105897795Y-117972278D01*
X105957581Y-118156946D01*
X106004365Y-118337322D01*
X106033179Y-118487334D01*
X106049572Y-118593167D01*
X106211259Y-118595556D01*
X106288336Y-118598654D01*
X106366566Y-118605091D01*
X106434921Y-118613808D01*
X106469413Y-118620330D01*
X106528580Y-118632488D01*
X106565566Y-118635266D01*
X106584999Y-118628105D01*
X106591509Y-118610443D01*
X106591667Y-118605520D01*
X106601333Y-118561339D01*
X106629933Y-118497726D01*
X106676866Y-118415619D01*
X106741536Y-118315958D01*
X106823341Y-118199682D01*
X106921684Y-118067730D01*
X106995647Y-117972144D01*
X107014739Y-117941013D01*
X107042231Y-117886474D01*
X107076733Y-117811592D01*
X107116855Y-117719428D01*
X107161210Y-117613047D01*
X107184333Y-117556000D01*
X107237567Y-117424366D01*
X107282241Y-117316276D01*
X107319777Y-117228873D01*
X107351595Y-117159303D01*
X107379115Y-117104710D01*
X107403757Y-117062237D01*
X107426941Y-117029030D01*
X107450088Y-117002233D01*
X107468700Y-116984241D01*
X107527891Y-116946077D01*
X107589637Y-116935884D01*
X107653476Y-116953575D01*
X107718941Y-116999061D01*
X107758445Y-117039245D01*
X107788173Y-117076304D01*
X107814152Y-117117303D01*
X107838683Y-117167292D01*
X107864067Y-117231325D01*
X107892604Y-117314451D01*
X107913462Y-117379611D01*
X107928953Y-117430941D01*
X107939790Y-117474578D01*
X107946756Y-117517514D01*
X107950633Y-117566737D01*
X107952206Y-117629236D01*
X107952257Y-117712003D01*
X107952188Y-117725334D01*
X107943769Y-117909456D01*
X107921531Y-118104832D01*
X107887108Y-118302640D01*
X107842137Y-118494062D01*
X107788254Y-118670276D01*
X107765446Y-118732279D01*
X107707506Y-118851845D01*
X107627344Y-118973520D01*
X107529750Y-119091236D01*
X107419514Y-119198924D01*
X107355770Y-119251267D01*
X107326626Y-119275303D01*
X107316740Y-119292972D01*
X107322595Y-119314583D01*
X107329471Y-119328418D01*
X107352581Y-119382495D01*
X107377742Y-119456334D01*
X107402631Y-119541816D01*
X107424924Y-119630819D01*
X107442297Y-119715226D01*
X107445452Y-119733745D01*
X107462697Y-119898011D01*
X107464369Y-120073069D01*
X107450625Y-120246279D01*
X107438119Y-120327696D01*
X107426845Y-120390481D01*
X107417740Y-120442631D01*
X107411838Y-120478133D01*
X107410111Y-120490714D01*
X107423349Y-120491824D01*
X107460118Y-120489445D01*
X107515996Y-120484003D01*
X107586567Y-120475925D01*
X107660584Y-120466542D01*
X107863363Y-120445870D01*
X108054710Y-120438589D01*
X108230659Y-120444653D01*
X108387243Y-120464016D01*
X108443923Y-120475557D01*
X108649181Y-120532276D01*
X108847574Y-120605377D01*
X109036420Y-120693026D01*
X109213038Y-120793387D01*
X109374748Y-120904626D01*
X109518868Y-121024909D01*
X109642717Y-121152402D01*
X109743615Y-121285269D01*
X109815417Y-121414036D01*
X109860154Y-121511461D01*
X109911987Y-121459628D01*
X109943864Y-121421870D01*
X109966292Y-121384501D01*
X109971597Y-121369259D01*
X109984612Y-121313851D01*
X109999078Y-121279342D01*
X110019446Y-121258570D01*
X110048889Y-121244829D01*
X110126875Y-121227418D01*
X110193650Y-121235726D01*
X110249770Y-121270021D01*
X110295792Y-121330570D01*
X110316346Y-121373557D01*
X110329746Y-121408368D01*
X110339176Y-121440900D01*
X110345323Y-121477152D01*
X110348870Y-121523122D01*
X110350501Y-121584806D01*
X110350901Y-121668204D01*
X110350900Y-121676445D01*
X110349046Y-121796021D01*
X110342921Y-121894017D01*
X110331553Y-121976883D01*
X110313970Y-122051068D01*
X110289201Y-122123020D01*
X110280294Y-122144968D01*
X110203279Y-122295562D01*
X110103238Y-122437891D01*
X109984539Y-122567335D01*
X109851553Y-122679273D01*
X109708649Y-122769086D01*
X109673108Y-122786957D01*
X109572493Y-122835083D01*
X109612368Y-122929989D01*
X109656886Y-123065183D01*
X109674238Y-123193170D01*
X109664740Y-123313160D01*
X109628707Y-123424368D01*
X109566457Y-123526005D01*
X109478304Y-123617285D01*
X109364565Y-123697418D01*
X109288162Y-123737923D01*
X109143225Y-123794825D01*
X108999402Y-123827094D01*
X108860250Y-123834119D01*
X108778889Y-123825696D01*
X108697365Y-123805026D01*
X108617065Y-123772660D01*
X108555486Y-123736765D01*
X108509903Y-123709672D01*
X108462429Y-123690158D01*
X108447626Y-123686412D01*
X108384776Y-123661752D01*
X108327700Y-123615927D01*
X108288477Y-123562125D01*
X108276560Y-123531268D01*
X108269041Y-123488266D01*
X108265196Y-123427281D01*
X108264289Y-123367455D01*
X108264518Y-123299819D01*
X108266476Y-123254035D01*
X108271342Y-123223737D01*
X108280291Y-123202559D01*
X108294501Y-123184136D01*
X108299111Y-123179110D01*
X108336021Y-123147046D01*
X108380639Y-123117682D01*
X108387306Y-123114118D01*
X108423271Y-123093463D01*
X108437552Y-123074407D01*
X108434299Y-123047180D01*
X108425840Y-123023342D01*
X108417621Y-123004443D01*
X108406452Y-122993780D01*
X108385736Y-122989833D01*
X108348874Y-122991080D01*
X108302368Y-122994878D01*
X108230687Y-123002925D01*
X108149662Y-123014834D01*
X108080389Y-123027340D01*
X107936710Y-123046713D01*
X107777563Y-123050752D01*
X107610677Y-123040200D01*
X107443779Y-123015800D01*
X107284596Y-122978294D01*
X107168961Y-122939725D01*
X107155697Y-122941031D01*
X107141379Y-122958023D01*
X107123609Y-122994611D01*
X107102461Y-123048110D01*
X107077021Y-123118910D01*
X107051041Y-123196428D01*
X107029748Y-123265011D01*
X107028014Y-123271000D01*
X106981657Y-123402330D01*
X106923335Y-123517955D01*
X106855221Y-123614768D01*
X106779488Y-123689660D01*
X106701443Y-123738132D01*
X106666162Y-123752568D01*
X106631875Y-123762204D01*
X106591566Y-123767977D01*
X106538217Y-123770828D01*
X106464814Y-123771694D01*
X106450556Y-123771711D01*
X106295592Y-123765047D01*
X106159776Y-123745242D01*
X106045531Y-123712747D01*
X105983893Y-123684983D01*
X105932191Y-123648864D01*
X105893443Y-123605749D01*
X105873476Y-123562696D01*
X105872000Y-123549424D01*
X105860366Y-123531893D01*
X105830512Y-123509118D01*
X105804973Y-123494468D01*
X105741037Y-123446841D01*
X105686294Y-123376589D01*
X105642913Y-123288422D01*
X105613063Y-123187048D01*
X105598912Y-123077178D01*
X105598058Y-123045223D01*
X105602025Y-122961109D01*
X105617031Y-122898041D01*
X105646611Y-122849859D01*
X105694300Y-122810403D01*
X105750408Y-122779752D01*
X105808838Y-122755032D01*
X105868332Y-122735316D01*
X105915594Y-122724943D01*
X105983651Y-122716883D01*
X106034813Y-122595303D01*
X106059127Y-122531402D01*
X106079237Y-122467310D01*
X106091811Y-122414044D01*
X106093762Y-122400499D01*
X106096786Y-122359702D01*
X106092922Y-122329978D01*
X106078633Y-122301151D01*
X106050380Y-122263048D01*
X106042519Y-122253138D01*
X105999457Y-122206560D01*
X105949706Y-122163464D01*
X105915794Y-122140337D01*
X105828457Y-122075477D01*
X105747988Y-121985771D01*
X105676440Y-121874183D01*
X105615868Y-121743677D01*
X105589411Y-121669389D01*
X105573767Y-121613290D01*
X105563574Y-121555384D01*
X105557707Y-121486850D01*
X105555059Y-121400276D01*
X105553722Y-121328046D01*
X105551236Y-121276984D01*
X105546131Y-121240038D01*
X105536940Y-121210157D01*
X105522193Y-121180288D01*
X105502168Y-121146276D01*
X105386052Y-120928651D01*
X105297708Y-120707237D01*
X105236840Y-120481176D01*
X105207547Y-120294746D01*
X105200172Y-120161720D01*
X105203863Y-120011480D01*
X105217647Y-119852335D01*
X105240548Y-119692596D01*
X105271591Y-119540572D01*
X105309801Y-119404573D01*
X105313182Y-119394508D01*
X105347844Y-119292737D01*
X105285704Y-119198128D01*
X105200936Y-119045372D01*
X105133766Y-118873270D01*
X105085297Y-118685376D01*
X105056635Y-118485247D01*
X105053941Y-118452056D01*
X105047024Y-118361056D01*
X105038819Y-118259398D01*
X105030489Y-118161253D01*
X105024935Y-118099278D01*
X105017164Y-117945682D01*
X105020103Y-117779491D01*
X105032913Y-117608083D01*
X105054755Y-117438834D01*
X105084789Y-117279119D01*
X105122178Y-117136316D01*
X105140815Y-117080538D01*
X105183886Y-116981421D01*
X105231342Y-116910132D01*
X105283273Y-116866602D01*
X105339766Y-116850767D01*
X105400911Y-116862558D01*
D13*
X103052381Y-108092857D02*
X102052381Y-108092857D01*
X103052381Y-107521428D02*
X102480952Y-107950000D01*
X102052381Y-107521428D02*
X102623810Y-108092857D01*
X103052381Y-106616666D02*
X103052381Y-107092857D01*
X102052381Y-107092857D01*
X103052381Y-105759523D02*
X103052381Y-106330952D01*
X103052381Y-106045238D02*
X102052381Y-106045238D01*
X102195238Y-106140476D01*
X102290476Y-106235714D01*
X102338095Y-106330952D01*
X151261905Y-102252381D02*
X151261905Y-101252381D01*
X151500000Y-101252381D01*
X151642858Y-101300000D01*
X151738096Y-101395238D01*
X151785715Y-101490476D01*
X151833334Y-101680952D01*
X151833334Y-101823810D01*
X151785715Y-102014286D01*
X151738096Y-102109524D01*
X151642858Y-102204762D01*
X151500000Y-102252381D01*
X151261905Y-102252381D01*
X152785715Y-102252381D02*
X152214286Y-102252381D01*
X152500000Y-102252381D02*
X152500000Y-101252381D01*
X152404762Y-101395238D01*
X152309524Y-101490476D01*
X152214286Y-101538095D01*
X112564762Y-84327619D02*
X112469524Y-84280000D01*
X112374286Y-84184762D01*
X112231429Y-84041905D01*
X112136190Y-83994286D01*
X112040952Y-83994286D01*
X112088571Y-84232381D02*
X111993333Y-84184762D01*
X111898095Y-84089524D01*
X111850476Y-83899048D01*
X111850476Y-83565714D01*
X111898095Y-83375238D01*
X111993333Y-83280000D01*
X112088571Y-83232381D01*
X112279048Y-83232381D01*
X112374286Y-83280000D01*
X112469524Y-83375238D01*
X112517143Y-83565714D01*
X112517143Y-83899048D01*
X112469524Y-84089524D01*
X112374286Y-84184762D01*
X112279048Y-84232381D01*
X112088571Y-84232381D01*
X113469524Y-84232381D02*
X112898095Y-84232381D01*
X113183809Y-84232381D02*
X113183809Y-83232381D01*
X113088571Y-83375238D01*
X112993333Y-83470476D01*
X112898095Y-83518095D01*
X160557143Y-79316666D02*
X160604762Y-79364285D01*
X160652381Y-79507142D01*
X160652381Y-79602380D01*
X160604762Y-79745238D01*
X160509524Y-79840476D01*
X160414286Y-79888095D01*
X160223810Y-79935714D01*
X160080952Y-79935714D01*
X159890476Y-79888095D01*
X159795238Y-79840476D01*
X159700000Y-79745238D01*
X159652381Y-79602380D01*
X159652381Y-79507142D01*
X159700000Y-79364285D01*
X159747619Y-79316666D01*
X160652381Y-78364285D02*
X160652381Y-78935714D01*
X160652381Y-78650000D02*
X159652381Y-78650000D01*
X159795238Y-78745238D01*
X159890476Y-78840476D01*
X159938095Y-78935714D01*
X160972381Y-85206666D02*
X160496190Y-85540000D01*
X160972381Y-85778095D02*
X159972381Y-85778095D01*
X159972381Y-85397142D01*
X160020000Y-85301904D01*
X160067619Y-85254285D01*
X160162857Y-85206666D01*
X160305714Y-85206666D01*
X160400952Y-85254285D01*
X160448571Y-85301904D01*
X160496190Y-85397142D01*
X160496190Y-85778095D01*
X160972381Y-84254285D02*
X160972381Y-84825714D01*
X160972381Y-84540000D02*
X159972381Y-84540000D01*
X160115238Y-84635238D01*
X160210476Y-84730476D01*
X160258095Y-84825714D01*
X152333334Y-80552381D02*
X152000000Y-80076190D01*
X151761905Y-80552381D02*
X151761905Y-79552381D01*
X152142858Y-79552381D01*
X152238096Y-79600000D01*
X152285715Y-79647619D01*
X152333334Y-79742857D01*
X152333334Y-79885714D01*
X152285715Y-79980952D01*
X152238096Y-80028571D01*
X152142858Y-80076190D01*
X151761905Y-80076190D01*
X152714286Y-79647619D02*
X152761905Y-79600000D01*
X152857143Y-79552381D01*
X153095239Y-79552381D01*
X153190477Y-79600000D01*
X153238096Y-79647619D01*
X153285715Y-79742857D01*
X153285715Y-79838095D01*
X153238096Y-79980952D01*
X152666667Y-80552381D01*
X153285715Y-80552381D01*
X155323334Y-77222381D02*
X154990000Y-76746190D01*
X154751905Y-77222381D02*
X154751905Y-76222381D01*
X155132858Y-76222381D01*
X155228096Y-76270000D01*
X155275715Y-76317619D01*
X155323334Y-76412857D01*
X155323334Y-76555714D01*
X155275715Y-76650952D01*
X155228096Y-76698571D01*
X155132858Y-76746190D01*
X154751905Y-76746190D01*
X155656667Y-76222381D02*
X156275715Y-76222381D01*
X155942381Y-76603333D01*
X156085239Y-76603333D01*
X156180477Y-76650952D01*
X156228096Y-76698571D01*
X156275715Y-76793810D01*
X156275715Y-77031905D01*
X156228096Y-77127143D01*
X156180477Y-77174762D01*
X156085239Y-77222381D01*
X155799524Y-77222381D01*
X155704286Y-77174762D01*
X155656667Y-77127143D01*
X103323334Y-77427143D02*
X103275715Y-77474762D01*
X103132858Y-77522381D01*
X103037620Y-77522381D01*
X102894762Y-77474762D01*
X102799524Y-77379524D01*
X102751905Y-77284286D01*
X102704286Y-77093810D01*
X102704286Y-76950952D01*
X102751905Y-76760476D01*
X102799524Y-76665238D01*
X102894762Y-76570000D01*
X103037620Y-76522381D01*
X103132858Y-76522381D01*
X103275715Y-76570000D01*
X103323334Y-76617619D01*
X103704286Y-76617619D02*
X103751905Y-76570000D01*
X103847143Y-76522381D01*
X104085239Y-76522381D01*
X104180477Y-76570000D01*
X104228096Y-76617619D01*
X104275715Y-76712857D01*
X104275715Y-76808095D01*
X104228096Y-76950952D01*
X103656667Y-77522381D01*
X104275715Y-77522381D01*
X104963334Y-85992381D02*
X104630000Y-85516190D01*
X104391905Y-85992381D02*
X104391905Y-84992381D01*
X104772858Y-84992381D01*
X104868096Y-85040000D01*
X104915715Y-85087619D01*
X104963334Y-85182857D01*
X104963334Y-85325714D01*
X104915715Y-85420952D01*
X104868096Y-85468571D01*
X104772858Y-85516190D01*
X104391905Y-85516190D01*
X105820477Y-85325714D02*
X105820477Y-85992381D01*
X105582381Y-84944762D02*
X105344286Y-85659048D01*
X105963334Y-85659048D01*
X105553334Y-77952381D02*
X105220000Y-77476190D01*
X104981905Y-77952381D02*
X104981905Y-76952381D01*
X105362858Y-76952381D01*
X105458096Y-77000000D01*
X105505715Y-77047619D01*
X105553334Y-77142857D01*
X105553334Y-77285714D01*
X105505715Y-77380952D01*
X105458096Y-77428571D01*
X105362858Y-77476190D01*
X104981905Y-77476190D01*
X106458096Y-76952381D02*
X105981905Y-76952381D01*
X105934286Y-77428571D01*
X105981905Y-77380952D01*
X106077143Y-77333333D01*
X106315239Y-77333333D01*
X106410477Y-77380952D01*
X106458096Y-77428571D01*
X106505715Y-77523810D01*
X106505715Y-77761905D01*
X106458096Y-77857143D01*
X106410477Y-77904762D01*
X106315239Y-77952381D01*
X106077143Y-77952381D01*
X105981905Y-77904762D01*
X105934286Y-77857143D01*
X141392381Y-84876666D02*
X140916190Y-85210000D01*
X141392381Y-85448095D02*
X140392381Y-85448095D01*
X140392381Y-85067142D01*
X140440000Y-84971904D01*
X140487619Y-84924285D01*
X140582857Y-84876666D01*
X140725714Y-84876666D01*
X140820952Y-84924285D01*
X140868571Y-84971904D01*
X140916190Y-85067142D01*
X140916190Y-85448095D01*
X140392381Y-84019523D02*
X140392381Y-84210000D01*
X140440000Y-84305238D01*
X140487619Y-84352857D01*
X140630476Y-84448095D01*
X140820952Y-84495714D01*
X141201905Y-84495714D01*
X141297143Y-84448095D01*
X141344762Y-84400476D01*
X141392381Y-84305238D01*
X141392381Y-84114761D01*
X141344762Y-84019523D01*
X141297143Y-83971904D01*
X141201905Y-83924285D01*
X140963810Y-83924285D01*
X140868571Y-83971904D01*
X140820952Y-84019523D01*
X140773333Y-84114761D01*
X140773333Y-84305238D01*
X140820952Y-84400476D01*
X140868571Y-84448095D01*
X140963810Y-84495714D01*
X143252381Y-84776666D02*
X142776190Y-85110000D01*
X143252381Y-85348095D02*
X142252381Y-85348095D01*
X142252381Y-84967142D01*
X142300000Y-84871904D01*
X142347619Y-84824285D01*
X142442857Y-84776666D01*
X142585714Y-84776666D01*
X142680952Y-84824285D01*
X142728571Y-84871904D01*
X142776190Y-84967142D01*
X142776190Y-85348095D01*
X142252381Y-84443333D02*
X142252381Y-83776666D01*
X143252381Y-84205238D01*
X160962381Y-98793333D02*
X161676667Y-98793333D01*
X161819524Y-98840953D01*
X161914762Y-98936191D01*
X161962381Y-99079048D01*
X161962381Y-99174286D01*
X161962381Y-98317143D02*
X160962381Y-98317143D01*
X160962381Y-97936190D01*
X161010000Y-97840952D01*
X161057619Y-97793333D01*
X161152857Y-97745714D01*
X161295714Y-97745714D01*
X161390952Y-97793333D01*
X161438571Y-97840952D01*
X161486190Y-97936190D01*
X161486190Y-98317143D01*
X161962381Y-96793333D02*
X161962381Y-97364762D01*
X161962381Y-97079048D02*
X160962381Y-97079048D01*
X161105238Y-97174286D01*
X161200476Y-97269524D01*
X161248095Y-97364762D01*
X141604762Y-94747619D02*
X141509524Y-94700000D01*
X141414286Y-94604762D01*
X141271429Y-94461905D01*
X141176190Y-94414286D01*
X141080952Y-94414286D01*
X141128571Y-94652381D02*
X141033333Y-94604762D01*
X140938095Y-94509524D01*
X140890476Y-94319048D01*
X140890476Y-93985714D01*
X140938095Y-93795238D01*
X141033333Y-93700000D01*
X141128571Y-93652381D01*
X141319048Y-93652381D01*
X141414286Y-93700000D01*
X141509524Y-93795238D01*
X141557143Y-93985714D01*
X141557143Y-94319048D01*
X141509524Y-94509524D01*
X141414286Y-94604762D01*
X141319048Y-94652381D01*
X141128571Y-94652381D01*
X141938095Y-93747619D02*
X141985714Y-93700000D01*
X142080952Y-93652381D01*
X142319048Y-93652381D01*
X142414286Y-93700000D01*
X142461905Y-93747619D01*
X142509524Y-93842857D01*
X142509524Y-93938095D01*
X142461905Y-94080952D01*
X141890476Y-94652381D01*
X142509524Y-94652381D01*
X145184762Y-94797619D02*
X145089524Y-94750000D01*
X144994286Y-94654762D01*
X144851429Y-94511905D01*
X144756190Y-94464286D01*
X144660952Y-94464286D01*
X144708571Y-94702381D02*
X144613333Y-94654762D01*
X144518095Y-94559524D01*
X144470476Y-94369048D01*
X144470476Y-94035714D01*
X144518095Y-93845238D01*
X144613333Y-93750000D01*
X144708571Y-93702381D01*
X144899048Y-93702381D01*
X144994286Y-93750000D01*
X145089524Y-93845238D01*
X145137143Y-94035714D01*
X145137143Y-94369048D01*
X145089524Y-94559524D01*
X144994286Y-94654762D01*
X144899048Y-94702381D01*
X144708571Y-94702381D01*
X145470476Y-93702381D02*
X146089524Y-93702381D01*
X145756190Y-94083333D01*
X145899048Y-94083333D01*
X145994286Y-94130952D01*
X146041905Y-94178571D01*
X146089524Y-94273810D01*
X146089524Y-94511905D01*
X146041905Y-94607143D01*
X145994286Y-94654762D01*
X145899048Y-94702381D01*
X145613333Y-94702381D01*
X145518095Y-94654762D01*
X145470476Y-94607143D01*
X112343334Y-77822381D02*
X112010000Y-77346190D01*
X111771905Y-77822381D02*
X111771905Y-76822381D01*
X112152858Y-76822381D01*
X112248096Y-76870000D01*
X112295715Y-76917619D01*
X112343334Y-77012857D01*
X112343334Y-77155714D01*
X112295715Y-77250952D01*
X112248096Y-77298571D01*
X112152858Y-77346190D01*
X111771905Y-77346190D01*
X112819524Y-77822381D02*
X113010000Y-77822381D01*
X113105239Y-77774762D01*
X113152858Y-77727143D01*
X113248096Y-77584286D01*
X113295715Y-77393810D01*
X113295715Y-77012857D01*
X113248096Y-76917619D01*
X113200477Y-76870000D01*
X113105239Y-76822381D01*
X112914762Y-76822381D01*
X112819524Y-76870000D01*
X112771905Y-76917619D01*
X112724286Y-77012857D01*
X112724286Y-77250952D01*
X112771905Y-77346190D01*
X112819524Y-77393810D01*
X112914762Y-77441429D01*
X113105239Y-77441429D01*
X113200477Y-77393810D01*
X113248096Y-77346190D01*
X113295715Y-77250952D01*
X112317143Y-79432381D02*
X111983809Y-78956190D01*
X111745714Y-79432381D02*
X111745714Y-78432381D01*
X112126667Y-78432381D01*
X112221905Y-78480000D01*
X112269524Y-78527619D01*
X112317143Y-78622857D01*
X112317143Y-78765714D01*
X112269524Y-78860952D01*
X112221905Y-78908571D01*
X112126667Y-78956190D01*
X111745714Y-78956190D01*
X113269524Y-79432381D02*
X112698095Y-79432381D01*
X112983809Y-79432381D02*
X112983809Y-78432381D01*
X112888571Y-78575238D01*
X112793333Y-78670476D01*
X112698095Y-78718095D01*
X113888571Y-78432381D02*
X113983810Y-78432381D01*
X114079048Y-78480000D01*
X114126667Y-78527619D01*
X114174286Y-78622857D01*
X114221905Y-78813333D01*
X114221905Y-79051429D01*
X114174286Y-79241905D01*
X114126667Y-79337143D01*
X114079048Y-79384762D01*
X113983810Y-79432381D01*
X113888571Y-79432381D01*
X113793333Y-79384762D01*
X113745714Y-79337143D01*
X113698095Y-79241905D01*
X113650476Y-79051429D01*
X113650476Y-78813333D01*
X113698095Y-78622857D01*
X113745714Y-78527619D01*
X113793333Y-78480000D01*
X113888571Y-78432381D01*
X112287143Y-81092381D02*
X111953809Y-80616190D01*
X111715714Y-81092381D02*
X111715714Y-80092381D01*
X112096667Y-80092381D01*
X112191905Y-80140000D01*
X112239524Y-80187619D01*
X112287143Y-80282857D01*
X112287143Y-80425714D01*
X112239524Y-80520952D01*
X112191905Y-80568571D01*
X112096667Y-80616190D01*
X111715714Y-80616190D01*
X113239524Y-81092381D02*
X112668095Y-81092381D01*
X112953809Y-81092381D02*
X112953809Y-80092381D01*
X112858571Y-80235238D01*
X112763333Y-80330476D01*
X112668095Y-80378095D01*
X114191905Y-81092381D02*
X113620476Y-81092381D01*
X113906190Y-81092381D02*
X113906190Y-80092381D01*
X113810952Y-80235238D01*
X113715714Y-80330476D01*
X113620476Y-80378095D01*
X146452381Y-84842857D02*
X145976190Y-85176191D01*
X146452381Y-85414286D02*
X145452381Y-85414286D01*
X145452381Y-85033333D01*
X145500000Y-84938095D01*
X145547619Y-84890476D01*
X145642857Y-84842857D01*
X145785714Y-84842857D01*
X145880952Y-84890476D01*
X145928571Y-84938095D01*
X145976190Y-85033333D01*
X145976190Y-85414286D01*
X146452381Y-83890476D02*
X146452381Y-84461905D01*
X146452381Y-84176191D02*
X145452381Y-84176191D01*
X145595238Y-84271429D01*
X145690476Y-84366667D01*
X145738095Y-84461905D01*
X145547619Y-83509524D02*
X145500000Y-83461905D01*
X145452381Y-83366667D01*
X145452381Y-83128571D01*
X145500000Y-83033333D01*
X145547619Y-82985714D01*
X145642857Y-82938095D01*
X145738095Y-82938095D01*
X145880952Y-82985714D01*
X146452381Y-83557143D01*
X146452381Y-82938095D01*
X146552381Y-109242857D02*
X146076190Y-109576191D01*
X146552381Y-109814286D02*
X145552381Y-109814286D01*
X145552381Y-109433333D01*
X145600000Y-109338095D01*
X145647619Y-109290476D01*
X145742857Y-109242857D01*
X145885714Y-109242857D01*
X145980952Y-109290476D01*
X146028571Y-109338095D01*
X146076190Y-109433333D01*
X146076190Y-109814286D01*
X146552381Y-108290476D02*
X146552381Y-108861905D01*
X146552381Y-108576191D02*
X145552381Y-108576191D01*
X145695238Y-108671429D01*
X145790476Y-108766667D01*
X145838095Y-108861905D01*
X145552381Y-107957143D02*
X145552381Y-107338095D01*
X145933333Y-107671429D01*
X145933333Y-107528571D01*
X145980952Y-107433333D01*
X146028571Y-107385714D01*
X146123810Y-107338095D01*
X146361905Y-107338095D01*
X146457143Y-107385714D01*
X146504762Y-107433333D01*
X146552381Y-107528571D01*
X146552381Y-107814286D01*
X146504762Y-107909524D01*
X146457143Y-107957143D01*
X136432381Y-101572857D02*
X135956190Y-101906191D01*
X136432381Y-102144286D02*
X135432381Y-102144286D01*
X135432381Y-101763333D01*
X135480000Y-101668095D01*
X135527619Y-101620476D01*
X135622857Y-101572857D01*
X135765714Y-101572857D01*
X135860952Y-101620476D01*
X135908571Y-101668095D01*
X135956190Y-101763333D01*
X135956190Y-102144286D01*
X136432381Y-100620476D02*
X136432381Y-101191905D01*
X136432381Y-100906191D02*
X135432381Y-100906191D01*
X135575238Y-101001429D01*
X135670476Y-101096667D01*
X135718095Y-101191905D01*
X135765714Y-99763333D02*
X136432381Y-99763333D01*
X135384762Y-100001429D02*
X136099048Y-100239524D01*
X136099048Y-99620476D01*
X148168095Y-80072381D02*
X148168095Y-80881905D01*
X148215714Y-80977143D01*
X148263333Y-81024762D01*
X148358571Y-81072381D01*
X148549048Y-81072381D01*
X148644286Y-81024762D01*
X148691905Y-80977143D01*
X148739524Y-80881905D01*
X148739524Y-80072381D01*
X149739524Y-81072381D02*
X149168095Y-81072381D01*
X149453809Y-81072381D02*
X149453809Y-80072381D01*
X149358571Y-80215238D01*
X149263333Y-80310476D01*
X149168095Y-80358095D01*
X147982381Y-101112857D02*
X147506190Y-101446191D01*
X147982381Y-101684286D02*
X146982381Y-101684286D01*
X146982381Y-101303333D01*
X147030000Y-101208095D01*
X147077619Y-101160476D01*
X147172857Y-101112857D01*
X147315714Y-101112857D01*
X147410952Y-101160476D01*
X147458571Y-101208095D01*
X147506190Y-101303333D01*
X147506190Y-101684286D01*
X147982381Y-100160476D02*
X147982381Y-100731905D01*
X147982381Y-100446191D02*
X146982381Y-100446191D01*
X147125238Y-100541429D01*
X147220476Y-100636667D01*
X147268095Y-100731905D01*
X146982381Y-99255714D02*
X146982381Y-99731905D01*
X147458571Y-99779524D01*
X147410952Y-99731905D01*
X147363333Y-99636667D01*
X147363333Y-99398571D01*
X147410952Y-99303333D01*
X147458571Y-99255714D01*
X147553810Y-99208095D01*
X147791905Y-99208095D01*
X147887143Y-99255714D01*
X147934762Y-99303333D01*
X147982381Y-99398571D01*
X147982381Y-99636667D01*
X147934762Y-99731905D01*
X147887143Y-99779524D01*
X149920381Y-101156857D02*
X149444190Y-101490191D01*
X149920381Y-101728286D02*
X148920381Y-101728286D01*
X148920381Y-101347333D01*
X148968000Y-101252095D01*
X149015619Y-101204476D01*
X149110857Y-101156857D01*
X149253714Y-101156857D01*
X149348952Y-101204476D01*
X149396571Y-101252095D01*
X149444190Y-101347333D01*
X149444190Y-101728286D01*
X149920381Y-100204476D02*
X149920381Y-100775905D01*
X149920381Y-100490191D02*
X148920381Y-100490191D01*
X149063238Y-100585429D01*
X149158476Y-100680667D01*
X149206095Y-100775905D01*
X148920381Y-99347333D02*
X148920381Y-99537810D01*
X148968000Y-99633048D01*
X149015619Y-99680667D01*
X149158476Y-99775905D01*
X149348952Y-99823524D01*
X149729905Y-99823524D01*
X149825143Y-99775905D01*
X149872762Y-99728286D01*
X149920381Y-99633048D01*
X149920381Y-99442571D01*
X149872762Y-99347333D01*
X149825143Y-99299714D01*
X149729905Y-99252095D01*
X149491810Y-99252095D01*
X149396571Y-99299714D01*
X149348952Y-99347333D01*
X149301333Y-99442571D01*
X149301333Y-99633048D01*
X149348952Y-99728286D01*
X149396571Y-99775905D01*
X149491810Y-99823524D01*
X99363334Y-112942381D02*
X98887143Y-112942381D01*
X98887143Y-111942381D01*
X100268096Y-112847143D02*
X100220477Y-112894762D01*
X100077620Y-112942381D01*
X99982382Y-112942381D01*
X99839524Y-112894762D01*
X99744286Y-112799524D01*
X99696667Y-112704286D01*
X99649048Y-112513810D01*
X99649048Y-112370952D01*
X99696667Y-112180476D01*
X99744286Y-112085238D01*
X99839524Y-111990000D01*
X99982382Y-111942381D01*
X100077620Y-111942381D01*
X100220477Y-111990000D01*
X100268096Y-112037619D01*
X100696667Y-112942381D02*
X100696667Y-111942381D01*
X100934762Y-111942381D01*
X101077620Y-111990000D01*
X101172858Y-112085238D01*
X101220477Y-112180476D01*
X101268096Y-112370952D01*
X101268096Y-112513810D01*
X101220477Y-112704286D01*
X101172858Y-112799524D01*
X101077620Y-112894762D01*
X100934762Y-112942381D01*
X100696667Y-112942381D01*
X102220477Y-112942381D02*
X101649048Y-112942381D01*
X101934762Y-112942381D02*
X101934762Y-111942381D01*
X101839524Y-112085238D01*
X101744286Y-112180476D01*
X101649048Y-112228095D01*
X158277143Y-103892381D02*
X157943809Y-103416190D01*
X157705714Y-103892381D02*
X157705714Y-102892381D01*
X158086667Y-102892381D01*
X158181905Y-102940000D01*
X158229524Y-102987619D01*
X158277143Y-103082857D01*
X158277143Y-103225714D01*
X158229524Y-103320952D01*
X158181905Y-103368571D01*
X158086667Y-103416190D01*
X157705714Y-103416190D01*
X159229524Y-103892381D02*
X158658095Y-103892381D01*
X158943809Y-103892381D02*
X158943809Y-102892381D01*
X158848571Y-103035238D01*
X158753333Y-103130476D01*
X158658095Y-103178095D01*
X159562857Y-102892381D02*
X160229524Y-102892381D01*
X159800952Y-103892381D01*
X102107619Y-76252381D02*
X102107619Y-75252381D01*
X103155238Y-76252381D02*
X102821904Y-75776190D01*
X102583809Y-76252381D02*
X102583809Y-75252381D01*
X102964762Y-75252381D01*
X103060000Y-75300000D01*
X103107619Y-75347619D01*
X103155238Y-75442857D01*
X103155238Y-75585714D01*
X103107619Y-75680952D01*
X103060000Y-75728571D01*
X102964762Y-75776190D01*
X102583809Y-75776190D01*
X104155238Y-76252381D02*
X103821904Y-75776190D01*
X103583809Y-76252381D02*
X103583809Y-75252381D01*
X103964762Y-75252381D01*
X104060000Y-75300000D01*
X104107619Y-75347619D01*
X104155238Y-75442857D01*
X104155238Y-75585714D01*
X104107619Y-75680952D01*
X104060000Y-75728571D01*
X103964762Y-75776190D01*
X103583809Y-75776190D01*
X104488571Y-75252381D02*
X105155238Y-76252381D01*
X105155238Y-75252381D02*
X104488571Y-76252381D01*
X106060000Y-76252381D02*
X105488571Y-76252381D01*
X105774285Y-76252381D02*
X105774285Y-75252381D01*
X105679047Y-75395238D01*
X105583809Y-75490476D01*
X105488571Y-75538095D01*
X103336667Y-87592381D02*
X103336667Y-86592381D01*
X104384286Y-87592381D02*
X104050952Y-87116190D01*
X103812857Y-87592381D02*
X103812857Y-86592381D01*
X104193810Y-86592381D01*
X104289048Y-86640000D01*
X104336667Y-86687619D01*
X104384286Y-86782857D01*
X104384286Y-86925714D01*
X104336667Y-87020952D01*
X104289048Y-87068571D01*
X104193810Y-87116190D01*
X103812857Y-87116190D01*
X104670000Y-86592381D02*
X105241429Y-86592381D01*
X104955714Y-87592381D02*
X104955714Y-86592381D01*
X105479524Y-86592381D02*
X106146191Y-87592381D01*
X106146191Y-86592381D02*
X105479524Y-87592381D01*
X107050953Y-87592381D02*
X106479524Y-87592381D01*
X106765238Y-87592381D02*
X106765238Y-86592381D01*
X106670000Y-86735238D01*
X106574762Y-86830476D01*
X106479524Y-86878095D01*
X102248095Y-87642381D02*
X102248095Y-86642381D01*
X102819524Y-87642381D02*
X102390952Y-87070952D01*
X102819524Y-86642381D02*
X102248095Y-87213810D01*
X120568571Y-91192381D02*
X120568571Y-92001905D01*
X120616190Y-92097143D01*
X120663809Y-92144762D01*
X120759047Y-92192381D01*
X120949524Y-92192381D01*
X121044762Y-92144762D01*
X121092381Y-92097143D01*
X121140000Y-92001905D01*
X121140000Y-91192381D01*
X121568571Y-91906667D02*
X122044762Y-91906667D01*
X121473333Y-92192381D02*
X121806666Y-91192381D01*
X122140000Y-92192381D01*
X123044762Y-92192381D02*
X122711428Y-91716190D01*
X122473333Y-92192381D02*
X122473333Y-91192381D01*
X122854286Y-91192381D01*
X122949524Y-91240000D01*
X122997143Y-91287619D01*
X123044762Y-91382857D01*
X123044762Y-91525714D01*
X122997143Y-91620952D01*
X122949524Y-91668571D01*
X122854286Y-91716190D01*
X122473333Y-91716190D01*
X123330476Y-91192381D02*
X123901905Y-91192381D01*
X123616190Y-92192381D02*
X123616190Y-91192381D01*
X124759048Y-92192381D02*
X124187619Y-92192381D01*
X124473333Y-92192381D02*
X124473333Y-91192381D01*
X124378095Y-91335238D01*
X124282857Y-91430476D01*
X124187619Y-91478095D01*
X117726191Y-93032381D02*
X117392857Y-92556190D01*
X117154762Y-93032381D02*
X117154762Y-92032381D01*
X117535715Y-92032381D01*
X117630953Y-92080000D01*
X117678572Y-92127619D01*
X117726191Y-92222857D01*
X117726191Y-92365714D01*
X117678572Y-92460952D01*
X117630953Y-92508571D01*
X117535715Y-92556190D01*
X117154762Y-92556190D01*
X118154762Y-92508571D02*
X118488096Y-92508571D01*
X118630953Y-93032381D02*
X118154762Y-93032381D01*
X118154762Y-92032381D01*
X118630953Y-92032381D01*
X119535715Y-93032381D02*
X119059524Y-93032381D01*
X119059524Y-92032381D01*
X120392858Y-93032381D02*
X119821429Y-93032381D01*
X120107143Y-93032381D02*
X120107143Y-92032381D01*
X120011905Y-92175238D01*
X119916667Y-92270476D01*
X119821429Y-92318095D01*
X139606667Y-94494762D02*
X139749524Y-94542381D01*
X139987620Y-94542381D01*
X140082858Y-94494762D01*
X140130477Y-94447143D01*
X140178096Y-94351905D01*
X140178096Y-94256667D01*
X140130477Y-94161429D01*
X140082858Y-94113810D01*
X139987620Y-94066190D01*
X139797143Y-94018571D01*
X139701905Y-93970952D01*
X139654286Y-93923333D01*
X139606667Y-93828095D01*
X139606667Y-93732857D01*
X139654286Y-93637619D01*
X139701905Y-93590000D01*
X139797143Y-93542381D01*
X140035239Y-93542381D01*
X140178096Y-93590000D01*
X140511429Y-93542381D02*
X140749524Y-94542381D01*
X140940001Y-93828095D01*
X141130477Y-94542381D01*
X141368572Y-93542381D01*
X142273334Y-94542381D02*
X141701905Y-94542381D01*
X141987619Y-94542381D02*
X141987619Y-93542381D01*
X141892381Y-93685238D01*
X141797143Y-93780476D01*
X141701905Y-93828095D01*
X138352381Y-105798095D02*
X137352381Y-105798095D01*
X137352381Y-105560000D01*
X137400000Y-105417142D01*
X137495238Y-105321904D01*
X137590476Y-105274285D01*
X137780952Y-105226666D01*
X137923810Y-105226666D01*
X138114286Y-105274285D01*
X138209524Y-105321904D01*
X138304762Y-105417142D01*
X138352381Y-105560000D01*
X138352381Y-105798095D01*
X137447619Y-104845714D02*
X137400000Y-104798095D01*
X137352381Y-104702857D01*
X137352381Y-104464761D01*
X137400000Y-104369523D01*
X137447619Y-104321904D01*
X137542857Y-104274285D01*
X137638095Y-104274285D01*
X137780952Y-104321904D01*
X138352381Y-104893333D01*
X138352381Y-104274285D01*
X151648095Y-117044762D02*
X151790952Y-117092381D01*
X152029048Y-117092381D01*
X152124286Y-117044762D01*
X152171905Y-116997143D01*
X152219524Y-116901905D01*
X152219524Y-116806667D01*
X152171905Y-116711429D01*
X152124286Y-116663810D01*
X152029048Y-116616190D01*
X151838571Y-116568571D01*
X151743333Y-116520952D01*
X151695714Y-116473333D01*
X151648095Y-116378095D01*
X151648095Y-116282857D01*
X151695714Y-116187619D01*
X151743333Y-116140000D01*
X151838571Y-116092381D01*
X152076667Y-116092381D01*
X152219524Y-116140000D01*
X152648095Y-117092381D02*
X152648095Y-116092381D01*
X153029048Y-116092381D01*
X153124286Y-116140000D01*
X153171905Y-116187619D01*
X153219524Y-116282857D01*
X153219524Y-116425714D01*
X153171905Y-116520952D01*
X153124286Y-116568571D01*
X153029048Y-116616190D01*
X152648095Y-116616190D01*
X154171905Y-117092381D02*
X153600476Y-117092381D01*
X153886190Y-117092381D02*
X153886190Y-116092381D01*
X153790952Y-116235238D01*
X153695714Y-116330476D01*
X153600476Y-116378095D01*
X140842381Y-121562857D02*
X139842381Y-121562857D01*
X139842381Y-121181904D01*
X139890000Y-121086666D01*
X139937619Y-121039047D01*
X140032857Y-120991428D01*
X140175714Y-120991428D01*
X140270952Y-121039047D01*
X140318571Y-121086666D01*
X140366190Y-121181904D01*
X140366190Y-121562857D01*
X139842381Y-120372381D02*
X139842381Y-120181904D01*
X139890000Y-120086666D01*
X139985238Y-119991428D01*
X140175714Y-119943809D01*
X140509048Y-119943809D01*
X140699524Y-119991428D01*
X140794762Y-120086666D01*
X140842381Y-120181904D01*
X140842381Y-120372381D01*
X140794762Y-120467619D01*
X140699524Y-120562857D01*
X140509048Y-120610476D01*
X140175714Y-120610476D01*
X139985238Y-120562857D01*
X139890000Y-120467619D01*
X139842381Y-120372381D01*
X139842381Y-119658095D02*
X139842381Y-119086666D01*
X140842381Y-119372381D02*
X139842381Y-119372381D01*
X140842381Y-118229523D02*
X140842381Y-118800952D01*
X140842381Y-118515238D02*
X139842381Y-118515238D01*
X139985238Y-118610476D01*
X140080476Y-118705714D01*
X140128095Y-118800952D01*
M02*
