G04 #@! TF.FileFunction,Soldermask,Bot*
%FSLAX46Y46*%
G04 Gerber Fmt 4.6, Leading zero omitted, Abs format (unit mm)*
G04 Created by KiCad (PCBNEW (2016-03-19 BZR 6630)-stable) date Fri 05 Aug 2016 07:03:03 PM EEST*
%MOMM*%
G01*
G04 APERTURE LIST*
%ADD10C,0.100000*%
%ADD11C,3.400000*%
%ADD12R,2.127200X2.127200*%
%ADD13O,2.127200X2.127200*%
%ADD14O,2.305000X1.400000*%
%ADD15R,2.305000X1.400000*%
%ADD16C,5.100000*%
%ADD17R,2.432000X2.432000*%
%ADD18O,2.432000X2.432000*%
%ADD19O,2.000000X2.000000*%
%ADD20R,2.127200X2.432000*%
%ADD21O,2.127200X2.432000*%
%ADD22C,2.400000*%
%ADD23R,2.400000X2.400000*%
%ADD24C,2.700000*%
%ADD25C,1.924000*%
%ADD26C,1.900000*%
%ADD27C,2.900000*%
G04 APERTURE END LIST*
D10*
D11*
X109050000Y-96810000D03*
X109050000Y-101810000D03*
X109050000Y-106810000D03*
D12*
X106370000Y-73370000D03*
D13*
X106370000Y-70830000D03*
X108910000Y-73370000D03*
X108910000Y-70830000D03*
X111450000Y-73370000D03*
X111450000Y-70830000D03*
X113990000Y-73370000D03*
X113990000Y-70830000D03*
X116530000Y-73370000D03*
X116530000Y-70830000D03*
X119070000Y-73370000D03*
X119070000Y-70830000D03*
X121610000Y-73370000D03*
X121610000Y-70830000D03*
X124150000Y-73370000D03*
X124150000Y-70830000D03*
X126690000Y-73370000D03*
X126690000Y-70830000D03*
X129230000Y-73370000D03*
X129230000Y-70830000D03*
X131770000Y-73370000D03*
X131770000Y-70830000D03*
X134310000Y-73370000D03*
X134310000Y-70830000D03*
X136850000Y-73370000D03*
X136850000Y-70830000D03*
X139390000Y-73370000D03*
X139390000Y-70830000D03*
X141930000Y-73370000D03*
X141930000Y-70830000D03*
X144470000Y-73370000D03*
X144470000Y-70830000D03*
X147010000Y-73370000D03*
X147010000Y-70830000D03*
X149550000Y-73370000D03*
X149550000Y-70830000D03*
X152090000Y-73370000D03*
X152090000Y-70830000D03*
X154630000Y-73370000D03*
X154630000Y-70830000D03*
D14*
X153700000Y-96100000D03*
D15*
X153700000Y-97400000D03*
D14*
X153700000Y-98700000D03*
X153700000Y-100000000D03*
D16*
X159500000Y-121100000D03*
X159500000Y-72100000D03*
X101500000Y-72100000D03*
X101500000Y-121100000D03*
D17*
X158800000Y-96500000D03*
D18*
X158800000Y-99040000D03*
D19*
X148970000Y-83860000D03*
X148970000Y-86400000D03*
X148970000Y-88940000D03*
X148970000Y-91480000D03*
X156590000Y-91480000D03*
X156590000Y-88940000D03*
X156590000Y-86400000D03*
X156590000Y-83860000D03*
D20*
X100540000Y-115202000D03*
D21*
X103080000Y-115202000D03*
X105620000Y-115202000D03*
X108160000Y-115202000D03*
X110700000Y-115202000D03*
X113240000Y-115202000D03*
X115780000Y-115202000D03*
X118320000Y-115202000D03*
X120860000Y-115202000D03*
X123400000Y-115202000D03*
X125940000Y-115202000D03*
X128480000Y-115202000D03*
X131020000Y-115202000D03*
X133560000Y-115202000D03*
X136100000Y-115202000D03*
X138640000Y-115202000D03*
D22*
X100540000Y-76140000D03*
X100540000Y-78680000D03*
X100540000Y-81220000D03*
D23*
X100520000Y-86500000D03*
D22*
X100520000Y-83960000D03*
D20*
X110600000Y-91900000D03*
D21*
X113140000Y-91900000D03*
X115680000Y-91900000D03*
X118220000Y-91900000D03*
D20*
X137100000Y-91900000D03*
D21*
X134560000Y-91900000D03*
X132020000Y-91900000D03*
X129480000Y-91900000D03*
D20*
X137100000Y-77500000D03*
D21*
X134560000Y-77500000D03*
X132020000Y-77500000D03*
X129480000Y-77500000D03*
D20*
X137100000Y-88300000D03*
D21*
X134560000Y-88300000D03*
X132020000Y-88300000D03*
X129480000Y-88300000D03*
D20*
X137100000Y-84700000D03*
D21*
X134560000Y-84700000D03*
X132020000Y-84700000D03*
X129480000Y-84700000D03*
D20*
X137100000Y-81100000D03*
D21*
X134560000Y-81100000D03*
X132020000Y-81100000D03*
X129480000Y-81100000D03*
D24*
X117920000Y-96620000D03*
X130120000Y-96620000D03*
X117920000Y-108620000D03*
X130120000Y-108620000D03*
X132120000Y-102620000D03*
D25*
X143480000Y-102580000D03*
X138980000Y-102580000D03*
X143480000Y-96080000D03*
X138980000Y-96080000D03*
X150310000Y-109880000D03*
X155310000Y-109880000D03*
D26*
X152810000Y-106130000D03*
X152810000Y-113630000D03*
D27*
X133590000Y-119430000D03*
X136090000Y-121930000D03*
X138590000Y-119430000D03*
M02*
