G04 #@! TF.FileFunction,Copper,L1,Top,Signal*
%FSLAX46Y46*%
G04 Gerber Fmt 4.6, Leading zero omitted, Abs format (unit mm)*
G04 Created by KiCad (PCBNEW (2016-03-19 BZR 6630)-stable) date Fri 05 Aug 2016 07:03:03 PM EEST*
%MOMM*%
G01*
G04 APERTURE LIST*
%ADD10C,0.100000*%
%ADD11C,3.000000*%
%ADD12R,1.727200X1.727200*%
%ADD13O,1.727200X1.727200*%
%ADD14O,1.905000X1.000000*%
%ADD15R,1.905000X1.000000*%
%ADD16R,0.800100X0.800100*%
%ADD17C,4.700000*%
%ADD18R,0.750000X1.200000*%
%ADD19R,0.900000X1.200000*%
%ADD20R,1.200000X0.900000*%
%ADD21R,1.250000X1.500000*%
%ADD22R,2.032000X2.032000*%
%ADD23O,2.032000X2.032000*%
%ADD24O,1.600000X1.600000*%
%ADD25R,1.727200X2.032000*%
%ADD26O,1.727200X2.032000*%
%ADD27C,2.000000*%
%ADD28R,2.000000X2.000000*%
%ADD29C,2.300000*%
%ADD30C,1.524000*%
%ADD31R,1.220000X0.910000*%
%ADD32C,1.500000*%
%ADD33C,2.500000*%
%ADD34C,0.850000*%
%ADD35C,0.500000*%
%ADD36C,0.254000*%
%ADD37C,1.254000*%
G04 APERTURE END LIST*
D10*
D11*
X109050000Y-96810000D03*
X109050000Y-101810000D03*
X109050000Y-106810000D03*
D12*
X106370000Y-73370000D03*
D13*
X106370000Y-70830000D03*
X108910000Y-73370000D03*
X108910000Y-70830000D03*
X111450000Y-73370000D03*
X111450000Y-70830000D03*
X113990000Y-73370000D03*
X113990000Y-70830000D03*
X116530000Y-73370000D03*
X116530000Y-70830000D03*
X119070000Y-73370000D03*
X119070000Y-70830000D03*
X121610000Y-73370000D03*
X121610000Y-70830000D03*
X124150000Y-73370000D03*
X124150000Y-70830000D03*
X126690000Y-73370000D03*
X126690000Y-70830000D03*
X129230000Y-73370000D03*
X129230000Y-70830000D03*
X131770000Y-73370000D03*
X131770000Y-70830000D03*
X134310000Y-73370000D03*
X134310000Y-70830000D03*
X136850000Y-73370000D03*
X136850000Y-70830000D03*
X139390000Y-73370000D03*
X139390000Y-70830000D03*
X141930000Y-73370000D03*
X141930000Y-70830000D03*
X144470000Y-73370000D03*
X144470000Y-70830000D03*
X147010000Y-73370000D03*
X147010000Y-70830000D03*
X149550000Y-73370000D03*
X149550000Y-70830000D03*
X152090000Y-73370000D03*
X152090000Y-70830000D03*
X154630000Y-73370000D03*
X154630000Y-70830000D03*
D14*
X153700000Y-96100000D03*
D15*
X153700000Y-97400000D03*
D14*
X153700000Y-98700000D03*
X153700000Y-100000000D03*
D16*
X110810000Y-82819240D03*
X108910000Y-82819240D03*
X109860000Y-84818220D03*
D17*
X159500000Y-121100000D03*
X159500000Y-72100000D03*
X101500000Y-72100000D03*
X101500000Y-121100000D03*
D18*
X158750000Y-80050000D03*
X158750000Y-78150000D03*
D19*
X158820000Y-83860000D03*
X158820000Y-86060000D03*
D20*
X156600000Y-80100000D03*
X154400000Y-80100000D03*
X156600000Y-78350000D03*
X154400000Y-78350000D03*
D21*
X103490000Y-81220000D03*
X103490000Y-78720000D03*
D20*
X106130000Y-83960000D03*
X103930000Y-83960000D03*
D19*
X105710000Y-79020000D03*
X105710000Y-81220000D03*
X140900000Y-86600000D03*
X140900000Y-88800000D03*
X142600000Y-88800000D03*
X142600000Y-86600000D03*
D22*
X158800000Y-96500000D03*
D23*
X158800000Y-99040000D03*
D16*
X142650000Y-90899240D03*
X140750000Y-90899240D03*
X141700000Y-92898220D03*
X146150000Y-90899240D03*
X144250000Y-90899240D03*
X145200000Y-92898220D03*
D20*
X108430000Y-77270000D03*
X110630000Y-77270000D03*
X108430000Y-78930000D03*
X110630000Y-78930000D03*
X108430000Y-80600000D03*
X110630000Y-80600000D03*
D19*
X146000000Y-88800000D03*
X146000000Y-86600000D03*
X146006000Y-106142000D03*
X146006000Y-103942000D03*
X135980000Y-98580000D03*
X135980000Y-96380000D03*
D24*
X148970000Y-83860000D03*
X148970000Y-86400000D03*
X148970000Y-88940000D03*
X148970000Y-91480000D03*
X156590000Y-91480000D03*
X156590000Y-88940000D03*
X156590000Y-86400000D03*
X156590000Y-83860000D03*
D19*
X147530000Y-95814000D03*
X147530000Y-98014000D03*
X149308000Y-95814000D03*
X149308000Y-98014000D03*
D25*
X100540000Y-115202000D03*
D26*
X103080000Y-115202000D03*
X105620000Y-115202000D03*
X108160000Y-115202000D03*
X110700000Y-115202000D03*
X113240000Y-115202000D03*
X115780000Y-115202000D03*
X118320000Y-115202000D03*
X120860000Y-115202000D03*
X123400000Y-115202000D03*
X125940000Y-115202000D03*
X128480000Y-115202000D03*
X131020000Y-115202000D03*
X133560000Y-115202000D03*
X136100000Y-115202000D03*
X138640000Y-115202000D03*
D20*
X157800000Y-101900000D03*
X160000000Y-101900000D03*
D27*
X100540000Y-76140000D03*
X100540000Y-78680000D03*
X100540000Y-81220000D03*
D28*
X100520000Y-86500000D03*
D27*
X100520000Y-83960000D03*
D25*
X110600000Y-91900000D03*
D26*
X113140000Y-91900000D03*
X115680000Y-91900000D03*
X118220000Y-91900000D03*
D25*
X137100000Y-91900000D03*
D26*
X134560000Y-91900000D03*
X132020000Y-91900000D03*
X129480000Y-91900000D03*
D25*
X137100000Y-77500000D03*
D26*
X134560000Y-77500000D03*
X132020000Y-77500000D03*
X129480000Y-77500000D03*
D25*
X137100000Y-88300000D03*
D26*
X134560000Y-88300000D03*
X132020000Y-88300000D03*
X129480000Y-88300000D03*
D25*
X137100000Y-84700000D03*
D26*
X134560000Y-84700000D03*
X132020000Y-84700000D03*
X129480000Y-84700000D03*
D25*
X137100000Y-81100000D03*
D26*
X134560000Y-81100000D03*
X132020000Y-81100000D03*
X129480000Y-81100000D03*
D29*
X117920000Y-96620000D03*
X130120000Y-96620000D03*
X117920000Y-108620000D03*
X130120000Y-108620000D03*
X132120000Y-102620000D03*
D30*
X143480000Y-102580000D03*
X138980000Y-102580000D03*
X143480000Y-96080000D03*
X138980000Y-96080000D03*
D31*
X135900000Y-103425000D03*
X135900000Y-106695000D03*
D30*
X150310000Y-109880000D03*
X155310000Y-109880000D03*
D32*
X152810000Y-106130000D03*
X152810000Y-113630000D03*
D33*
X133590000Y-119430000D03*
X136090000Y-121930000D03*
X138590000Y-119430000D03*
D34*
X106130000Y-82630000D03*
X141700000Y-94770000D03*
X111480000Y-88150000D03*
X121100000Y-88150000D03*
X152420000Y-78350000D03*
X140790000Y-78320000D03*
X110630000Y-75090000D03*
X112730000Y-79290000D03*
X109860000Y-86500000D03*
X113590000Y-80590000D03*
X119070000Y-80590000D03*
D35*
X134560000Y-77500000D02*
X134560000Y-81100000D01*
X134560000Y-84700000D02*
X134560000Y-81100000D01*
X134560000Y-88300000D02*
X134560000Y-91900000D01*
X134560000Y-88300000D02*
X134560000Y-84700000D01*
X108430000Y-77270000D02*
X108430000Y-78930000D01*
X108430000Y-78930000D02*
X108420000Y-78940000D01*
X108420000Y-78940000D02*
X107080000Y-78940000D01*
X110600000Y-91900000D02*
X110600000Y-91210000D01*
X110600000Y-91210000D02*
X107560000Y-88170000D01*
X107560000Y-88170000D02*
X107560000Y-82220000D01*
X107560000Y-82220000D02*
X107080000Y-81740000D01*
X107080000Y-81740000D02*
X107080000Y-78940000D01*
X107080000Y-78940000D02*
X105790000Y-78940000D01*
X105790000Y-78940000D02*
X105710000Y-79020000D01*
X156590000Y-83860000D02*
X156590000Y-80110000D01*
X156590000Y-80110000D02*
X156600000Y-80100000D01*
X156600000Y-78350000D02*
X156600000Y-80100000D01*
X158750000Y-80050000D02*
X156650000Y-80050000D01*
X156650000Y-80050000D02*
X156600000Y-80100000D01*
X158820000Y-83860000D02*
X156590000Y-83860000D01*
X105710000Y-79020000D02*
X105710000Y-74030000D01*
X105710000Y-74030000D02*
X106370000Y-73370000D01*
X137100000Y-81100000D02*
X137100000Y-84700000D01*
X137100000Y-84700000D02*
X137100000Y-88300000D01*
X137100000Y-88300000D02*
X137100000Y-91900000D01*
X137100000Y-81100000D02*
X137100000Y-77500000D01*
X105710000Y-81220000D02*
X103490000Y-81220000D01*
X103490000Y-81220000D02*
X100540000Y-81220000D01*
X146006000Y-106142000D02*
X146002000Y-106142000D01*
X146002000Y-106142000D02*
X144270000Y-104410000D01*
X136885000Y-104410000D02*
X135900000Y-103425000D01*
X144270000Y-104410000D02*
X136885000Y-104410000D01*
X135900000Y-103425000D02*
X135900000Y-102400000D01*
X135900000Y-102400000D02*
X130120000Y-96620000D01*
X106130000Y-83960000D02*
X106130000Y-82630000D01*
X108910000Y-70830000D02*
X106370000Y-70830000D01*
X103080000Y-115202000D02*
X103080000Y-109220000D01*
X106130000Y-94190000D02*
X106130000Y-83960000D01*
X106130000Y-106170000D02*
X106130000Y-94190000D01*
X103080000Y-109220000D02*
X106130000Y-106170000D01*
X146006000Y-106142000D02*
X146006000Y-108106000D01*
X147778000Y-109878000D02*
X150324000Y-109878000D01*
X146006000Y-108106000D02*
X147778000Y-109878000D01*
X141700000Y-92898220D02*
X141700000Y-94770000D01*
X135920000Y-106715000D02*
X132025000Y-106715000D01*
X132025000Y-106715000D02*
X130120000Y-108620000D01*
X108430000Y-80600000D02*
X108590760Y-80600000D01*
X108590760Y-80600000D02*
X110810000Y-82819240D01*
X124150000Y-73370000D02*
X124150000Y-76050000D01*
X128480000Y-113080000D02*
X128480000Y-115202000D01*
X125500000Y-110100000D02*
X128480000Y-113080000D01*
X125500000Y-77400000D02*
X125500000Y-110100000D01*
X124150000Y-76050000D02*
X125500000Y-77400000D01*
X129230000Y-73370000D02*
X129230000Y-73670000D01*
X129230000Y-73670000D02*
X126300000Y-76600000D01*
X126300000Y-76600000D02*
X126300000Y-109700000D01*
X126300000Y-109700000D02*
X129000000Y-112400000D01*
X129000000Y-112400000D02*
X130000000Y-112400000D01*
X130000000Y-112400000D02*
X131020000Y-113420000D01*
X131020000Y-113420000D02*
X131020000Y-115202000D01*
X131770000Y-73370000D02*
X131770000Y-74830000D01*
X133560000Y-113260000D02*
X133560000Y-115202000D01*
X131900000Y-111600000D02*
X133560000Y-113260000D01*
X129300000Y-111600000D02*
X131900000Y-111600000D01*
X127100000Y-109400000D02*
X129300000Y-111600000D01*
X127100000Y-76900000D02*
X127100000Y-109400000D01*
X128100000Y-75900000D02*
X127100000Y-76900000D01*
X130700000Y-75900000D02*
X128100000Y-75900000D01*
X131770000Y-74830000D02*
X130700000Y-75900000D01*
X121610000Y-73370000D02*
X121610000Y-75010000D01*
X125940000Y-112340000D02*
X125940000Y-115202000D01*
X124700000Y-111100000D02*
X125940000Y-112340000D01*
X124700000Y-78100000D02*
X124700000Y-111100000D01*
X121610000Y-75010000D02*
X124700000Y-78100000D01*
X113240000Y-115202000D02*
X113240000Y-121150000D01*
X156320000Y-72520000D02*
X154630000Y-70830000D01*
X156320000Y-73970000D02*
X156320000Y-72520000D01*
X157490000Y-75140000D02*
X156320000Y-73970000D01*
X159020000Y-75140000D02*
X157490000Y-75140000D01*
X162070000Y-78190000D02*
X159020000Y-75140000D01*
X162070000Y-112580000D02*
X162070000Y-78190000D01*
X150660000Y-123990000D02*
X162070000Y-112580000D01*
X116080000Y-123990000D02*
X150660000Y-123990000D01*
X113240000Y-121150000D02*
X116080000Y-123990000D01*
X154630000Y-70830000D02*
X154630000Y-70770000D01*
X108160000Y-115202000D02*
X108160000Y-112900000D01*
X113990000Y-76540000D02*
X113990000Y-73370000D01*
X115030000Y-77580000D02*
X113990000Y-76540000D01*
X115030000Y-84600000D02*
X115030000Y-77580000D01*
X111480000Y-88150000D02*
X115030000Y-84600000D01*
X121100000Y-109570000D02*
X121100000Y-88150000D01*
X119580000Y-111090000D02*
X121100000Y-109570000D01*
X109970000Y-111090000D02*
X119580000Y-111090000D01*
X108160000Y-112900000D02*
X109970000Y-111090000D01*
X156590000Y-86400000D02*
X158480000Y-86400000D01*
X158480000Y-86400000D02*
X158820000Y-86060000D01*
X158800000Y-96500000D02*
X158800000Y-86080000D01*
X158800000Y-86080000D02*
X158820000Y-86060000D01*
X140900000Y-88800000D02*
X142600000Y-88800000D01*
X142600000Y-88800000D02*
X142650000Y-88850000D01*
X142650000Y-88850000D02*
X142650000Y-90899240D01*
X146150000Y-90899240D02*
X146150000Y-88950000D01*
X146150000Y-88950000D02*
X146000000Y-88800000D01*
X155320000Y-109870000D02*
X153620000Y-109870000D01*
X147692000Y-103942000D02*
X146006000Y-103942000D01*
X153620000Y-109870000D02*
X147692000Y-103942000D01*
X146006000Y-103942000D02*
X146006000Y-93704220D01*
X146006000Y-93704220D02*
X145200000Y-92898220D01*
X135980000Y-98580000D02*
X138940000Y-98580000D01*
X138940000Y-98580000D02*
X138980000Y-98620000D01*
X138980000Y-102600000D02*
X138980000Y-98620000D01*
X138980000Y-98620000D02*
X138980000Y-96100000D01*
X147530000Y-95814000D02*
X147530000Y-76930000D01*
X147010000Y-76410000D02*
X147010000Y-73370000D01*
X147530000Y-76930000D02*
X147010000Y-76410000D01*
X149308000Y-95814000D02*
X149308000Y-94592000D01*
X149550000Y-76550000D02*
X149550000Y-73370000D01*
X150900000Y-77900000D02*
X149550000Y-76550000D01*
X150900000Y-93000000D02*
X150900000Y-77900000D01*
X149308000Y-94592000D02*
X150900000Y-93000000D01*
X156590000Y-88940000D02*
X155940000Y-88940000D01*
X155940000Y-88940000D02*
X154400000Y-87400000D01*
X154400000Y-87400000D02*
X154400000Y-80100000D01*
X156590000Y-91480000D02*
X156590000Y-91430000D01*
X156590000Y-91430000D02*
X152420000Y-87260000D01*
X152420000Y-87260000D02*
X152420000Y-78350000D01*
X139390000Y-73370000D02*
X139390000Y-74800000D01*
X152420000Y-78350000D02*
X154400000Y-78350000D01*
X140790000Y-76200000D02*
X140790000Y-78320000D01*
X139390000Y-74800000D02*
X140790000Y-76200000D01*
X154400000Y-78350000D02*
X153950000Y-78350000D01*
X110630000Y-77270000D02*
X110630000Y-75090000D01*
X110630000Y-75090000D02*
X108910000Y-73370000D01*
X129480000Y-88300000D02*
X129480000Y-91900000D01*
X129480000Y-84700000D02*
X129480000Y-88300000D01*
X129480000Y-81100000D02*
X129480000Y-84700000D01*
X129480000Y-77500000D02*
X129480000Y-81100000D01*
X112730000Y-79290000D02*
X112730000Y-74650000D01*
X112730000Y-74650000D02*
X111450000Y-73370000D01*
X112370000Y-78930000D02*
X110630000Y-78930000D01*
X112730000Y-79290000D02*
X112370000Y-78930000D01*
X132020000Y-81100000D02*
X132020000Y-77500000D01*
X132020000Y-81100000D02*
X132020000Y-84700000D01*
X132020000Y-84700000D02*
X132020000Y-88300000D01*
X132020000Y-91900000D02*
X132020000Y-88300000D01*
X146000000Y-86600000D02*
X146000000Y-80800000D01*
X144470000Y-79270000D02*
X144470000Y-73370000D01*
X146000000Y-80800000D02*
X144470000Y-79270000D01*
X143480000Y-96100000D02*
X141510000Y-96100000D01*
X141510000Y-96100000D02*
X139110000Y-93700000D01*
X143480000Y-102600000D02*
X143480000Y-96100000D01*
X139110000Y-93700000D02*
X139110000Y-76610000D01*
X136210000Y-75270000D02*
X134310000Y-73370000D01*
X137770000Y-75270000D02*
X136210000Y-75270000D01*
X139110000Y-76610000D02*
X137770000Y-75270000D01*
X142600000Y-86600000D02*
X142600000Y-79800000D01*
X141930000Y-79130000D02*
X141930000Y-73370000D01*
X142600000Y-79800000D02*
X141930000Y-79130000D01*
X157800000Y-101900000D02*
X157370000Y-101900000D01*
X157370000Y-101900000D02*
X156240000Y-100770000D01*
X155700000Y-96100000D02*
X153700000Y-96100000D01*
X156240000Y-96640000D02*
X155700000Y-96100000D01*
X156240000Y-100770000D02*
X156240000Y-96640000D01*
X157800000Y-101900000D02*
X157300000Y-101900000D01*
X153700000Y-98700000D02*
X149994000Y-98700000D01*
X149994000Y-98700000D02*
X149308000Y-98014000D01*
X153700000Y-100000000D02*
X149516000Y-100000000D01*
X149516000Y-100000000D02*
X147530000Y-98014000D01*
X160000000Y-101900000D02*
X160600000Y-101900000D01*
X160600000Y-101900000D02*
X161000000Y-101500000D01*
X161000000Y-101500000D02*
X161000000Y-78300000D01*
X161000000Y-78300000D02*
X159100000Y-76400000D01*
X159100000Y-76400000D02*
X153600000Y-76400000D01*
X153600000Y-76400000D02*
X152090000Y-74890000D01*
X152090000Y-74890000D02*
X152090000Y-73370000D01*
X116370000Y-77810000D02*
X116370000Y-84970000D01*
D36*
X115260000Y-76700000D02*
X116370000Y-77810000D01*
X115260000Y-72080000D02*
X115260000Y-76700000D01*
X114010000Y-70830000D02*
X115260000Y-72080000D01*
D35*
X113140000Y-88200000D02*
X113140000Y-91900000D01*
X116370000Y-84970000D02*
X113140000Y-88200000D01*
D36*
X113990000Y-70830000D02*
X114010000Y-70830000D01*
D35*
X117810000Y-77600000D02*
X117810000Y-85530000D01*
X115680000Y-87660000D02*
X115680000Y-91900000D01*
X117810000Y-85530000D02*
X115680000Y-87660000D01*
D36*
X116530000Y-70830000D02*
X116530000Y-70850000D01*
X116530000Y-70850000D02*
X117810000Y-72130000D01*
X117810000Y-72130000D02*
X117810000Y-77600000D01*
X117810000Y-77600000D02*
X117810000Y-77630000D01*
D35*
X100540000Y-76140000D02*
X99440000Y-76140000D01*
X117440000Y-69200000D02*
X119070000Y-70830000D01*
X100200000Y-69200000D02*
X117440000Y-69200000D01*
X98600000Y-70800000D02*
X100200000Y-69200000D01*
X98600000Y-75300000D02*
X98600000Y-70800000D01*
X99440000Y-76140000D02*
X98600000Y-75300000D01*
X109860000Y-86500000D02*
X109860000Y-84818220D01*
X103930000Y-83960000D02*
X100520000Y-83960000D01*
X119070000Y-73370000D02*
X119070000Y-80590000D01*
X113580000Y-80600000D02*
X110630000Y-80600000D01*
X113590000Y-80590000D02*
X113580000Y-80600000D01*
D37*
X109050000Y-101810000D02*
X115390000Y-101810000D01*
X117920000Y-99280000D02*
X117920000Y-96620000D01*
X115390000Y-101810000D02*
X117920000Y-99280000D01*
X109050000Y-106810000D02*
X116110000Y-106810000D01*
X116110000Y-106810000D02*
X117920000Y-108620000D01*
D35*
X136100000Y-115202000D02*
X136100000Y-121910000D01*
X136100000Y-121910000D02*
X136110000Y-121920000D01*
D36*
G36*
X160970128Y-69257904D02*
X161792562Y-69807438D01*
X162342096Y-70629872D01*
X162544000Y-71644911D01*
X162544000Y-77785444D01*
X162516184Y-77743815D01*
X159603459Y-74831091D01*
X160040846Y-74831473D01*
X161044966Y-74416579D01*
X161813879Y-73649007D01*
X162230524Y-72645613D01*
X162231473Y-71559154D01*
X161816579Y-70555034D01*
X161049007Y-69786121D01*
X160045613Y-69369476D01*
X158959154Y-69368527D01*
X157955034Y-69783421D01*
X157186121Y-70550993D01*
X156769476Y-71554387D01*
X156769019Y-72078058D01*
X156766184Y-72073816D01*
X155820206Y-71127838D01*
X155874600Y-70854383D01*
X155874600Y-70805617D01*
X155779860Y-70329329D01*
X155510065Y-69925552D01*
X155106288Y-69655757D01*
X154630000Y-69561017D01*
X154153712Y-69655757D01*
X153749935Y-69925552D01*
X153480140Y-70329329D01*
X153385400Y-70805617D01*
X153385400Y-70854383D01*
X153480140Y-71330671D01*
X153749935Y-71734448D01*
X154116172Y-71979159D01*
X153855053Y-72087312D01*
X153423179Y-72481510D01*
X153240324Y-72871662D01*
X153239860Y-72869329D01*
X152970065Y-72465552D01*
X152566288Y-72195757D01*
X152090000Y-72101017D01*
X151613712Y-72195757D01*
X151209935Y-72465552D01*
X150940140Y-72869329D01*
X150845400Y-73345617D01*
X150845400Y-73394383D01*
X150940140Y-73870671D01*
X151209935Y-74274448D01*
X151459000Y-74440868D01*
X151459000Y-74890000D01*
X151474899Y-74969928D01*
X151507032Y-75131473D01*
X151643816Y-75336184D01*
X153153815Y-76846184D01*
X153234357Y-76900000D01*
X153358527Y-76982968D01*
X153600000Y-77031000D01*
X157995974Y-77031000D01*
X157836673Y-77190302D01*
X157740000Y-77423691D01*
X157740000Y-77864250D01*
X157898750Y-78023000D01*
X158623000Y-78023000D01*
X158623000Y-78003000D01*
X158877000Y-78003000D01*
X158877000Y-78023000D01*
X159601250Y-78023000D01*
X159715941Y-77908309D01*
X160369000Y-78561369D01*
X160369000Y-98567787D01*
X160206385Y-98175182D01*
X159933660Y-97881060D01*
X159964659Y-97874894D01*
X160090686Y-97790686D01*
X160174894Y-97664659D01*
X160204464Y-97516000D01*
X160204464Y-95484000D01*
X160174894Y-95335341D01*
X160090686Y-95209314D01*
X159964659Y-95125106D01*
X159816000Y-95095536D01*
X159431000Y-95095536D01*
X159431000Y-87010648D01*
X159544686Y-86934686D01*
X159628894Y-86808659D01*
X159658464Y-86660000D01*
X159658464Y-85460000D01*
X159628894Y-85311341D01*
X159544686Y-85185314D01*
X159418659Y-85101106D01*
X159270000Y-85071536D01*
X158370000Y-85071536D01*
X158221341Y-85101106D01*
X158095314Y-85185314D01*
X158011106Y-85311341D01*
X157981536Y-85460000D01*
X157981536Y-85769000D01*
X157584601Y-85769000D01*
X157448230Y-85564907D01*
X157065086Y-85308898D01*
X156613137Y-85219000D01*
X156566863Y-85219000D01*
X156114914Y-85308898D01*
X155731770Y-85564907D01*
X155475761Y-85948051D01*
X155385863Y-86400000D01*
X155475761Y-86851949D01*
X155731770Y-87235093D01*
X156114914Y-87491102D01*
X156566863Y-87581000D01*
X156613137Y-87581000D01*
X157065086Y-87491102D01*
X157448230Y-87235093D01*
X157584601Y-87031000D01*
X158169000Y-87031000D01*
X158169000Y-95095536D01*
X157784000Y-95095536D01*
X157635341Y-95125106D01*
X157509314Y-95209314D01*
X157425106Y-95335341D01*
X157395536Y-95484000D01*
X157395536Y-97516000D01*
X157425106Y-97664659D01*
X157509314Y-97790686D01*
X157635341Y-97874894D01*
X157666340Y-97881060D01*
X157393615Y-98175182D01*
X157194025Y-98657056D01*
X157313164Y-98913000D01*
X158673000Y-98913000D01*
X158673000Y-98893000D01*
X158927000Y-98893000D01*
X158927000Y-98913000D01*
X158947000Y-98913000D01*
X158947000Y-99167000D01*
X158927000Y-99167000D01*
X158927000Y-100527367D01*
X159182946Y-100645983D01*
X159768379Y-100377188D01*
X160206385Y-99904818D01*
X160369000Y-99512213D01*
X160369000Y-101061536D01*
X159400000Y-101061536D01*
X159251341Y-101091106D01*
X159125314Y-101175314D01*
X159041106Y-101301341D01*
X159011536Y-101450000D01*
X159011536Y-102350000D01*
X159041106Y-102498659D01*
X159125314Y-102624686D01*
X159251341Y-102708894D01*
X159400000Y-102738464D01*
X160600000Y-102738464D01*
X160748659Y-102708894D01*
X160874686Y-102624686D01*
X160958894Y-102498659D01*
X160980492Y-102390078D01*
X161046184Y-102346184D01*
X161439000Y-101953369D01*
X161439000Y-112318631D01*
X150398632Y-123359000D01*
X136902564Y-123359000D01*
X137012680Y-123313501D01*
X137471888Y-122855093D01*
X137720716Y-122255849D01*
X137721282Y-121606997D01*
X137473501Y-121007320D01*
X137333017Y-120866591D01*
X137436286Y-120763322D01*
X137565533Y-121056123D01*
X138265806Y-121324388D01*
X139015435Y-121304250D01*
X139614467Y-121056123D01*
X139743715Y-120763320D01*
X138590000Y-119609605D01*
X138575858Y-119623748D01*
X138396253Y-119444143D01*
X138410395Y-119430000D01*
X138769605Y-119430000D01*
X139923320Y-120583715D01*
X140216123Y-120454467D01*
X140484388Y-119754194D01*
X140464250Y-119004565D01*
X140216123Y-118405533D01*
X139923320Y-118276285D01*
X138769605Y-119430000D01*
X138410395Y-119430000D01*
X137256680Y-118276285D01*
X136963877Y-118405533D01*
X136731000Y-119013430D01*
X136731000Y-118096680D01*
X137436285Y-118096680D01*
X138590000Y-119250395D01*
X139743715Y-118096680D01*
X139614467Y-117803877D01*
X138914194Y-117535612D01*
X138164565Y-117555750D01*
X137565533Y-117803877D01*
X137436285Y-118096680D01*
X136731000Y-118096680D01*
X136731000Y-116428254D01*
X136980065Y-116261834D01*
X137249860Y-115858057D01*
X137252704Y-115843757D01*
X137348046Y-116116320D01*
X137737964Y-116552732D01*
X138265209Y-116806709D01*
X138280974Y-116809358D01*
X138513000Y-116688217D01*
X138513000Y-115329000D01*
X138767000Y-115329000D01*
X138767000Y-116688217D01*
X138999026Y-116809358D01*
X139014791Y-116806709D01*
X139542036Y-116552732D01*
X139931954Y-116116320D01*
X140125184Y-115563913D01*
X139980924Y-115329000D01*
X138767000Y-115329000D01*
X138513000Y-115329000D01*
X138493000Y-115329000D01*
X138493000Y-115075000D01*
X138513000Y-115075000D01*
X138513000Y-113715783D01*
X138767000Y-113715783D01*
X138767000Y-115075000D01*
X139980924Y-115075000D01*
X140125184Y-114840087D01*
X139931954Y-114287680D01*
X139542036Y-113851268D01*
X139014791Y-113597291D01*
X138999026Y-113594642D01*
X138767000Y-113715783D01*
X138513000Y-113715783D01*
X138280974Y-113594642D01*
X138265209Y-113597291D01*
X137737964Y-113851268D01*
X137348046Y-114287680D01*
X137252704Y-114560243D01*
X137249860Y-114545943D01*
X136980065Y-114142166D01*
X136576288Y-113872371D01*
X136100000Y-113777631D01*
X135623712Y-113872371D01*
X135219935Y-114142166D01*
X134950140Y-114545943D01*
X134855400Y-115022231D01*
X134855400Y-115381769D01*
X134950140Y-115858057D01*
X135219935Y-116261834D01*
X135469000Y-116428254D01*
X135469000Y-120421848D01*
X135167320Y-120546499D01*
X134708112Y-121004907D01*
X134459284Y-121604151D01*
X134458718Y-122253003D01*
X134706499Y-122852680D01*
X135164907Y-123311888D01*
X135278365Y-123359000D01*
X116341369Y-123359000D01*
X113871000Y-120888632D01*
X113871000Y-119753003D01*
X131958718Y-119753003D01*
X132206499Y-120352680D01*
X132664907Y-120811888D01*
X133264151Y-121060716D01*
X133913003Y-121061282D01*
X134512680Y-120813501D01*
X134971888Y-120355093D01*
X135220716Y-119755849D01*
X135221282Y-119106997D01*
X134973501Y-118507320D01*
X134515093Y-118048112D01*
X133915849Y-117799284D01*
X133266997Y-117798718D01*
X132667320Y-118046499D01*
X132208112Y-118504907D01*
X131959284Y-119104151D01*
X131958718Y-119753003D01*
X113871000Y-119753003D01*
X113871000Y-116428254D01*
X114120065Y-116261834D01*
X114389860Y-115858057D01*
X114484600Y-115381769D01*
X114484600Y-115022231D01*
X114535400Y-115022231D01*
X114535400Y-115381769D01*
X114630140Y-115858057D01*
X114899935Y-116261834D01*
X115303712Y-116531629D01*
X115780000Y-116626369D01*
X116256288Y-116531629D01*
X116660065Y-116261834D01*
X116929860Y-115858057D01*
X117024600Y-115381769D01*
X117024600Y-115022231D01*
X117075400Y-115022231D01*
X117075400Y-115381769D01*
X117170140Y-115858057D01*
X117439935Y-116261834D01*
X117843712Y-116531629D01*
X118320000Y-116626369D01*
X118796288Y-116531629D01*
X119200065Y-116261834D01*
X119469860Y-115858057D01*
X119564600Y-115381769D01*
X119564600Y-115022231D01*
X119615400Y-115022231D01*
X119615400Y-115381769D01*
X119710140Y-115858057D01*
X119979935Y-116261834D01*
X120383712Y-116531629D01*
X120860000Y-116626369D01*
X121336288Y-116531629D01*
X121740065Y-116261834D01*
X122009860Y-115858057D01*
X122104600Y-115381769D01*
X122104600Y-115022231D01*
X122155400Y-115022231D01*
X122155400Y-115381769D01*
X122250140Y-115858057D01*
X122519935Y-116261834D01*
X122923712Y-116531629D01*
X123400000Y-116626369D01*
X123876288Y-116531629D01*
X124280065Y-116261834D01*
X124549860Y-115858057D01*
X124644600Y-115381769D01*
X124644600Y-115022231D01*
X124549860Y-114545943D01*
X124280065Y-114142166D01*
X123876288Y-113872371D01*
X123400000Y-113777631D01*
X122923712Y-113872371D01*
X122519935Y-114142166D01*
X122250140Y-114545943D01*
X122155400Y-115022231D01*
X122104600Y-115022231D01*
X122009860Y-114545943D01*
X121740065Y-114142166D01*
X121336288Y-113872371D01*
X120860000Y-113777631D01*
X120383712Y-113872371D01*
X119979935Y-114142166D01*
X119710140Y-114545943D01*
X119615400Y-115022231D01*
X119564600Y-115022231D01*
X119469860Y-114545943D01*
X119200065Y-114142166D01*
X118796288Y-113872371D01*
X118320000Y-113777631D01*
X117843712Y-113872371D01*
X117439935Y-114142166D01*
X117170140Y-114545943D01*
X117075400Y-115022231D01*
X117024600Y-115022231D01*
X116929860Y-114545943D01*
X116660065Y-114142166D01*
X116256288Y-113872371D01*
X115780000Y-113777631D01*
X115303712Y-113872371D01*
X114899935Y-114142166D01*
X114630140Y-114545943D01*
X114535400Y-115022231D01*
X114484600Y-115022231D01*
X114389860Y-114545943D01*
X114120065Y-114142166D01*
X113716288Y-113872371D01*
X113240000Y-113777631D01*
X112763712Y-113872371D01*
X112359935Y-114142166D01*
X112090140Y-114545943D01*
X112087296Y-114560243D01*
X111991954Y-114287680D01*
X111602036Y-113851268D01*
X111074791Y-113597291D01*
X111059026Y-113594642D01*
X110827000Y-113715783D01*
X110827000Y-115075000D01*
X110847000Y-115075000D01*
X110847000Y-115329000D01*
X110827000Y-115329000D01*
X110827000Y-116688217D01*
X111059026Y-116809358D01*
X111074791Y-116806709D01*
X111602036Y-116552732D01*
X111991954Y-116116320D01*
X112087296Y-115843757D01*
X112090140Y-115858057D01*
X112359935Y-116261834D01*
X112609000Y-116428254D01*
X112609000Y-121150000D01*
X112643688Y-121324388D01*
X112657032Y-121391473D01*
X112793816Y-121596184D01*
X115341631Y-124144000D01*
X101044911Y-124144000D01*
X100029872Y-123942096D01*
X99207438Y-123392562D01*
X98657904Y-122570128D01*
X98473059Y-121640846D01*
X98768527Y-121640846D01*
X99183421Y-122644966D01*
X99950993Y-123413879D01*
X100954387Y-123830524D01*
X102040846Y-123831473D01*
X103044966Y-123416579D01*
X103813879Y-122649007D01*
X104230524Y-121645613D01*
X104231473Y-120559154D01*
X103816579Y-119555034D01*
X103049007Y-118786121D01*
X102045613Y-118369476D01*
X100959154Y-118368527D01*
X99955034Y-118783421D01*
X99186121Y-119550993D01*
X98769476Y-120554387D01*
X98768527Y-121640846D01*
X98473059Y-121640846D01*
X98456000Y-121555089D01*
X98456000Y-115487750D01*
X99041400Y-115487750D01*
X99041400Y-116344309D01*
X99138073Y-116577698D01*
X99316701Y-116756327D01*
X99550090Y-116853000D01*
X100254250Y-116853000D01*
X100413000Y-116694250D01*
X100413000Y-115329000D01*
X99200150Y-115329000D01*
X99041400Y-115487750D01*
X98456000Y-115487750D01*
X98456000Y-114059691D01*
X99041400Y-114059691D01*
X99041400Y-114916250D01*
X99200150Y-115075000D01*
X100413000Y-115075000D01*
X100413000Y-113709750D01*
X100254250Y-113551000D01*
X99550090Y-113551000D01*
X99316701Y-113647673D01*
X99138073Y-113826302D01*
X99041400Y-114059691D01*
X98456000Y-114059691D01*
X98456000Y-105644911D01*
X98467602Y-105586582D01*
X98475204Y-105575204D01*
X98486582Y-105567602D01*
X98544911Y-105556000D01*
X104500000Y-105556000D01*
X104544050Y-105547238D01*
X104588961Y-105547238D01*
X104780303Y-105509178D01*
X104780305Y-105509178D01*
X104873000Y-105470782D01*
X104873000Y-106534631D01*
X102633816Y-108773816D01*
X102497032Y-108978527D01*
X102449000Y-109220000D01*
X102449000Y-113975746D01*
X102199935Y-114142166D01*
X102038600Y-114383621D01*
X102038600Y-114059691D01*
X101941927Y-113826302D01*
X101763299Y-113647673D01*
X101529910Y-113551000D01*
X100825750Y-113551000D01*
X100667000Y-113709750D01*
X100667000Y-115075000D01*
X100687000Y-115075000D01*
X100687000Y-115329000D01*
X100667000Y-115329000D01*
X100667000Y-116694250D01*
X100825750Y-116853000D01*
X101529910Y-116853000D01*
X101763299Y-116756327D01*
X101941927Y-116577698D01*
X102038600Y-116344309D01*
X102038600Y-116020379D01*
X102199935Y-116261834D01*
X102603712Y-116531629D01*
X103080000Y-116626369D01*
X103556288Y-116531629D01*
X103960065Y-116261834D01*
X104229860Y-115858057D01*
X104232704Y-115843757D01*
X104328046Y-116116320D01*
X104717964Y-116552732D01*
X105245209Y-116806709D01*
X105260974Y-116809358D01*
X105493000Y-116688217D01*
X105493000Y-115329000D01*
X105473000Y-115329000D01*
X105473000Y-115075000D01*
X105493000Y-115075000D01*
X105493000Y-113715783D01*
X105260974Y-113594642D01*
X105245209Y-113597291D01*
X104717964Y-113851268D01*
X104328046Y-114287680D01*
X104232704Y-114560243D01*
X104229860Y-114545943D01*
X103960065Y-114142166D01*
X103711000Y-113975746D01*
X103711000Y-109481368D01*
X104873000Y-108319368D01*
X104873000Y-113320000D01*
X104882667Y-113368601D01*
X104910197Y-113409803D01*
X104951399Y-113437333D01*
X105000000Y-113447000D01*
X107529000Y-113447000D01*
X107529000Y-113975746D01*
X107279935Y-114142166D01*
X107010140Y-114545943D01*
X107007296Y-114560243D01*
X106911954Y-114287680D01*
X106522036Y-113851268D01*
X105994791Y-113597291D01*
X105979026Y-113594642D01*
X105747000Y-113715783D01*
X105747000Y-115075000D01*
X105767000Y-115075000D01*
X105767000Y-115329000D01*
X105747000Y-115329000D01*
X105747000Y-116688217D01*
X105979026Y-116809358D01*
X105994791Y-116806709D01*
X106522036Y-116552732D01*
X106911954Y-116116320D01*
X107007296Y-115843757D01*
X107010140Y-115858057D01*
X107279935Y-116261834D01*
X107683712Y-116531629D01*
X108160000Y-116626369D01*
X108636288Y-116531629D01*
X109040065Y-116261834D01*
X109309860Y-115858057D01*
X109312704Y-115843757D01*
X109408046Y-116116320D01*
X109797964Y-116552732D01*
X110325209Y-116806709D01*
X110340974Y-116809358D01*
X110573000Y-116688217D01*
X110573000Y-115329000D01*
X110553000Y-115329000D01*
X110553000Y-115075000D01*
X110573000Y-115075000D01*
X110573000Y-113715783D01*
X110340974Y-113594642D01*
X110325209Y-113597291D01*
X109797964Y-113851268D01*
X109408046Y-114287680D01*
X109312704Y-114560243D01*
X109309860Y-114545943D01*
X109040065Y-114142166D01*
X108791000Y-113975746D01*
X108791000Y-113447000D01*
X125309000Y-113447000D01*
X125309000Y-113975746D01*
X125059935Y-114142166D01*
X124790140Y-114545943D01*
X124695400Y-115022231D01*
X124695400Y-115381769D01*
X124790140Y-115858057D01*
X125059935Y-116261834D01*
X125463712Y-116531629D01*
X125940000Y-116626369D01*
X126416288Y-116531629D01*
X126820065Y-116261834D01*
X127089860Y-115858057D01*
X127184600Y-115381769D01*
X127184600Y-115022231D01*
X127089860Y-114545943D01*
X126820065Y-114142166D01*
X126571000Y-113975746D01*
X126571000Y-113447000D01*
X127849000Y-113447000D01*
X127849000Y-113975746D01*
X127599935Y-114142166D01*
X127330140Y-114545943D01*
X127235400Y-115022231D01*
X127235400Y-115381769D01*
X127330140Y-115858057D01*
X127599935Y-116261834D01*
X128003712Y-116531629D01*
X128480000Y-116626369D01*
X128956288Y-116531629D01*
X129360065Y-116261834D01*
X129629860Y-115858057D01*
X129724600Y-115381769D01*
X129724600Y-115022231D01*
X129629860Y-114545943D01*
X129360065Y-114142166D01*
X129111000Y-113975746D01*
X129111000Y-113447000D01*
X130154632Y-113447000D01*
X130389000Y-113681368D01*
X130389000Y-113975746D01*
X130139935Y-114142166D01*
X129870140Y-114545943D01*
X129775400Y-115022231D01*
X129775400Y-115381769D01*
X129870140Y-115858057D01*
X130139935Y-116261834D01*
X130543712Y-116531629D01*
X131020000Y-116626369D01*
X131496288Y-116531629D01*
X131900065Y-116261834D01*
X132169860Y-115858057D01*
X132264600Y-115381769D01*
X132264600Y-115022231D01*
X132169860Y-114545943D01*
X131900065Y-114142166D01*
X131651000Y-113975746D01*
X131651000Y-113447000D01*
X132854631Y-113447000D01*
X132929000Y-113521369D01*
X132929000Y-113975746D01*
X132679935Y-114142166D01*
X132410140Y-114545943D01*
X132315400Y-115022231D01*
X132315400Y-115381769D01*
X132410140Y-115858057D01*
X132679935Y-116261834D01*
X133083712Y-116531629D01*
X133560000Y-116626369D01*
X134036288Y-116531629D01*
X134440065Y-116261834D01*
X134709860Y-115858057D01*
X134804600Y-115381769D01*
X134804600Y-115022231D01*
X134709860Y-114545943D01*
X134440065Y-114142166D01*
X134191000Y-113975746D01*
X134191000Y-113447000D01*
X134860000Y-113447000D01*
X134908601Y-113437333D01*
X134949803Y-113409803D01*
X134977333Y-113368601D01*
X134987000Y-113320000D01*
X134987000Y-107382311D01*
X135015314Y-107424686D01*
X135141341Y-107508894D01*
X135290000Y-107538464D01*
X136510000Y-107538464D01*
X136658659Y-107508894D01*
X136784686Y-107424686D01*
X136868894Y-107298659D01*
X136898464Y-107150000D01*
X136898464Y-106240000D01*
X136868894Y-106091341D01*
X136784686Y-105965314D01*
X136658659Y-105881106D01*
X136510000Y-105851536D01*
X135290000Y-105851536D01*
X135141341Y-105881106D01*
X135015314Y-105965314D01*
X134987000Y-106007689D01*
X134987000Y-104112311D01*
X135015314Y-104154686D01*
X135141341Y-104238894D01*
X135290000Y-104268464D01*
X135851096Y-104268464D01*
X136438815Y-104856184D01*
X136643526Y-104992968D01*
X136674837Y-104999196D01*
X136885000Y-105041000D01*
X142012296Y-105041000D01*
X141913743Y-105139553D01*
X141696971Y-105463976D01*
X141696970Y-105463977D01*
X141628882Y-105628356D01*
X141552762Y-106011039D01*
X141552762Y-106055950D01*
X141544000Y-106100000D01*
X141544000Y-121100000D01*
X141552762Y-121144050D01*
X141552762Y-121188961D01*
X141628882Y-121571644D01*
X141696970Y-121736023D01*
X141913743Y-122060447D01*
X142039553Y-122186257D01*
X142363977Y-122403030D01*
X142528356Y-122471118D01*
X142911037Y-122547238D01*
X143088963Y-122547238D01*
X143471644Y-122471118D01*
X143636023Y-122403030D01*
X143960447Y-122186257D01*
X144086257Y-122060447D01*
X144303030Y-121736023D01*
X144371118Y-121571644D01*
X144447238Y-121188961D01*
X144447238Y-121144050D01*
X144456000Y-121100000D01*
X144456000Y-113853983D01*
X151678804Y-113853983D01*
X151850625Y-114269823D01*
X152168503Y-114588256D01*
X152584043Y-114760804D01*
X153033983Y-114761196D01*
X153449823Y-114589375D01*
X153768256Y-114271497D01*
X153940804Y-113855957D01*
X153941196Y-113406017D01*
X153769375Y-112990177D01*
X153451497Y-112671744D01*
X153035957Y-112499196D01*
X152586017Y-112498804D01*
X152170177Y-112670625D01*
X151851744Y-112988503D01*
X151679196Y-113404043D01*
X151678804Y-113853983D01*
X144456000Y-113853983D01*
X144456000Y-106100000D01*
X144447238Y-106055950D01*
X144447238Y-106011039D01*
X144371118Y-105628356D01*
X144303030Y-105463977D01*
X144303029Y-105463976D01*
X144086257Y-105139553D01*
X143987704Y-105041000D01*
X144008632Y-105041000D01*
X145167536Y-106199904D01*
X145167536Y-106742000D01*
X145197106Y-106890659D01*
X145281314Y-107016686D01*
X145375000Y-107079285D01*
X145375000Y-108106000D01*
X145416931Y-108316801D01*
X145423032Y-108347473D01*
X145559816Y-108552184D01*
X147331815Y-110324184D01*
X147536526Y-110460968D01*
X147576589Y-110468937D01*
X147778000Y-110509000D01*
X149333169Y-110509000D01*
X149340446Y-110526612D01*
X149661697Y-110848423D01*
X150081646Y-111022801D01*
X150536359Y-111023198D01*
X150956612Y-110849554D01*
X151278423Y-110528303D01*
X151452801Y-110108354D01*
X151453198Y-109653641D01*
X151279554Y-109233388D01*
X150958303Y-108911577D01*
X150538354Y-108737199D01*
X150083641Y-108736802D01*
X149663388Y-108910446D01*
X149341577Y-109231697D01*
X149335223Y-109247000D01*
X148039369Y-109247000D01*
X146637000Y-107844632D01*
X146637000Y-107079285D01*
X146730686Y-107016686D01*
X146814894Y-106890659D01*
X146844464Y-106742000D01*
X146844464Y-105542000D01*
X146814894Y-105393341D01*
X146730686Y-105267314D01*
X146604659Y-105183106D01*
X146456000Y-105153536D01*
X145905904Y-105153536D01*
X145682832Y-104930464D01*
X146456000Y-104930464D01*
X146604659Y-104900894D01*
X146730686Y-104816686D01*
X146814894Y-104690659D01*
X146838298Y-104573000D01*
X147430632Y-104573000D01*
X153173816Y-110316184D01*
X153378527Y-110452968D01*
X153620000Y-110501000D01*
X154329863Y-110501000D01*
X154340446Y-110526612D01*
X154661697Y-110848423D01*
X155081646Y-111022801D01*
X155536359Y-111023198D01*
X155956612Y-110849554D01*
X156278423Y-110528303D01*
X156452801Y-110108354D01*
X156453198Y-109653641D01*
X156279554Y-109233388D01*
X155958303Y-108911577D01*
X155538354Y-108737199D01*
X155083641Y-108736802D01*
X154663388Y-108910446D01*
X154341577Y-109231697D01*
X154338545Y-109239000D01*
X153881368Y-109239000D01*
X150996351Y-106353983D01*
X151678804Y-106353983D01*
X151850625Y-106769823D01*
X152168503Y-107088256D01*
X152584043Y-107260804D01*
X153033983Y-107261196D01*
X153449823Y-107089375D01*
X153768256Y-106771497D01*
X153940804Y-106355957D01*
X153941196Y-105906017D01*
X153769375Y-105490177D01*
X153451497Y-105171744D01*
X153035957Y-104999196D01*
X152586017Y-104998804D01*
X152170177Y-105170625D01*
X151851744Y-105488503D01*
X151679196Y-105904043D01*
X151678804Y-106353983D01*
X150996351Y-106353983D01*
X148138184Y-103495816D01*
X147933473Y-103359032D01*
X147692000Y-103311000D01*
X146838298Y-103311000D01*
X146814894Y-103193341D01*
X146730686Y-103067314D01*
X146637000Y-103004715D01*
X146637000Y-97414000D01*
X146691536Y-97414000D01*
X146691536Y-98614000D01*
X146721106Y-98762659D01*
X146805314Y-98888686D01*
X146931341Y-98972894D01*
X147080000Y-99002464D01*
X147626096Y-99002464D01*
X149069816Y-100446184D01*
X149274526Y-100582968D01*
X149314589Y-100590937D01*
X149516000Y-100631000D01*
X152610445Y-100631000D01*
X152884231Y-100813938D01*
X153221375Y-100881000D01*
X154178625Y-100881000D01*
X154515769Y-100813938D01*
X154801586Y-100622961D01*
X154992563Y-100337144D01*
X155059625Y-100000000D01*
X154992563Y-99662856D01*
X154801586Y-99377039D01*
X154761119Y-99350000D01*
X154801586Y-99322961D01*
X154992563Y-99037144D01*
X155059625Y-98700000D01*
X155007927Y-98440096D01*
X155012198Y-98438327D01*
X155190827Y-98259699D01*
X155287500Y-98026310D01*
X155287500Y-97685750D01*
X155128750Y-97527000D01*
X153827000Y-97527000D01*
X153827000Y-97547000D01*
X153573000Y-97547000D01*
X153573000Y-97527000D01*
X152271250Y-97527000D01*
X152112500Y-97685750D01*
X152112500Y-98026310D01*
X152130183Y-98069000D01*
X150255369Y-98069000D01*
X150146464Y-97960095D01*
X150146464Y-97414000D01*
X150116894Y-97265341D01*
X150032686Y-97139314D01*
X149906659Y-97055106D01*
X149758000Y-97025536D01*
X148858000Y-97025536D01*
X148709341Y-97055106D01*
X148583314Y-97139314D01*
X148499106Y-97265341D01*
X148469536Y-97414000D01*
X148469536Y-98061168D01*
X148368464Y-97960096D01*
X148368464Y-97414000D01*
X148338894Y-97265341D01*
X148254686Y-97139314D01*
X148128659Y-97055106D01*
X147980000Y-97025536D01*
X147080000Y-97025536D01*
X146931341Y-97055106D01*
X146805314Y-97139314D01*
X146721106Y-97265341D01*
X146691536Y-97414000D01*
X146637000Y-97414000D01*
X146637000Y-93704220D01*
X146588968Y-93462747D01*
X146588968Y-93462746D01*
X146452184Y-93258036D01*
X145988514Y-92794366D01*
X145988514Y-92498170D01*
X145958944Y-92349511D01*
X145874736Y-92223484D01*
X145748709Y-92139276D01*
X145600050Y-92109706D01*
X144799950Y-92109706D01*
X144651291Y-92139276D01*
X144525264Y-92223484D01*
X144441056Y-92349511D01*
X144411486Y-92498170D01*
X144411486Y-93298270D01*
X144441056Y-93446929D01*
X144525264Y-93572956D01*
X144651291Y-93657164D01*
X144799950Y-93686734D01*
X145096146Y-93686734D01*
X145375000Y-93965588D01*
X145375000Y-103004715D01*
X145281314Y-103067314D01*
X145197106Y-103193341D01*
X145167536Y-103342000D01*
X145167536Y-104415168D01*
X144716184Y-103963816D01*
X144511473Y-103827032D01*
X144270000Y-103779000D01*
X137146369Y-103779000D01*
X136898464Y-103531095D01*
X136898464Y-102970000D01*
X136868894Y-102821341D01*
X136784686Y-102695314D01*
X136658659Y-102611106D01*
X136531000Y-102585713D01*
X136531000Y-102400000D01*
X136482968Y-102158527D01*
X136482968Y-102158526D01*
X136346184Y-101953815D01*
X134987000Y-100594631D01*
X134987000Y-97328416D01*
X134991673Y-97339698D01*
X135170301Y-97518327D01*
X135403690Y-97615000D01*
X135412038Y-97615000D01*
X135381341Y-97621106D01*
X135255314Y-97705314D01*
X135171106Y-97831341D01*
X135141536Y-97980000D01*
X135141536Y-99180000D01*
X135171106Y-99328659D01*
X135255314Y-99454686D01*
X135381341Y-99538894D01*
X135530000Y-99568464D01*
X136430000Y-99568464D01*
X136578659Y-99538894D01*
X136704686Y-99454686D01*
X136788894Y-99328659D01*
X136812298Y-99211000D01*
X138349000Y-99211000D01*
X138349000Y-101603995D01*
X138333388Y-101610446D01*
X138011577Y-101931697D01*
X137837199Y-102351646D01*
X137836802Y-102806359D01*
X138010446Y-103226612D01*
X138331697Y-103548423D01*
X138751646Y-103722801D01*
X139206359Y-103723198D01*
X139626612Y-103549554D01*
X139948423Y-103228303D01*
X140122801Y-102808354D01*
X140123198Y-102353641D01*
X139949554Y-101933388D01*
X139628303Y-101611577D01*
X139611000Y-101604392D01*
X139611000Y-97056005D01*
X139626612Y-97049554D01*
X139948423Y-96728303D01*
X140122801Y-96308354D01*
X140123198Y-95853641D01*
X139949554Y-95433388D01*
X139628303Y-95111577D01*
X139208354Y-94937199D01*
X138753641Y-94936802D01*
X138333388Y-95110446D01*
X138011577Y-95431697D01*
X137837199Y-95851646D01*
X137836802Y-96306359D01*
X138010446Y-96726612D01*
X138331697Y-97048423D01*
X138349000Y-97055608D01*
X138349000Y-97949000D01*
X136812298Y-97949000D01*
X136788894Y-97831341D01*
X136704686Y-97705314D01*
X136578659Y-97621106D01*
X136547962Y-97615000D01*
X136556310Y-97615000D01*
X136789699Y-97518327D01*
X136968327Y-97339698D01*
X137065000Y-97106309D01*
X137065000Y-96665750D01*
X136906250Y-96507000D01*
X136107000Y-96507000D01*
X136107000Y-96527000D01*
X135853000Y-96527000D01*
X135853000Y-96507000D01*
X135833000Y-96507000D01*
X135833000Y-96253000D01*
X135853000Y-96253000D01*
X135853000Y-95303750D01*
X136107000Y-95303750D01*
X136107000Y-96253000D01*
X136906250Y-96253000D01*
X137065000Y-96094250D01*
X137065000Y-95653691D01*
X136968327Y-95420302D01*
X136789699Y-95241673D01*
X136556310Y-95145000D01*
X136265750Y-95145000D01*
X136107000Y-95303750D01*
X135853000Y-95303750D01*
X135694250Y-95145000D01*
X135403690Y-95145000D01*
X135170301Y-95241673D01*
X134991673Y-95420302D01*
X134987000Y-95431584D01*
X134987000Y-93710000D01*
X134977333Y-93661399D01*
X134949803Y-93620197D01*
X134908601Y-93592667D01*
X134860000Y-93583000D01*
X127731000Y-93583000D01*
X127731000Y-77161368D01*
X128361369Y-76531000D01*
X128539242Y-76531000D01*
X128330140Y-76843943D01*
X128235400Y-77320231D01*
X128235400Y-77679769D01*
X128330140Y-78156057D01*
X128599935Y-78559834D01*
X128849000Y-78726254D01*
X128849000Y-79873746D01*
X128599935Y-80040166D01*
X128330140Y-80443943D01*
X128235400Y-80920231D01*
X128235400Y-81279769D01*
X128330140Y-81756057D01*
X128599935Y-82159834D01*
X128849000Y-82326254D01*
X128849000Y-83473746D01*
X128599935Y-83640166D01*
X128330140Y-84043943D01*
X128235400Y-84520231D01*
X128235400Y-84879769D01*
X128330140Y-85356057D01*
X128599935Y-85759834D01*
X128849000Y-85926254D01*
X128849000Y-87073746D01*
X128599935Y-87240166D01*
X128330140Y-87643943D01*
X128235400Y-88120231D01*
X128235400Y-88479769D01*
X128330140Y-88956057D01*
X128599935Y-89359834D01*
X128849000Y-89526254D01*
X128849000Y-90673746D01*
X128599935Y-90840166D01*
X128330140Y-91243943D01*
X128235400Y-91720231D01*
X128235400Y-92079769D01*
X128330140Y-92556057D01*
X128599935Y-92959834D01*
X129003712Y-93229629D01*
X129480000Y-93324369D01*
X129956288Y-93229629D01*
X130360065Y-92959834D01*
X130629860Y-92556057D01*
X130724600Y-92079769D01*
X130724600Y-91720231D01*
X130629860Y-91243943D01*
X130360065Y-90840166D01*
X130111000Y-90673746D01*
X130111000Y-89526254D01*
X130360065Y-89359834D01*
X130629860Y-88956057D01*
X130724600Y-88479769D01*
X130724600Y-88120231D01*
X130629860Y-87643943D01*
X130360065Y-87240166D01*
X130111000Y-87073746D01*
X130111000Y-85926254D01*
X130360065Y-85759834D01*
X130629860Y-85356057D01*
X130724600Y-84879769D01*
X130724600Y-84520231D01*
X130629860Y-84043943D01*
X130360065Y-83640166D01*
X130111000Y-83473746D01*
X130111000Y-82326254D01*
X130360065Y-82159834D01*
X130629860Y-81756057D01*
X130724600Y-81279769D01*
X130724600Y-80920231D01*
X130629860Y-80443943D01*
X130360065Y-80040166D01*
X130111000Y-79873746D01*
X130111000Y-78726254D01*
X130360065Y-78559834D01*
X130629860Y-78156057D01*
X130724600Y-77679769D01*
X130724600Y-77320231D01*
X130775400Y-77320231D01*
X130775400Y-77679769D01*
X130870140Y-78156057D01*
X131139935Y-78559834D01*
X131389000Y-78726254D01*
X131389000Y-79873746D01*
X131139935Y-80040166D01*
X130870140Y-80443943D01*
X130775400Y-80920231D01*
X130775400Y-81279769D01*
X130870140Y-81756057D01*
X131139935Y-82159834D01*
X131389000Y-82326254D01*
X131389000Y-83473746D01*
X131139935Y-83640166D01*
X130870140Y-84043943D01*
X130775400Y-84520231D01*
X130775400Y-84879769D01*
X130870140Y-85356057D01*
X131139935Y-85759834D01*
X131389000Y-85926254D01*
X131389000Y-87073746D01*
X131139935Y-87240166D01*
X130870140Y-87643943D01*
X130775400Y-88120231D01*
X130775400Y-88479769D01*
X130870140Y-88956057D01*
X131139935Y-89359834D01*
X131389000Y-89526254D01*
X131389000Y-90673746D01*
X131139935Y-90840166D01*
X130870140Y-91243943D01*
X130775400Y-91720231D01*
X130775400Y-92079769D01*
X130870140Y-92556057D01*
X131139935Y-92959834D01*
X131543712Y-93229629D01*
X132020000Y-93324369D01*
X132496288Y-93229629D01*
X132900065Y-92959834D01*
X133169860Y-92556057D01*
X133172704Y-92541757D01*
X133268046Y-92814320D01*
X133657964Y-93250732D01*
X134185209Y-93504709D01*
X134200974Y-93507358D01*
X134433000Y-93386217D01*
X134433000Y-92027000D01*
X134413000Y-92027000D01*
X134413000Y-91773000D01*
X134433000Y-91773000D01*
X134433000Y-90413783D01*
X134200974Y-90292642D01*
X134185209Y-90295291D01*
X133657964Y-90549268D01*
X133268046Y-90985680D01*
X133172704Y-91258243D01*
X133169860Y-91243943D01*
X132900065Y-90840166D01*
X132651000Y-90673746D01*
X132651000Y-89526254D01*
X132900065Y-89359834D01*
X133169860Y-88956057D01*
X133172704Y-88941757D01*
X133268046Y-89214320D01*
X133657964Y-89650732D01*
X134185209Y-89904709D01*
X134200974Y-89907358D01*
X134433000Y-89786217D01*
X134433000Y-88427000D01*
X134413000Y-88427000D01*
X134413000Y-88173000D01*
X134433000Y-88173000D01*
X134433000Y-86813783D01*
X134200974Y-86692642D01*
X134185209Y-86695291D01*
X133657964Y-86949268D01*
X133268046Y-87385680D01*
X133172704Y-87658243D01*
X133169860Y-87643943D01*
X132900065Y-87240166D01*
X132651000Y-87073746D01*
X132651000Y-85926254D01*
X132900065Y-85759834D01*
X133169860Y-85356057D01*
X133172704Y-85341757D01*
X133268046Y-85614320D01*
X133657964Y-86050732D01*
X134185209Y-86304709D01*
X134200974Y-86307358D01*
X134433000Y-86186217D01*
X134433000Y-84827000D01*
X134413000Y-84827000D01*
X134413000Y-84573000D01*
X134433000Y-84573000D01*
X134433000Y-83213783D01*
X134200974Y-83092642D01*
X134185209Y-83095291D01*
X133657964Y-83349268D01*
X133268046Y-83785680D01*
X133172704Y-84058243D01*
X133169860Y-84043943D01*
X132900065Y-83640166D01*
X132651000Y-83473746D01*
X132651000Y-82326254D01*
X132900065Y-82159834D01*
X133169860Y-81756057D01*
X133172704Y-81741757D01*
X133268046Y-82014320D01*
X133657964Y-82450732D01*
X134185209Y-82704709D01*
X134200974Y-82707358D01*
X134433000Y-82586217D01*
X134433000Y-81227000D01*
X134413000Y-81227000D01*
X134413000Y-80973000D01*
X134433000Y-80973000D01*
X134433000Y-79613783D01*
X134200974Y-79492642D01*
X134185209Y-79495291D01*
X133657964Y-79749268D01*
X133268046Y-80185680D01*
X133172704Y-80458243D01*
X133169860Y-80443943D01*
X132900065Y-80040166D01*
X132651000Y-79873746D01*
X132651000Y-78726254D01*
X132900065Y-78559834D01*
X133169860Y-78156057D01*
X133172704Y-78141757D01*
X133268046Y-78414320D01*
X133657964Y-78850732D01*
X134185209Y-79104709D01*
X134200974Y-79107358D01*
X134433000Y-78986217D01*
X134433000Y-77627000D01*
X134413000Y-77627000D01*
X134413000Y-77373000D01*
X134433000Y-77373000D01*
X134433000Y-76013783D01*
X134200974Y-75892642D01*
X134185209Y-75895291D01*
X133657964Y-76149268D01*
X133268046Y-76585680D01*
X133172704Y-76858243D01*
X133169860Y-76843943D01*
X132900065Y-76440166D01*
X132496288Y-76170371D01*
X132020000Y-76075631D01*
X131543712Y-76170371D01*
X131139935Y-76440166D01*
X130870140Y-76843943D01*
X130775400Y-77320231D01*
X130724600Y-77320231D01*
X130629860Y-76843943D01*
X130420758Y-76531000D01*
X130700000Y-76531000D01*
X130941473Y-76482968D01*
X131146184Y-76346184D01*
X132216185Y-75276184D01*
X132352968Y-75071473D01*
X132401000Y-74830000D01*
X132401000Y-74440868D01*
X132650065Y-74274448D01*
X132919860Y-73870671D01*
X133014600Y-73394383D01*
X133014600Y-73345617D01*
X133065400Y-73345617D01*
X133065400Y-73394383D01*
X133160140Y-73870671D01*
X133429935Y-74274448D01*
X133833712Y-74544243D01*
X134310000Y-74638983D01*
X134624130Y-74576498D01*
X135763816Y-75716185D01*
X135914745Y-75817032D01*
X135968527Y-75852968D01*
X136210000Y-75901000D01*
X137508632Y-75901000D01*
X137703168Y-76095536D01*
X136236400Y-76095536D01*
X136087741Y-76125106D01*
X135961714Y-76209314D01*
X135877506Y-76335341D01*
X135847936Y-76484000D01*
X135847936Y-76581183D01*
X135462036Y-76149268D01*
X134934791Y-75895291D01*
X134919026Y-75892642D01*
X134687000Y-76013783D01*
X134687000Y-77373000D01*
X134707000Y-77373000D01*
X134707000Y-77627000D01*
X134687000Y-77627000D01*
X134687000Y-78986217D01*
X134919026Y-79107358D01*
X134934791Y-79104709D01*
X135462036Y-78850732D01*
X135847936Y-78418817D01*
X135847936Y-78516000D01*
X135877506Y-78664659D01*
X135961714Y-78790686D01*
X136087741Y-78874894D01*
X136236400Y-78904464D01*
X136469000Y-78904464D01*
X136469000Y-79695536D01*
X136236400Y-79695536D01*
X136087741Y-79725106D01*
X135961714Y-79809314D01*
X135877506Y-79935341D01*
X135847936Y-80084000D01*
X135847936Y-80181183D01*
X135462036Y-79749268D01*
X134934791Y-79495291D01*
X134919026Y-79492642D01*
X134687000Y-79613783D01*
X134687000Y-80973000D01*
X134707000Y-80973000D01*
X134707000Y-81227000D01*
X134687000Y-81227000D01*
X134687000Y-82586217D01*
X134919026Y-82707358D01*
X134934791Y-82704709D01*
X135462036Y-82450732D01*
X135847936Y-82018817D01*
X135847936Y-82116000D01*
X135877506Y-82264659D01*
X135961714Y-82390686D01*
X136087741Y-82474894D01*
X136236400Y-82504464D01*
X136469000Y-82504464D01*
X136469000Y-83295536D01*
X136236400Y-83295536D01*
X136087741Y-83325106D01*
X135961714Y-83409314D01*
X135877506Y-83535341D01*
X135847936Y-83684000D01*
X135847936Y-83781183D01*
X135462036Y-83349268D01*
X134934791Y-83095291D01*
X134919026Y-83092642D01*
X134687000Y-83213783D01*
X134687000Y-84573000D01*
X134707000Y-84573000D01*
X134707000Y-84827000D01*
X134687000Y-84827000D01*
X134687000Y-86186217D01*
X134919026Y-86307358D01*
X134934791Y-86304709D01*
X135462036Y-86050732D01*
X135847936Y-85618817D01*
X135847936Y-85716000D01*
X135877506Y-85864659D01*
X135961714Y-85990686D01*
X136087741Y-86074894D01*
X136236400Y-86104464D01*
X136469000Y-86104464D01*
X136469000Y-86895536D01*
X136236400Y-86895536D01*
X136087741Y-86925106D01*
X135961714Y-87009314D01*
X135877506Y-87135341D01*
X135847936Y-87284000D01*
X135847936Y-87381183D01*
X135462036Y-86949268D01*
X134934791Y-86695291D01*
X134919026Y-86692642D01*
X134687000Y-86813783D01*
X134687000Y-88173000D01*
X134707000Y-88173000D01*
X134707000Y-88427000D01*
X134687000Y-88427000D01*
X134687000Y-89786217D01*
X134919026Y-89907358D01*
X134934791Y-89904709D01*
X135462036Y-89650732D01*
X135847936Y-89218817D01*
X135847936Y-89316000D01*
X135877506Y-89464659D01*
X135961714Y-89590686D01*
X136087741Y-89674894D01*
X136236400Y-89704464D01*
X136469000Y-89704464D01*
X136469000Y-90495536D01*
X136236400Y-90495536D01*
X136087741Y-90525106D01*
X135961714Y-90609314D01*
X135877506Y-90735341D01*
X135847936Y-90884000D01*
X135847936Y-90981183D01*
X135462036Y-90549268D01*
X134934791Y-90295291D01*
X134919026Y-90292642D01*
X134687000Y-90413783D01*
X134687000Y-91773000D01*
X134707000Y-91773000D01*
X134707000Y-92027000D01*
X134687000Y-92027000D01*
X134687000Y-93386217D01*
X134919026Y-93507358D01*
X134934791Y-93504709D01*
X135462036Y-93250732D01*
X135847936Y-92818817D01*
X135847936Y-92916000D01*
X135877506Y-93064659D01*
X135961714Y-93190686D01*
X136087741Y-93274894D01*
X136236400Y-93304464D01*
X137963600Y-93304464D01*
X138112259Y-93274894D01*
X138238286Y-93190686D01*
X138322494Y-93064659D01*
X138352064Y-92916000D01*
X138352064Y-90884000D01*
X138322494Y-90735341D01*
X138238286Y-90609314D01*
X138112259Y-90525106D01*
X137963600Y-90495536D01*
X137731000Y-90495536D01*
X137731000Y-89704464D01*
X137963600Y-89704464D01*
X138112259Y-89674894D01*
X138238286Y-89590686D01*
X138322494Y-89464659D01*
X138352064Y-89316000D01*
X138352064Y-87284000D01*
X138322494Y-87135341D01*
X138238286Y-87009314D01*
X138112259Y-86925106D01*
X137963600Y-86895536D01*
X137731000Y-86895536D01*
X137731000Y-86104464D01*
X137963600Y-86104464D01*
X138112259Y-86074894D01*
X138238286Y-85990686D01*
X138322494Y-85864659D01*
X138352064Y-85716000D01*
X138352064Y-83684000D01*
X138322494Y-83535341D01*
X138238286Y-83409314D01*
X138112259Y-83325106D01*
X137963600Y-83295536D01*
X137731000Y-83295536D01*
X137731000Y-82504464D01*
X137963600Y-82504464D01*
X138112259Y-82474894D01*
X138238286Y-82390686D01*
X138322494Y-82264659D01*
X138352064Y-82116000D01*
X138352064Y-80084000D01*
X138322494Y-79935341D01*
X138238286Y-79809314D01*
X138112259Y-79725106D01*
X137963600Y-79695536D01*
X137731000Y-79695536D01*
X137731000Y-78904464D01*
X137963600Y-78904464D01*
X138112259Y-78874894D01*
X138238286Y-78790686D01*
X138322494Y-78664659D01*
X138352064Y-78516000D01*
X138352064Y-76744433D01*
X138479000Y-76871369D01*
X138479000Y-93700000D01*
X138487716Y-93743816D01*
X138527032Y-93941473D01*
X138663816Y-94146184D01*
X141063816Y-96546185D01*
X141268527Y-96682968D01*
X141510000Y-96731000D01*
X142514826Y-96731000D01*
X142831697Y-97048423D01*
X142849000Y-97055608D01*
X142849000Y-101603995D01*
X142833388Y-101610446D01*
X142511577Y-101931697D01*
X142337199Y-102351646D01*
X142336802Y-102806359D01*
X142510446Y-103226612D01*
X142831697Y-103548423D01*
X143251646Y-103722801D01*
X143706359Y-103723198D01*
X144126612Y-103549554D01*
X144448423Y-103228303D01*
X144622801Y-102808354D01*
X144623198Y-102353641D01*
X144449554Y-101933388D01*
X144128303Y-101611577D01*
X144111000Y-101604392D01*
X144111000Y-97056005D01*
X144126612Y-97049554D01*
X144448423Y-96728303D01*
X144622801Y-96308354D01*
X144623198Y-95853641D01*
X144449554Y-95433388D01*
X144128303Y-95111577D01*
X143708354Y-94937199D01*
X143253641Y-94936802D01*
X142833388Y-95110446D01*
X142511577Y-95431697D01*
X142496087Y-95469000D01*
X142118918Y-95469000D01*
X142155966Y-95453692D01*
X142382895Y-95227158D01*
X142505859Y-94931027D01*
X142506139Y-94610380D01*
X142383692Y-94314034D01*
X142331000Y-94261250D01*
X142331000Y-93602179D01*
X142374736Y-93572956D01*
X142458944Y-93446929D01*
X142488514Y-93298270D01*
X142488514Y-92498170D01*
X142458944Y-92349511D01*
X142374736Y-92223484D01*
X142248709Y-92139276D01*
X142100050Y-92109706D01*
X141299950Y-92109706D01*
X141151291Y-92139276D01*
X141025264Y-92223484D01*
X140941056Y-92349511D01*
X140911486Y-92498170D01*
X140911486Y-93298270D01*
X140941056Y-93446929D01*
X141025264Y-93572956D01*
X141069000Y-93602179D01*
X141069000Y-94261037D01*
X141017105Y-94312842D01*
X140899188Y-94596819D01*
X139741000Y-93438632D01*
X139741000Y-91488490D01*
X139811623Y-91658989D01*
X139990252Y-91837617D01*
X140223641Y-91934290D01*
X140464250Y-91934290D01*
X140623000Y-91775540D01*
X140623000Y-91026240D01*
X140877000Y-91026240D01*
X140877000Y-91775540D01*
X141035750Y-91934290D01*
X141276359Y-91934290D01*
X141509748Y-91837617D01*
X141688377Y-91658989D01*
X141785050Y-91425600D01*
X141785050Y-91184990D01*
X141626300Y-91026240D01*
X140877000Y-91026240D01*
X140623000Y-91026240D01*
X140603000Y-91026240D01*
X140603000Y-90772240D01*
X140623000Y-90772240D01*
X140623000Y-90022940D01*
X140877000Y-90022940D01*
X140877000Y-90772240D01*
X141626300Y-90772240D01*
X141785050Y-90613490D01*
X141785050Y-90372880D01*
X141688377Y-90139491D01*
X141509748Y-89960863D01*
X141276359Y-89864190D01*
X141035750Y-89864190D01*
X140877000Y-90022940D01*
X140623000Y-90022940D01*
X140464250Y-89864190D01*
X140223641Y-89864190D01*
X139990252Y-89960863D01*
X139811623Y-90139491D01*
X139741000Y-90309990D01*
X139741000Y-85873691D01*
X139815000Y-85873691D01*
X139815000Y-86314250D01*
X139973750Y-86473000D01*
X140773000Y-86473000D01*
X140773000Y-85523750D01*
X140614250Y-85365000D01*
X140323690Y-85365000D01*
X140090301Y-85461673D01*
X139911673Y-85640302D01*
X139815000Y-85873691D01*
X139741000Y-85873691D01*
X139741000Y-76610000D01*
X139692968Y-76368527D01*
X139692968Y-76368526D01*
X139556184Y-76163815D01*
X138216184Y-74823816D01*
X138011473Y-74687032D01*
X137770000Y-74639000D01*
X137639943Y-74639000D01*
X138056821Y-74258490D01*
X138239676Y-73868338D01*
X138240140Y-73870671D01*
X138509935Y-74274448D01*
X138759000Y-74440868D01*
X138759000Y-74800000D01*
X138792801Y-74969928D01*
X138807032Y-75041473D01*
X138943816Y-75246184D01*
X140159000Y-76461368D01*
X140159000Y-77811037D01*
X140107105Y-77862842D01*
X139984141Y-78158973D01*
X139983861Y-78479620D01*
X140106308Y-78775966D01*
X140332842Y-79002895D01*
X140628973Y-79125859D01*
X140949620Y-79126139D01*
X141245966Y-79003692D01*
X141299000Y-78950750D01*
X141299000Y-79130000D01*
X141330826Y-79290000D01*
X141347032Y-79371473D01*
X141483816Y-79576184D01*
X141969000Y-80061368D01*
X141969000Y-85662715D01*
X141913086Y-85700076D01*
X141888327Y-85640302D01*
X141709699Y-85461673D01*
X141476310Y-85365000D01*
X141185750Y-85365000D01*
X141027000Y-85523750D01*
X141027000Y-86473000D01*
X141047000Y-86473000D01*
X141047000Y-86727000D01*
X141027000Y-86727000D01*
X141027000Y-86747000D01*
X140773000Y-86747000D01*
X140773000Y-86727000D01*
X139973750Y-86727000D01*
X139815000Y-86885750D01*
X139815000Y-87326309D01*
X139911673Y-87559698D01*
X140090301Y-87738327D01*
X140323690Y-87835000D01*
X140332038Y-87835000D01*
X140301341Y-87841106D01*
X140175314Y-87925314D01*
X140091106Y-88051341D01*
X140061536Y-88200000D01*
X140061536Y-89400000D01*
X140091106Y-89548659D01*
X140175314Y-89674686D01*
X140301341Y-89758894D01*
X140450000Y-89788464D01*
X141350000Y-89788464D01*
X141498659Y-89758894D01*
X141624686Y-89674686D01*
X141708894Y-89548659D01*
X141732298Y-89431000D01*
X141767702Y-89431000D01*
X141791106Y-89548659D01*
X141875314Y-89674686D01*
X142001341Y-89758894D01*
X142019000Y-89762407D01*
X142019000Y-90195281D01*
X141975264Y-90224504D01*
X141891056Y-90350531D01*
X141861486Y-90499190D01*
X141861486Y-91299290D01*
X141891056Y-91447949D01*
X141975264Y-91573976D01*
X142101291Y-91658184D01*
X142249950Y-91687754D01*
X143050050Y-91687754D01*
X143198709Y-91658184D01*
X143286885Y-91599267D01*
X143311623Y-91658989D01*
X143490252Y-91837617D01*
X143723641Y-91934290D01*
X143964250Y-91934290D01*
X144123000Y-91775540D01*
X144123000Y-91026240D01*
X144377000Y-91026240D01*
X144377000Y-91775540D01*
X144535750Y-91934290D01*
X144776359Y-91934290D01*
X145009748Y-91837617D01*
X145188377Y-91658989D01*
X145285050Y-91425600D01*
X145285050Y-91184990D01*
X145126300Y-91026240D01*
X144377000Y-91026240D01*
X144123000Y-91026240D01*
X144103000Y-91026240D01*
X144103000Y-90772240D01*
X144123000Y-90772240D01*
X144123000Y-90022940D01*
X144377000Y-90022940D01*
X144377000Y-90772240D01*
X145126300Y-90772240D01*
X145285050Y-90613490D01*
X145285050Y-90372880D01*
X145188377Y-90139491D01*
X145009748Y-89960863D01*
X144776359Y-89864190D01*
X144535750Y-89864190D01*
X144377000Y-90022940D01*
X144123000Y-90022940D01*
X143964250Y-89864190D01*
X143723641Y-89864190D01*
X143490252Y-89960863D01*
X143311623Y-90139491D01*
X143286885Y-90199213D01*
X143281000Y-90195281D01*
X143281000Y-89703876D01*
X143324686Y-89674686D01*
X143408894Y-89548659D01*
X143438464Y-89400000D01*
X143438464Y-88200000D01*
X143408894Y-88051341D01*
X143324686Y-87925314D01*
X143198659Y-87841106D01*
X143050000Y-87811536D01*
X142150000Y-87811536D01*
X142001341Y-87841106D01*
X141875314Y-87925314D01*
X141791106Y-88051341D01*
X141767702Y-88169000D01*
X141732298Y-88169000D01*
X141708894Y-88051341D01*
X141624686Y-87925314D01*
X141498659Y-87841106D01*
X141467962Y-87835000D01*
X141476310Y-87835000D01*
X141709699Y-87738327D01*
X141888327Y-87559698D01*
X141913086Y-87499924D01*
X142001341Y-87558894D01*
X142150000Y-87588464D01*
X143050000Y-87588464D01*
X143198659Y-87558894D01*
X143324686Y-87474686D01*
X143408894Y-87348659D01*
X143438464Y-87200000D01*
X143438464Y-86000000D01*
X143408894Y-85851341D01*
X143324686Y-85725314D01*
X143231000Y-85662715D01*
X143231000Y-79800000D01*
X143182968Y-79558527D01*
X143046184Y-79353816D01*
X142561000Y-78868632D01*
X142561000Y-74440868D01*
X142810065Y-74274448D01*
X143079860Y-73870671D01*
X143174600Y-73394383D01*
X143174600Y-73345617D01*
X143225400Y-73345617D01*
X143225400Y-73394383D01*
X143320140Y-73870671D01*
X143589935Y-74274448D01*
X143839000Y-74440868D01*
X143839000Y-79270000D01*
X143878192Y-79467032D01*
X143887032Y-79511473D01*
X144023816Y-79716184D01*
X145369000Y-81061369D01*
X145369000Y-85662715D01*
X145275314Y-85725314D01*
X145191106Y-85851341D01*
X145161536Y-86000000D01*
X145161536Y-87200000D01*
X145191106Y-87348659D01*
X145275314Y-87474686D01*
X145401341Y-87558894D01*
X145550000Y-87588464D01*
X146450000Y-87588464D01*
X146598659Y-87558894D01*
X146724686Y-87474686D01*
X146808894Y-87348659D01*
X146838464Y-87200000D01*
X146838464Y-86000000D01*
X146808894Y-85851341D01*
X146724686Y-85725314D01*
X146631000Y-85662715D01*
X146631000Y-80800000D01*
X146582968Y-80558527D01*
X146523148Y-80469000D01*
X146446185Y-80353816D01*
X145101000Y-79008632D01*
X145101000Y-74440868D01*
X145350065Y-74274448D01*
X145619860Y-73870671D01*
X145714600Y-73394383D01*
X145714600Y-73345617D01*
X145619860Y-72869329D01*
X145350065Y-72465552D01*
X144946288Y-72195757D01*
X144470000Y-72101017D01*
X143993712Y-72195757D01*
X143589935Y-72465552D01*
X143320140Y-72869329D01*
X143225400Y-73345617D01*
X143174600Y-73345617D01*
X143079860Y-72869329D01*
X142810065Y-72465552D01*
X142443828Y-72220841D01*
X142704947Y-72112688D01*
X143136821Y-71718490D01*
X143319676Y-71328338D01*
X143320140Y-71330671D01*
X143589935Y-71734448D01*
X143993712Y-72004243D01*
X144470000Y-72098983D01*
X144946288Y-72004243D01*
X145350065Y-71734448D01*
X145619860Y-71330671D01*
X145620324Y-71328338D01*
X145803179Y-71718490D01*
X146235053Y-72112688D01*
X146496172Y-72220841D01*
X146129935Y-72465552D01*
X145860140Y-72869329D01*
X145765400Y-73345617D01*
X145765400Y-73394383D01*
X145860140Y-73870671D01*
X146129935Y-74274448D01*
X146379000Y-74440868D01*
X146379000Y-76410000D01*
X146418783Y-76610000D01*
X146427032Y-76651473D01*
X146563816Y-76856184D01*
X146899000Y-77191368D01*
X146899000Y-90335649D01*
X146824736Y-90224504D01*
X146781000Y-90195281D01*
X146781000Y-89590406D01*
X146808894Y-89548659D01*
X146838464Y-89400000D01*
X146838464Y-88200000D01*
X146808894Y-88051341D01*
X146724686Y-87925314D01*
X146598659Y-87841106D01*
X146450000Y-87811536D01*
X145550000Y-87811536D01*
X145401341Y-87841106D01*
X145275314Y-87925314D01*
X145191106Y-88051341D01*
X145161536Y-88200000D01*
X145161536Y-89400000D01*
X145191106Y-89548659D01*
X145275314Y-89674686D01*
X145401341Y-89758894D01*
X145519000Y-89782298D01*
X145519000Y-90195281D01*
X145475264Y-90224504D01*
X145391056Y-90350531D01*
X145361486Y-90499190D01*
X145361486Y-91299290D01*
X145391056Y-91447949D01*
X145475264Y-91573976D01*
X145601291Y-91658184D01*
X145749950Y-91687754D01*
X146550050Y-91687754D01*
X146698709Y-91658184D01*
X146824736Y-91573976D01*
X146899000Y-91462831D01*
X146899000Y-94876715D01*
X146805314Y-94939314D01*
X146721106Y-95065341D01*
X146691536Y-95214000D01*
X146691536Y-96414000D01*
X146721106Y-96562659D01*
X146805314Y-96688686D01*
X146931341Y-96772894D01*
X147080000Y-96802464D01*
X147980000Y-96802464D01*
X148128659Y-96772894D01*
X148254686Y-96688686D01*
X148338894Y-96562659D01*
X148368464Y-96414000D01*
X148368464Y-95214000D01*
X148338894Y-95065341D01*
X148254686Y-94939314D01*
X148161000Y-94876715D01*
X148161000Y-92654223D01*
X148620959Y-92871914D01*
X148843000Y-92750629D01*
X148843000Y-91607000D01*
X148823000Y-91607000D01*
X148823000Y-91353000D01*
X148843000Y-91353000D01*
X148843000Y-89067000D01*
X148823000Y-89067000D01*
X148823000Y-88813000D01*
X148843000Y-88813000D01*
X148843000Y-86527000D01*
X148823000Y-86527000D01*
X148823000Y-86273000D01*
X148843000Y-86273000D01*
X148843000Y-83987000D01*
X148823000Y-83987000D01*
X148823000Y-83733000D01*
X148843000Y-83733000D01*
X148843000Y-82589371D01*
X148620959Y-82468086D01*
X148161000Y-82685777D01*
X148161000Y-76930000D01*
X148112968Y-76688527D01*
X147976184Y-76483816D01*
X147641000Y-76148632D01*
X147641000Y-74440868D01*
X147890065Y-74274448D01*
X148159860Y-73870671D01*
X148254600Y-73394383D01*
X148254600Y-73345617D01*
X148305400Y-73345617D01*
X148305400Y-73394383D01*
X148400140Y-73870671D01*
X148669935Y-74274448D01*
X148919000Y-74440868D01*
X148919000Y-76550000D01*
X148962960Y-76771000D01*
X148967032Y-76791473D01*
X149103816Y-76996184D01*
X150269000Y-78161369D01*
X150269000Y-83286656D01*
X150201041Y-83122577D01*
X149825134Y-82707611D01*
X149319041Y-82468086D01*
X149097000Y-82589371D01*
X149097000Y-83733000D01*
X149117000Y-83733000D01*
X149117000Y-83987000D01*
X149097000Y-83987000D01*
X149097000Y-86273000D01*
X149117000Y-86273000D01*
X149117000Y-86527000D01*
X149097000Y-86527000D01*
X149097000Y-88813000D01*
X149117000Y-88813000D01*
X149117000Y-89067000D01*
X149097000Y-89067000D01*
X149097000Y-91353000D01*
X149117000Y-91353000D01*
X149117000Y-91607000D01*
X149097000Y-91607000D01*
X149097000Y-92750629D01*
X149319041Y-92871914D01*
X149825134Y-92632389D01*
X150201041Y-92217423D01*
X150269000Y-92053344D01*
X150269000Y-92738632D01*
X148861816Y-94145816D01*
X148725032Y-94350527D01*
X148677000Y-94592000D01*
X148677000Y-94876715D01*
X148583314Y-94939314D01*
X148499106Y-95065341D01*
X148469536Y-95214000D01*
X148469536Y-96414000D01*
X148499106Y-96562659D01*
X148583314Y-96688686D01*
X148709341Y-96772894D01*
X148858000Y-96802464D01*
X149758000Y-96802464D01*
X149902657Y-96773690D01*
X152112500Y-96773690D01*
X152112500Y-97114250D01*
X152271250Y-97273000D01*
X153573000Y-97273000D01*
X153573000Y-97253000D01*
X153827000Y-97253000D01*
X153827000Y-97273000D01*
X155128750Y-97273000D01*
X155287500Y-97114250D01*
X155287500Y-96773690D01*
X155269817Y-96731000D01*
X155438632Y-96731000D01*
X155609000Y-96901369D01*
X155609000Y-100770000D01*
X155638247Y-100917032D01*
X155657032Y-101011473D01*
X155793816Y-101216184D01*
X156716517Y-102138886D01*
X156717032Y-102141473D01*
X156811536Y-102282908D01*
X156811536Y-102350000D01*
X156841106Y-102498659D01*
X156925314Y-102624686D01*
X157051341Y-102708894D01*
X157200000Y-102738464D01*
X158400000Y-102738464D01*
X158548659Y-102708894D01*
X158674686Y-102624686D01*
X158758894Y-102498659D01*
X158788464Y-102350000D01*
X158788464Y-101450000D01*
X158758894Y-101301341D01*
X158674686Y-101175314D01*
X158548659Y-101091106D01*
X158400000Y-101061536D01*
X157423905Y-101061536D01*
X156871000Y-100508632D01*
X156871000Y-99422944D01*
X157194025Y-99422944D01*
X157393615Y-99904818D01*
X157831621Y-100377188D01*
X158417054Y-100645983D01*
X158673000Y-100527367D01*
X158673000Y-99167000D01*
X157313164Y-99167000D01*
X157194025Y-99422944D01*
X156871000Y-99422944D01*
X156871000Y-96640000D01*
X156822968Y-96398527D01*
X156822968Y-96398526D01*
X156686184Y-96193815D01*
X156146184Y-95653816D01*
X155941473Y-95517032D01*
X155700000Y-95469000D01*
X154789555Y-95469000D01*
X154515769Y-95286062D01*
X154178625Y-95219000D01*
X153221375Y-95219000D01*
X152884231Y-95286062D01*
X152598414Y-95477039D01*
X152407437Y-95762856D01*
X152340375Y-96100000D01*
X152392073Y-96359904D01*
X152387802Y-96361673D01*
X152209173Y-96540301D01*
X152112500Y-96773690D01*
X149902657Y-96773690D01*
X149906659Y-96772894D01*
X150032686Y-96688686D01*
X150116894Y-96562659D01*
X150146464Y-96414000D01*
X150146464Y-95214000D01*
X150116894Y-95065341D01*
X150032686Y-94939314D01*
X149939000Y-94876715D01*
X149939000Y-94853368D01*
X151346184Y-93446184D01*
X151482968Y-93241473D01*
X151506881Y-93121252D01*
X151531000Y-93000000D01*
X151531000Y-78509620D01*
X151613861Y-78509620D01*
X151736308Y-78805966D01*
X151789000Y-78858750D01*
X151789000Y-87260000D01*
X151819273Y-87412193D01*
X151837032Y-87501473D01*
X151973816Y-87706184D01*
X155445884Y-91178253D01*
X155385863Y-91480000D01*
X155475761Y-91931949D01*
X155731770Y-92315093D01*
X156114914Y-92571102D01*
X156566863Y-92661000D01*
X156613137Y-92661000D01*
X157065086Y-92571102D01*
X157448230Y-92315093D01*
X157704239Y-91931949D01*
X157794137Y-91480000D01*
X157704239Y-91028051D01*
X157448230Y-90644907D01*
X157065086Y-90388898D01*
X156613137Y-90299000D01*
X156566863Y-90299000D01*
X156387122Y-90334753D01*
X156020154Y-89967785D01*
X156114914Y-90031102D01*
X156566863Y-90121000D01*
X156613137Y-90121000D01*
X157065086Y-90031102D01*
X157448230Y-89775093D01*
X157704239Y-89391949D01*
X157794137Y-88940000D01*
X157704239Y-88488051D01*
X157448230Y-88104907D01*
X157065086Y-87848898D01*
X156613137Y-87759000D01*
X156566863Y-87759000D01*
X156114914Y-87848898D01*
X155890929Y-87998561D01*
X155031000Y-87138632D01*
X155031000Y-83860000D01*
X155385863Y-83860000D01*
X155475761Y-84311949D01*
X155731770Y-84695093D01*
X156114914Y-84951102D01*
X156566863Y-85041000D01*
X156613137Y-85041000D01*
X157065086Y-84951102D01*
X157448230Y-84695093D01*
X157584601Y-84491000D01*
X157987702Y-84491000D01*
X158011106Y-84608659D01*
X158095314Y-84734686D01*
X158221341Y-84818894D01*
X158370000Y-84848464D01*
X159270000Y-84848464D01*
X159418659Y-84818894D01*
X159544686Y-84734686D01*
X159628894Y-84608659D01*
X159658464Y-84460000D01*
X159658464Y-83260000D01*
X159628894Y-83111341D01*
X159544686Y-82985314D01*
X159418659Y-82901106D01*
X159270000Y-82871536D01*
X158370000Y-82871536D01*
X158221341Y-82901106D01*
X158095314Y-82985314D01*
X158011106Y-83111341D01*
X157987702Y-83229000D01*
X157584601Y-83229000D01*
X157448230Y-83024907D01*
X157221000Y-82873077D01*
X157221000Y-80934287D01*
X157348659Y-80908894D01*
X157474686Y-80824686D01*
X157558894Y-80698659D01*
X157562407Y-80681000D01*
X157992702Y-80681000D01*
X158016106Y-80798659D01*
X158100314Y-80924686D01*
X158226341Y-81008894D01*
X158375000Y-81038464D01*
X159125000Y-81038464D01*
X159273659Y-81008894D01*
X159399686Y-80924686D01*
X159483894Y-80798659D01*
X159513464Y-80650000D01*
X159513464Y-79450000D01*
X159483894Y-79301341D01*
X159477258Y-79291409D01*
X159484699Y-79288327D01*
X159663327Y-79109698D01*
X159760000Y-78876309D01*
X159760000Y-78435750D01*
X159601250Y-78277000D01*
X158877000Y-78277000D01*
X158877000Y-78297000D01*
X158623000Y-78297000D01*
X158623000Y-78277000D01*
X157898750Y-78277000D01*
X157740000Y-78435750D01*
X157740000Y-78876309D01*
X157836673Y-79109698D01*
X158015301Y-79288327D01*
X158022742Y-79291409D01*
X158016106Y-79301341D01*
X157992702Y-79419000D01*
X157503876Y-79419000D01*
X157474686Y-79375314D01*
X157348659Y-79291106D01*
X157231000Y-79267702D01*
X157231000Y-79182298D01*
X157348659Y-79158894D01*
X157474686Y-79074686D01*
X157558894Y-78948659D01*
X157588464Y-78800000D01*
X157588464Y-77900000D01*
X157558894Y-77751341D01*
X157474686Y-77625314D01*
X157348659Y-77541106D01*
X157200000Y-77511536D01*
X156000000Y-77511536D01*
X155851341Y-77541106D01*
X155725314Y-77625314D01*
X155641106Y-77751341D01*
X155611536Y-77900000D01*
X155611536Y-78800000D01*
X155641106Y-78948659D01*
X155725314Y-79074686D01*
X155851341Y-79158894D01*
X155969000Y-79182298D01*
X155969000Y-79267702D01*
X155851341Y-79291106D01*
X155725314Y-79375314D01*
X155641106Y-79501341D01*
X155611536Y-79650000D01*
X155611536Y-80550000D01*
X155641106Y-80698659D01*
X155725314Y-80824686D01*
X155851341Y-80908894D01*
X155959000Y-80930309D01*
X155959000Y-82873077D01*
X155731770Y-83024907D01*
X155475761Y-83408051D01*
X155385863Y-83860000D01*
X155031000Y-83860000D01*
X155031000Y-80932298D01*
X155148659Y-80908894D01*
X155274686Y-80824686D01*
X155358894Y-80698659D01*
X155388464Y-80550000D01*
X155388464Y-79650000D01*
X155358894Y-79501341D01*
X155274686Y-79375314D01*
X155148659Y-79291106D01*
X155000000Y-79261536D01*
X153800000Y-79261536D01*
X153651341Y-79291106D01*
X153525314Y-79375314D01*
X153441106Y-79501341D01*
X153411536Y-79650000D01*
X153411536Y-80550000D01*
X153441106Y-80698659D01*
X153525314Y-80824686D01*
X153651341Y-80908894D01*
X153769000Y-80932298D01*
X153769000Y-87400000D01*
X153803691Y-87574401D01*
X153817032Y-87641473D01*
X153953816Y-87846184D01*
X155469846Y-89362214D01*
X155475761Y-89391949D01*
X155539078Y-89486709D01*
X153051000Y-86998632D01*
X153051000Y-78981000D01*
X153462715Y-78981000D01*
X153525314Y-79074686D01*
X153651341Y-79158894D01*
X153800000Y-79188464D01*
X155000000Y-79188464D01*
X155148659Y-79158894D01*
X155274686Y-79074686D01*
X155358894Y-78948659D01*
X155388464Y-78800000D01*
X155388464Y-77900000D01*
X155358894Y-77751341D01*
X155274686Y-77625314D01*
X155148659Y-77541106D01*
X155000000Y-77511536D01*
X153800000Y-77511536D01*
X153651341Y-77541106D01*
X153525314Y-77625314D01*
X153462715Y-77719000D01*
X152928963Y-77719000D01*
X152877158Y-77667105D01*
X152581027Y-77544141D01*
X152260380Y-77543861D01*
X151964034Y-77666308D01*
X151737105Y-77892842D01*
X151614141Y-78188973D01*
X151613861Y-78509620D01*
X151531000Y-78509620D01*
X151531000Y-77900000D01*
X151482968Y-77658527D01*
X151482968Y-77658526D01*
X151346184Y-77453815D01*
X150181000Y-76288632D01*
X150181000Y-74440868D01*
X150430065Y-74274448D01*
X150699860Y-73870671D01*
X150794600Y-73394383D01*
X150794600Y-73345617D01*
X150699860Y-72869329D01*
X150430065Y-72465552D01*
X150026288Y-72195757D01*
X149550000Y-72101017D01*
X149073712Y-72195757D01*
X148669935Y-72465552D01*
X148400140Y-72869329D01*
X148305400Y-73345617D01*
X148254600Y-73345617D01*
X148159860Y-72869329D01*
X147890065Y-72465552D01*
X147523828Y-72220841D01*
X147784947Y-72112688D01*
X148216821Y-71718490D01*
X148399676Y-71328338D01*
X148400140Y-71330671D01*
X148669935Y-71734448D01*
X149073712Y-72004243D01*
X149550000Y-72098983D01*
X150026288Y-72004243D01*
X150430065Y-71734448D01*
X150699860Y-71330671D01*
X150794600Y-70854383D01*
X150794600Y-70805617D01*
X150845400Y-70805617D01*
X150845400Y-70854383D01*
X150940140Y-71330671D01*
X151209935Y-71734448D01*
X151613712Y-72004243D01*
X152090000Y-72098983D01*
X152566288Y-72004243D01*
X152970065Y-71734448D01*
X153239860Y-71330671D01*
X153334600Y-70854383D01*
X153334600Y-70805617D01*
X153239860Y-70329329D01*
X152970065Y-69925552D01*
X152566288Y-69655757D01*
X152090000Y-69561017D01*
X151613712Y-69655757D01*
X151209935Y-69925552D01*
X150940140Y-70329329D01*
X150845400Y-70805617D01*
X150794600Y-70805617D01*
X150699860Y-70329329D01*
X150430065Y-69925552D01*
X150026288Y-69655757D01*
X149550000Y-69561017D01*
X149073712Y-69655757D01*
X148669935Y-69925552D01*
X148400140Y-70329329D01*
X148399676Y-70331662D01*
X148216821Y-69941510D01*
X147784947Y-69547312D01*
X147369026Y-69375042D01*
X147137000Y-69496183D01*
X147137000Y-70703000D01*
X147157000Y-70703000D01*
X147157000Y-70957000D01*
X147137000Y-70957000D01*
X147137000Y-70977000D01*
X146883000Y-70977000D01*
X146883000Y-70957000D01*
X146863000Y-70957000D01*
X146863000Y-70703000D01*
X146883000Y-70703000D01*
X146883000Y-69496183D01*
X146650974Y-69375042D01*
X146235053Y-69547312D01*
X145803179Y-69941510D01*
X145620324Y-70331662D01*
X145619860Y-70329329D01*
X145350065Y-69925552D01*
X144946288Y-69655757D01*
X144470000Y-69561017D01*
X143993712Y-69655757D01*
X143589935Y-69925552D01*
X143320140Y-70329329D01*
X143319676Y-70331662D01*
X143136821Y-69941510D01*
X142704947Y-69547312D01*
X142289026Y-69375042D01*
X142057000Y-69496183D01*
X142057000Y-70703000D01*
X142077000Y-70703000D01*
X142077000Y-70957000D01*
X142057000Y-70957000D01*
X142057000Y-70977000D01*
X141803000Y-70977000D01*
X141803000Y-70957000D01*
X141783000Y-70957000D01*
X141783000Y-70703000D01*
X141803000Y-70703000D01*
X141803000Y-69496183D01*
X141570974Y-69375042D01*
X141155053Y-69547312D01*
X140723179Y-69941510D01*
X140540324Y-70331662D01*
X140539860Y-70329329D01*
X140270065Y-69925552D01*
X139866288Y-69655757D01*
X139390000Y-69561017D01*
X138913712Y-69655757D01*
X138509935Y-69925552D01*
X138240140Y-70329329D01*
X138145400Y-70805617D01*
X138145400Y-70854383D01*
X138240140Y-71330671D01*
X138509935Y-71734448D01*
X138913712Y-72004243D01*
X139390000Y-72098983D01*
X139866288Y-72004243D01*
X140270065Y-71734448D01*
X140539860Y-71330671D01*
X140540324Y-71328338D01*
X140723179Y-71718490D01*
X141155053Y-72112688D01*
X141416172Y-72220841D01*
X141049935Y-72465552D01*
X140780140Y-72869329D01*
X140685400Y-73345617D01*
X140685400Y-73394383D01*
X140780140Y-73870671D01*
X141049935Y-74274448D01*
X141299000Y-74440868D01*
X141299000Y-75847826D01*
X141236184Y-75753816D01*
X140021000Y-74538632D01*
X140021000Y-74440868D01*
X140270065Y-74274448D01*
X140539860Y-73870671D01*
X140634600Y-73394383D01*
X140634600Y-73345617D01*
X140539860Y-72869329D01*
X140270065Y-72465552D01*
X139866288Y-72195757D01*
X139390000Y-72101017D01*
X138913712Y-72195757D01*
X138509935Y-72465552D01*
X138240140Y-72869329D01*
X138239676Y-72871662D01*
X138056821Y-72481510D01*
X137624947Y-72087312D01*
X137363828Y-71979159D01*
X137730065Y-71734448D01*
X137999860Y-71330671D01*
X138094600Y-70854383D01*
X138094600Y-70805617D01*
X137999860Y-70329329D01*
X137730065Y-69925552D01*
X137326288Y-69655757D01*
X136850000Y-69561017D01*
X136373712Y-69655757D01*
X135969935Y-69925552D01*
X135700140Y-70329329D01*
X135605400Y-70805617D01*
X135605400Y-70854383D01*
X135700140Y-71330671D01*
X135969935Y-71734448D01*
X136336172Y-71979159D01*
X136075053Y-72087312D01*
X135643179Y-72481510D01*
X135460324Y-72871662D01*
X135459860Y-72869329D01*
X135190065Y-72465552D01*
X134786288Y-72195757D01*
X134310000Y-72101017D01*
X133833712Y-72195757D01*
X133429935Y-72465552D01*
X133160140Y-72869329D01*
X133065400Y-73345617D01*
X133014600Y-73345617D01*
X132919860Y-72869329D01*
X132650065Y-72465552D01*
X132246288Y-72195757D01*
X131770000Y-72101017D01*
X131293712Y-72195757D01*
X130889935Y-72465552D01*
X130620140Y-72869329D01*
X130525400Y-73345617D01*
X130525400Y-73394383D01*
X130620140Y-73870671D01*
X130889935Y-74274448D01*
X131139000Y-74440868D01*
X131139000Y-74568631D01*
X130438632Y-75269000D01*
X128523369Y-75269000D01*
X129166097Y-74626272D01*
X129230000Y-74638983D01*
X129706288Y-74544243D01*
X130110065Y-74274448D01*
X130379860Y-73870671D01*
X130474600Y-73394383D01*
X130474600Y-73345617D01*
X130379860Y-72869329D01*
X130110065Y-72465552D01*
X129743828Y-72220841D01*
X130004947Y-72112688D01*
X130436821Y-71718490D01*
X130619676Y-71328338D01*
X130620140Y-71330671D01*
X130889935Y-71734448D01*
X131293712Y-72004243D01*
X131770000Y-72098983D01*
X132246288Y-72004243D01*
X132650065Y-71734448D01*
X132919860Y-71330671D01*
X133014600Y-70854383D01*
X133014600Y-70805617D01*
X133065400Y-70805617D01*
X133065400Y-70854383D01*
X133160140Y-71330671D01*
X133429935Y-71734448D01*
X133833712Y-72004243D01*
X134310000Y-72098983D01*
X134786288Y-72004243D01*
X135190065Y-71734448D01*
X135459860Y-71330671D01*
X135554600Y-70854383D01*
X135554600Y-70805617D01*
X135459860Y-70329329D01*
X135190065Y-69925552D01*
X134786288Y-69655757D01*
X134310000Y-69561017D01*
X133833712Y-69655757D01*
X133429935Y-69925552D01*
X133160140Y-70329329D01*
X133065400Y-70805617D01*
X133014600Y-70805617D01*
X132919860Y-70329329D01*
X132650065Y-69925552D01*
X132246288Y-69655757D01*
X131770000Y-69561017D01*
X131293712Y-69655757D01*
X130889935Y-69925552D01*
X130620140Y-70329329D01*
X130619676Y-70331662D01*
X130436821Y-69941510D01*
X130004947Y-69547312D01*
X129589026Y-69375042D01*
X129357000Y-69496183D01*
X129357000Y-70703000D01*
X129377000Y-70703000D01*
X129377000Y-70957000D01*
X129357000Y-70957000D01*
X129357000Y-70977000D01*
X129103000Y-70977000D01*
X129103000Y-70957000D01*
X129083000Y-70957000D01*
X129083000Y-70703000D01*
X129103000Y-70703000D01*
X129103000Y-69496183D01*
X128870974Y-69375042D01*
X128455053Y-69547312D01*
X128023179Y-69941510D01*
X127840324Y-70331662D01*
X127839860Y-70329329D01*
X127570065Y-69925552D01*
X127166288Y-69655757D01*
X126690000Y-69561017D01*
X126213712Y-69655757D01*
X125809935Y-69925552D01*
X125540140Y-70329329D01*
X125445400Y-70805617D01*
X125445400Y-70854383D01*
X125540140Y-71330671D01*
X125809935Y-71734448D01*
X126213712Y-72004243D01*
X126690000Y-72098983D01*
X127166288Y-72004243D01*
X127570065Y-71734448D01*
X127839860Y-71330671D01*
X127840324Y-71328338D01*
X128023179Y-71718490D01*
X128455053Y-72112688D01*
X128716172Y-72220841D01*
X128349935Y-72465552D01*
X128080140Y-72869329D01*
X127985400Y-73345617D01*
X127985400Y-73394383D01*
X128080140Y-73870671D01*
X128102899Y-73904732D01*
X125853816Y-76153816D01*
X125717032Y-76358527D01*
X125669000Y-76600000D01*
X125669000Y-76676631D01*
X124781000Y-75788632D01*
X124781000Y-74440868D01*
X125030065Y-74274448D01*
X125299860Y-73870671D01*
X125394600Y-73394383D01*
X125394600Y-73345617D01*
X125445400Y-73345617D01*
X125445400Y-73394383D01*
X125540140Y-73870671D01*
X125809935Y-74274448D01*
X126213712Y-74544243D01*
X126690000Y-74638983D01*
X127166288Y-74544243D01*
X127570065Y-74274448D01*
X127839860Y-73870671D01*
X127934600Y-73394383D01*
X127934600Y-73345617D01*
X127839860Y-72869329D01*
X127570065Y-72465552D01*
X127166288Y-72195757D01*
X126690000Y-72101017D01*
X126213712Y-72195757D01*
X125809935Y-72465552D01*
X125540140Y-72869329D01*
X125445400Y-73345617D01*
X125394600Y-73345617D01*
X125299860Y-72869329D01*
X125030065Y-72465552D01*
X124626288Y-72195757D01*
X124150000Y-72101017D01*
X123673712Y-72195757D01*
X123269935Y-72465552D01*
X123000140Y-72869329D01*
X122905400Y-73345617D01*
X122905400Y-73394383D01*
X123000140Y-73870671D01*
X123269935Y-74274448D01*
X123519000Y-74440868D01*
X123519000Y-76026632D01*
X122241000Y-74748632D01*
X122241000Y-74440868D01*
X122490065Y-74274448D01*
X122759860Y-73870671D01*
X122854600Y-73394383D01*
X122854600Y-73345617D01*
X122759860Y-72869329D01*
X122490065Y-72465552D01*
X122123828Y-72220841D01*
X122384947Y-72112688D01*
X122816821Y-71718490D01*
X122999676Y-71328338D01*
X123000140Y-71330671D01*
X123269935Y-71734448D01*
X123673712Y-72004243D01*
X124150000Y-72098983D01*
X124626288Y-72004243D01*
X125030065Y-71734448D01*
X125299860Y-71330671D01*
X125394600Y-70854383D01*
X125394600Y-70805617D01*
X125299860Y-70329329D01*
X125030065Y-69925552D01*
X124626288Y-69655757D01*
X124150000Y-69561017D01*
X123673712Y-69655757D01*
X123269935Y-69925552D01*
X123000140Y-70329329D01*
X122999676Y-70331662D01*
X122816821Y-69941510D01*
X122384947Y-69547312D01*
X121969026Y-69375042D01*
X121737000Y-69496183D01*
X121737000Y-70703000D01*
X121757000Y-70703000D01*
X121757000Y-70957000D01*
X121737000Y-70957000D01*
X121737000Y-70977000D01*
X121483000Y-70977000D01*
X121483000Y-70957000D01*
X121463000Y-70957000D01*
X121463000Y-70703000D01*
X121483000Y-70703000D01*
X121483000Y-69496183D01*
X121250974Y-69375042D01*
X120835053Y-69547312D01*
X120403179Y-69941510D01*
X120220324Y-70331662D01*
X120219860Y-70329329D01*
X119950065Y-69925552D01*
X119546288Y-69655757D01*
X119070000Y-69561017D01*
X118755870Y-69623502D01*
X118188368Y-69056000D01*
X159955089Y-69056000D01*
X160970128Y-69257904D01*
X160970128Y-69257904D01*
G37*
X160970128Y-69257904D02*
X161792562Y-69807438D01*
X162342096Y-70629872D01*
X162544000Y-71644911D01*
X162544000Y-77785444D01*
X162516184Y-77743815D01*
X159603459Y-74831091D01*
X160040846Y-74831473D01*
X161044966Y-74416579D01*
X161813879Y-73649007D01*
X162230524Y-72645613D01*
X162231473Y-71559154D01*
X161816579Y-70555034D01*
X161049007Y-69786121D01*
X160045613Y-69369476D01*
X158959154Y-69368527D01*
X157955034Y-69783421D01*
X157186121Y-70550993D01*
X156769476Y-71554387D01*
X156769019Y-72078058D01*
X156766184Y-72073816D01*
X155820206Y-71127838D01*
X155874600Y-70854383D01*
X155874600Y-70805617D01*
X155779860Y-70329329D01*
X155510065Y-69925552D01*
X155106288Y-69655757D01*
X154630000Y-69561017D01*
X154153712Y-69655757D01*
X153749935Y-69925552D01*
X153480140Y-70329329D01*
X153385400Y-70805617D01*
X153385400Y-70854383D01*
X153480140Y-71330671D01*
X153749935Y-71734448D01*
X154116172Y-71979159D01*
X153855053Y-72087312D01*
X153423179Y-72481510D01*
X153240324Y-72871662D01*
X153239860Y-72869329D01*
X152970065Y-72465552D01*
X152566288Y-72195757D01*
X152090000Y-72101017D01*
X151613712Y-72195757D01*
X151209935Y-72465552D01*
X150940140Y-72869329D01*
X150845400Y-73345617D01*
X150845400Y-73394383D01*
X150940140Y-73870671D01*
X151209935Y-74274448D01*
X151459000Y-74440868D01*
X151459000Y-74890000D01*
X151474899Y-74969928D01*
X151507032Y-75131473D01*
X151643816Y-75336184D01*
X153153815Y-76846184D01*
X153234357Y-76900000D01*
X153358527Y-76982968D01*
X153600000Y-77031000D01*
X157995974Y-77031000D01*
X157836673Y-77190302D01*
X157740000Y-77423691D01*
X157740000Y-77864250D01*
X157898750Y-78023000D01*
X158623000Y-78023000D01*
X158623000Y-78003000D01*
X158877000Y-78003000D01*
X158877000Y-78023000D01*
X159601250Y-78023000D01*
X159715941Y-77908309D01*
X160369000Y-78561369D01*
X160369000Y-98567787D01*
X160206385Y-98175182D01*
X159933660Y-97881060D01*
X159964659Y-97874894D01*
X160090686Y-97790686D01*
X160174894Y-97664659D01*
X160204464Y-97516000D01*
X160204464Y-95484000D01*
X160174894Y-95335341D01*
X160090686Y-95209314D01*
X159964659Y-95125106D01*
X159816000Y-95095536D01*
X159431000Y-95095536D01*
X159431000Y-87010648D01*
X159544686Y-86934686D01*
X159628894Y-86808659D01*
X159658464Y-86660000D01*
X159658464Y-85460000D01*
X159628894Y-85311341D01*
X159544686Y-85185314D01*
X159418659Y-85101106D01*
X159270000Y-85071536D01*
X158370000Y-85071536D01*
X158221341Y-85101106D01*
X158095314Y-85185314D01*
X158011106Y-85311341D01*
X157981536Y-85460000D01*
X157981536Y-85769000D01*
X157584601Y-85769000D01*
X157448230Y-85564907D01*
X157065086Y-85308898D01*
X156613137Y-85219000D01*
X156566863Y-85219000D01*
X156114914Y-85308898D01*
X155731770Y-85564907D01*
X155475761Y-85948051D01*
X155385863Y-86400000D01*
X155475761Y-86851949D01*
X155731770Y-87235093D01*
X156114914Y-87491102D01*
X156566863Y-87581000D01*
X156613137Y-87581000D01*
X157065086Y-87491102D01*
X157448230Y-87235093D01*
X157584601Y-87031000D01*
X158169000Y-87031000D01*
X158169000Y-95095536D01*
X157784000Y-95095536D01*
X157635341Y-95125106D01*
X157509314Y-95209314D01*
X157425106Y-95335341D01*
X157395536Y-95484000D01*
X157395536Y-97516000D01*
X157425106Y-97664659D01*
X157509314Y-97790686D01*
X157635341Y-97874894D01*
X157666340Y-97881060D01*
X157393615Y-98175182D01*
X157194025Y-98657056D01*
X157313164Y-98913000D01*
X158673000Y-98913000D01*
X158673000Y-98893000D01*
X158927000Y-98893000D01*
X158927000Y-98913000D01*
X158947000Y-98913000D01*
X158947000Y-99167000D01*
X158927000Y-99167000D01*
X158927000Y-100527367D01*
X159182946Y-100645983D01*
X159768379Y-100377188D01*
X160206385Y-99904818D01*
X160369000Y-99512213D01*
X160369000Y-101061536D01*
X159400000Y-101061536D01*
X159251341Y-101091106D01*
X159125314Y-101175314D01*
X159041106Y-101301341D01*
X159011536Y-101450000D01*
X159011536Y-102350000D01*
X159041106Y-102498659D01*
X159125314Y-102624686D01*
X159251341Y-102708894D01*
X159400000Y-102738464D01*
X160600000Y-102738464D01*
X160748659Y-102708894D01*
X160874686Y-102624686D01*
X160958894Y-102498659D01*
X160980492Y-102390078D01*
X161046184Y-102346184D01*
X161439000Y-101953369D01*
X161439000Y-112318631D01*
X150398632Y-123359000D01*
X136902564Y-123359000D01*
X137012680Y-123313501D01*
X137471888Y-122855093D01*
X137720716Y-122255849D01*
X137721282Y-121606997D01*
X137473501Y-121007320D01*
X137333017Y-120866591D01*
X137436286Y-120763322D01*
X137565533Y-121056123D01*
X138265806Y-121324388D01*
X139015435Y-121304250D01*
X139614467Y-121056123D01*
X139743715Y-120763320D01*
X138590000Y-119609605D01*
X138575858Y-119623748D01*
X138396253Y-119444143D01*
X138410395Y-119430000D01*
X138769605Y-119430000D01*
X139923320Y-120583715D01*
X140216123Y-120454467D01*
X140484388Y-119754194D01*
X140464250Y-119004565D01*
X140216123Y-118405533D01*
X139923320Y-118276285D01*
X138769605Y-119430000D01*
X138410395Y-119430000D01*
X137256680Y-118276285D01*
X136963877Y-118405533D01*
X136731000Y-119013430D01*
X136731000Y-118096680D01*
X137436285Y-118096680D01*
X138590000Y-119250395D01*
X139743715Y-118096680D01*
X139614467Y-117803877D01*
X138914194Y-117535612D01*
X138164565Y-117555750D01*
X137565533Y-117803877D01*
X137436285Y-118096680D01*
X136731000Y-118096680D01*
X136731000Y-116428254D01*
X136980065Y-116261834D01*
X137249860Y-115858057D01*
X137252704Y-115843757D01*
X137348046Y-116116320D01*
X137737964Y-116552732D01*
X138265209Y-116806709D01*
X138280974Y-116809358D01*
X138513000Y-116688217D01*
X138513000Y-115329000D01*
X138767000Y-115329000D01*
X138767000Y-116688217D01*
X138999026Y-116809358D01*
X139014791Y-116806709D01*
X139542036Y-116552732D01*
X139931954Y-116116320D01*
X140125184Y-115563913D01*
X139980924Y-115329000D01*
X138767000Y-115329000D01*
X138513000Y-115329000D01*
X138493000Y-115329000D01*
X138493000Y-115075000D01*
X138513000Y-115075000D01*
X138513000Y-113715783D01*
X138767000Y-113715783D01*
X138767000Y-115075000D01*
X139980924Y-115075000D01*
X140125184Y-114840087D01*
X139931954Y-114287680D01*
X139542036Y-113851268D01*
X139014791Y-113597291D01*
X138999026Y-113594642D01*
X138767000Y-113715783D01*
X138513000Y-113715783D01*
X138280974Y-113594642D01*
X138265209Y-113597291D01*
X137737964Y-113851268D01*
X137348046Y-114287680D01*
X137252704Y-114560243D01*
X137249860Y-114545943D01*
X136980065Y-114142166D01*
X136576288Y-113872371D01*
X136100000Y-113777631D01*
X135623712Y-113872371D01*
X135219935Y-114142166D01*
X134950140Y-114545943D01*
X134855400Y-115022231D01*
X134855400Y-115381769D01*
X134950140Y-115858057D01*
X135219935Y-116261834D01*
X135469000Y-116428254D01*
X135469000Y-120421848D01*
X135167320Y-120546499D01*
X134708112Y-121004907D01*
X134459284Y-121604151D01*
X134458718Y-122253003D01*
X134706499Y-122852680D01*
X135164907Y-123311888D01*
X135278365Y-123359000D01*
X116341369Y-123359000D01*
X113871000Y-120888632D01*
X113871000Y-119753003D01*
X131958718Y-119753003D01*
X132206499Y-120352680D01*
X132664907Y-120811888D01*
X133264151Y-121060716D01*
X133913003Y-121061282D01*
X134512680Y-120813501D01*
X134971888Y-120355093D01*
X135220716Y-119755849D01*
X135221282Y-119106997D01*
X134973501Y-118507320D01*
X134515093Y-118048112D01*
X133915849Y-117799284D01*
X133266997Y-117798718D01*
X132667320Y-118046499D01*
X132208112Y-118504907D01*
X131959284Y-119104151D01*
X131958718Y-119753003D01*
X113871000Y-119753003D01*
X113871000Y-116428254D01*
X114120065Y-116261834D01*
X114389860Y-115858057D01*
X114484600Y-115381769D01*
X114484600Y-115022231D01*
X114535400Y-115022231D01*
X114535400Y-115381769D01*
X114630140Y-115858057D01*
X114899935Y-116261834D01*
X115303712Y-116531629D01*
X115780000Y-116626369D01*
X116256288Y-116531629D01*
X116660065Y-116261834D01*
X116929860Y-115858057D01*
X117024600Y-115381769D01*
X117024600Y-115022231D01*
X117075400Y-115022231D01*
X117075400Y-115381769D01*
X117170140Y-115858057D01*
X117439935Y-116261834D01*
X117843712Y-116531629D01*
X118320000Y-116626369D01*
X118796288Y-116531629D01*
X119200065Y-116261834D01*
X119469860Y-115858057D01*
X119564600Y-115381769D01*
X119564600Y-115022231D01*
X119615400Y-115022231D01*
X119615400Y-115381769D01*
X119710140Y-115858057D01*
X119979935Y-116261834D01*
X120383712Y-116531629D01*
X120860000Y-116626369D01*
X121336288Y-116531629D01*
X121740065Y-116261834D01*
X122009860Y-115858057D01*
X122104600Y-115381769D01*
X122104600Y-115022231D01*
X122155400Y-115022231D01*
X122155400Y-115381769D01*
X122250140Y-115858057D01*
X122519935Y-116261834D01*
X122923712Y-116531629D01*
X123400000Y-116626369D01*
X123876288Y-116531629D01*
X124280065Y-116261834D01*
X124549860Y-115858057D01*
X124644600Y-115381769D01*
X124644600Y-115022231D01*
X124549860Y-114545943D01*
X124280065Y-114142166D01*
X123876288Y-113872371D01*
X123400000Y-113777631D01*
X122923712Y-113872371D01*
X122519935Y-114142166D01*
X122250140Y-114545943D01*
X122155400Y-115022231D01*
X122104600Y-115022231D01*
X122009860Y-114545943D01*
X121740065Y-114142166D01*
X121336288Y-113872371D01*
X120860000Y-113777631D01*
X120383712Y-113872371D01*
X119979935Y-114142166D01*
X119710140Y-114545943D01*
X119615400Y-115022231D01*
X119564600Y-115022231D01*
X119469860Y-114545943D01*
X119200065Y-114142166D01*
X118796288Y-113872371D01*
X118320000Y-113777631D01*
X117843712Y-113872371D01*
X117439935Y-114142166D01*
X117170140Y-114545943D01*
X117075400Y-115022231D01*
X117024600Y-115022231D01*
X116929860Y-114545943D01*
X116660065Y-114142166D01*
X116256288Y-113872371D01*
X115780000Y-113777631D01*
X115303712Y-113872371D01*
X114899935Y-114142166D01*
X114630140Y-114545943D01*
X114535400Y-115022231D01*
X114484600Y-115022231D01*
X114389860Y-114545943D01*
X114120065Y-114142166D01*
X113716288Y-113872371D01*
X113240000Y-113777631D01*
X112763712Y-113872371D01*
X112359935Y-114142166D01*
X112090140Y-114545943D01*
X112087296Y-114560243D01*
X111991954Y-114287680D01*
X111602036Y-113851268D01*
X111074791Y-113597291D01*
X111059026Y-113594642D01*
X110827000Y-113715783D01*
X110827000Y-115075000D01*
X110847000Y-115075000D01*
X110847000Y-115329000D01*
X110827000Y-115329000D01*
X110827000Y-116688217D01*
X111059026Y-116809358D01*
X111074791Y-116806709D01*
X111602036Y-116552732D01*
X111991954Y-116116320D01*
X112087296Y-115843757D01*
X112090140Y-115858057D01*
X112359935Y-116261834D01*
X112609000Y-116428254D01*
X112609000Y-121150000D01*
X112643688Y-121324388D01*
X112657032Y-121391473D01*
X112793816Y-121596184D01*
X115341631Y-124144000D01*
X101044911Y-124144000D01*
X100029872Y-123942096D01*
X99207438Y-123392562D01*
X98657904Y-122570128D01*
X98473059Y-121640846D01*
X98768527Y-121640846D01*
X99183421Y-122644966D01*
X99950993Y-123413879D01*
X100954387Y-123830524D01*
X102040846Y-123831473D01*
X103044966Y-123416579D01*
X103813879Y-122649007D01*
X104230524Y-121645613D01*
X104231473Y-120559154D01*
X103816579Y-119555034D01*
X103049007Y-118786121D01*
X102045613Y-118369476D01*
X100959154Y-118368527D01*
X99955034Y-118783421D01*
X99186121Y-119550993D01*
X98769476Y-120554387D01*
X98768527Y-121640846D01*
X98473059Y-121640846D01*
X98456000Y-121555089D01*
X98456000Y-115487750D01*
X99041400Y-115487750D01*
X99041400Y-116344309D01*
X99138073Y-116577698D01*
X99316701Y-116756327D01*
X99550090Y-116853000D01*
X100254250Y-116853000D01*
X100413000Y-116694250D01*
X100413000Y-115329000D01*
X99200150Y-115329000D01*
X99041400Y-115487750D01*
X98456000Y-115487750D01*
X98456000Y-114059691D01*
X99041400Y-114059691D01*
X99041400Y-114916250D01*
X99200150Y-115075000D01*
X100413000Y-115075000D01*
X100413000Y-113709750D01*
X100254250Y-113551000D01*
X99550090Y-113551000D01*
X99316701Y-113647673D01*
X99138073Y-113826302D01*
X99041400Y-114059691D01*
X98456000Y-114059691D01*
X98456000Y-105644911D01*
X98467602Y-105586582D01*
X98475204Y-105575204D01*
X98486582Y-105567602D01*
X98544911Y-105556000D01*
X104500000Y-105556000D01*
X104544050Y-105547238D01*
X104588961Y-105547238D01*
X104780303Y-105509178D01*
X104780305Y-105509178D01*
X104873000Y-105470782D01*
X104873000Y-106534631D01*
X102633816Y-108773816D01*
X102497032Y-108978527D01*
X102449000Y-109220000D01*
X102449000Y-113975746D01*
X102199935Y-114142166D01*
X102038600Y-114383621D01*
X102038600Y-114059691D01*
X101941927Y-113826302D01*
X101763299Y-113647673D01*
X101529910Y-113551000D01*
X100825750Y-113551000D01*
X100667000Y-113709750D01*
X100667000Y-115075000D01*
X100687000Y-115075000D01*
X100687000Y-115329000D01*
X100667000Y-115329000D01*
X100667000Y-116694250D01*
X100825750Y-116853000D01*
X101529910Y-116853000D01*
X101763299Y-116756327D01*
X101941927Y-116577698D01*
X102038600Y-116344309D01*
X102038600Y-116020379D01*
X102199935Y-116261834D01*
X102603712Y-116531629D01*
X103080000Y-116626369D01*
X103556288Y-116531629D01*
X103960065Y-116261834D01*
X104229860Y-115858057D01*
X104232704Y-115843757D01*
X104328046Y-116116320D01*
X104717964Y-116552732D01*
X105245209Y-116806709D01*
X105260974Y-116809358D01*
X105493000Y-116688217D01*
X105493000Y-115329000D01*
X105473000Y-115329000D01*
X105473000Y-115075000D01*
X105493000Y-115075000D01*
X105493000Y-113715783D01*
X105260974Y-113594642D01*
X105245209Y-113597291D01*
X104717964Y-113851268D01*
X104328046Y-114287680D01*
X104232704Y-114560243D01*
X104229860Y-114545943D01*
X103960065Y-114142166D01*
X103711000Y-113975746D01*
X103711000Y-109481368D01*
X104873000Y-108319368D01*
X104873000Y-113320000D01*
X104882667Y-113368601D01*
X104910197Y-113409803D01*
X104951399Y-113437333D01*
X105000000Y-113447000D01*
X107529000Y-113447000D01*
X107529000Y-113975746D01*
X107279935Y-114142166D01*
X107010140Y-114545943D01*
X107007296Y-114560243D01*
X106911954Y-114287680D01*
X106522036Y-113851268D01*
X105994791Y-113597291D01*
X105979026Y-113594642D01*
X105747000Y-113715783D01*
X105747000Y-115075000D01*
X105767000Y-115075000D01*
X105767000Y-115329000D01*
X105747000Y-115329000D01*
X105747000Y-116688217D01*
X105979026Y-116809358D01*
X105994791Y-116806709D01*
X106522036Y-116552732D01*
X106911954Y-116116320D01*
X107007296Y-115843757D01*
X107010140Y-115858057D01*
X107279935Y-116261834D01*
X107683712Y-116531629D01*
X108160000Y-116626369D01*
X108636288Y-116531629D01*
X109040065Y-116261834D01*
X109309860Y-115858057D01*
X109312704Y-115843757D01*
X109408046Y-116116320D01*
X109797964Y-116552732D01*
X110325209Y-116806709D01*
X110340974Y-116809358D01*
X110573000Y-116688217D01*
X110573000Y-115329000D01*
X110553000Y-115329000D01*
X110553000Y-115075000D01*
X110573000Y-115075000D01*
X110573000Y-113715783D01*
X110340974Y-113594642D01*
X110325209Y-113597291D01*
X109797964Y-113851268D01*
X109408046Y-114287680D01*
X109312704Y-114560243D01*
X109309860Y-114545943D01*
X109040065Y-114142166D01*
X108791000Y-113975746D01*
X108791000Y-113447000D01*
X125309000Y-113447000D01*
X125309000Y-113975746D01*
X125059935Y-114142166D01*
X124790140Y-114545943D01*
X124695400Y-115022231D01*
X124695400Y-115381769D01*
X124790140Y-115858057D01*
X125059935Y-116261834D01*
X125463712Y-116531629D01*
X125940000Y-116626369D01*
X126416288Y-116531629D01*
X126820065Y-116261834D01*
X127089860Y-115858057D01*
X127184600Y-115381769D01*
X127184600Y-115022231D01*
X127089860Y-114545943D01*
X126820065Y-114142166D01*
X126571000Y-113975746D01*
X126571000Y-113447000D01*
X127849000Y-113447000D01*
X127849000Y-113975746D01*
X127599935Y-114142166D01*
X127330140Y-114545943D01*
X127235400Y-115022231D01*
X127235400Y-115381769D01*
X127330140Y-115858057D01*
X127599935Y-116261834D01*
X128003712Y-116531629D01*
X128480000Y-116626369D01*
X128956288Y-116531629D01*
X129360065Y-116261834D01*
X129629860Y-115858057D01*
X129724600Y-115381769D01*
X129724600Y-115022231D01*
X129629860Y-114545943D01*
X129360065Y-114142166D01*
X129111000Y-113975746D01*
X129111000Y-113447000D01*
X130154632Y-113447000D01*
X130389000Y-113681368D01*
X130389000Y-113975746D01*
X130139935Y-114142166D01*
X129870140Y-114545943D01*
X129775400Y-115022231D01*
X129775400Y-115381769D01*
X129870140Y-115858057D01*
X130139935Y-116261834D01*
X130543712Y-116531629D01*
X131020000Y-116626369D01*
X131496288Y-116531629D01*
X131900065Y-116261834D01*
X132169860Y-115858057D01*
X132264600Y-115381769D01*
X132264600Y-115022231D01*
X132169860Y-114545943D01*
X131900065Y-114142166D01*
X131651000Y-113975746D01*
X131651000Y-113447000D01*
X132854631Y-113447000D01*
X132929000Y-113521369D01*
X132929000Y-113975746D01*
X132679935Y-114142166D01*
X132410140Y-114545943D01*
X132315400Y-115022231D01*
X132315400Y-115381769D01*
X132410140Y-115858057D01*
X132679935Y-116261834D01*
X133083712Y-116531629D01*
X133560000Y-116626369D01*
X134036288Y-116531629D01*
X134440065Y-116261834D01*
X134709860Y-115858057D01*
X134804600Y-115381769D01*
X134804600Y-115022231D01*
X134709860Y-114545943D01*
X134440065Y-114142166D01*
X134191000Y-113975746D01*
X134191000Y-113447000D01*
X134860000Y-113447000D01*
X134908601Y-113437333D01*
X134949803Y-113409803D01*
X134977333Y-113368601D01*
X134987000Y-113320000D01*
X134987000Y-107382311D01*
X135015314Y-107424686D01*
X135141341Y-107508894D01*
X135290000Y-107538464D01*
X136510000Y-107538464D01*
X136658659Y-107508894D01*
X136784686Y-107424686D01*
X136868894Y-107298659D01*
X136898464Y-107150000D01*
X136898464Y-106240000D01*
X136868894Y-106091341D01*
X136784686Y-105965314D01*
X136658659Y-105881106D01*
X136510000Y-105851536D01*
X135290000Y-105851536D01*
X135141341Y-105881106D01*
X135015314Y-105965314D01*
X134987000Y-106007689D01*
X134987000Y-104112311D01*
X135015314Y-104154686D01*
X135141341Y-104238894D01*
X135290000Y-104268464D01*
X135851096Y-104268464D01*
X136438815Y-104856184D01*
X136643526Y-104992968D01*
X136674837Y-104999196D01*
X136885000Y-105041000D01*
X142012296Y-105041000D01*
X141913743Y-105139553D01*
X141696971Y-105463976D01*
X141696970Y-105463977D01*
X141628882Y-105628356D01*
X141552762Y-106011039D01*
X141552762Y-106055950D01*
X141544000Y-106100000D01*
X141544000Y-121100000D01*
X141552762Y-121144050D01*
X141552762Y-121188961D01*
X141628882Y-121571644D01*
X141696970Y-121736023D01*
X141913743Y-122060447D01*
X142039553Y-122186257D01*
X142363977Y-122403030D01*
X142528356Y-122471118D01*
X142911037Y-122547238D01*
X143088963Y-122547238D01*
X143471644Y-122471118D01*
X143636023Y-122403030D01*
X143960447Y-122186257D01*
X144086257Y-122060447D01*
X144303030Y-121736023D01*
X144371118Y-121571644D01*
X144447238Y-121188961D01*
X144447238Y-121144050D01*
X144456000Y-121100000D01*
X144456000Y-113853983D01*
X151678804Y-113853983D01*
X151850625Y-114269823D01*
X152168503Y-114588256D01*
X152584043Y-114760804D01*
X153033983Y-114761196D01*
X153449823Y-114589375D01*
X153768256Y-114271497D01*
X153940804Y-113855957D01*
X153941196Y-113406017D01*
X153769375Y-112990177D01*
X153451497Y-112671744D01*
X153035957Y-112499196D01*
X152586017Y-112498804D01*
X152170177Y-112670625D01*
X151851744Y-112988503D01*
X151679196Y-113404043D01*
X151678804Y-113853983D01*
X144456000Y-113853983D01*
X144456000Y-106100000D01*
X144447238Y-106055950D01*
X144447238Y-106011039D01*
X144371118Y-105628356D01*
X144303030Y-105463977D01*
X144303029Y-105463976D01*
X144086257Y-105139553D01*
X143987704Y-105041000D01*
X144008632Y-105041000D01*
X145167536Y-106199904D01*
X145167536Y-106742000D01*
X145197106Y-106890659D01*
X145281314Y-107016686D01*
X145375000Y-107079285D01*
X145375000Y-108106000D01*
X145416931Y-108316801D01*
X145423032Y-108347473D01*
X145559816Y-108552184D01*
X147331815Y-110324184D01*
X147536526Y-110460968D01*
X147576589Y-110468937D01*
X147778000Y-110509000D01*
X149333169Y-110509000D01*
X149340446Y-110526612D01*
X149661697Y-110848423D01*
X150081646Y-111022801D01*
X150536359Y-111023198D01*
X150956612Y-110849554D01*
X151278423Y-110528303D01*
X151452801Y-110108354D01*
X151453198Y-109653641D01*
X151279554Y-109233388D01*
X150958303Y-108911577D01*
X150538354Y-108737199D01*
X150083641Y-108736802D01*
X149663388Y-108910446D01*
X149341577Y-109231697D01*
X149335223Y-109247000D01*
X148039369Y-109247000D01*
X146637000Y-107844632D01*
X146637000Y-107079285D01*
X146730686Y-107016686D01*
X146814894Y-106890659D01*
X146844464Y-106742000D01*
X146844464Y-105542000D01*
X146814894Y-105393341D01*
X146730686Y-105267314D01*
X146604659Y-105183106D01*
X146456000Y-105153536D01*
X145905904Y-105153536D01*
X145682832Y-104930464D01*
X146456000Y-104930464D01*
X146604659Y-104900894D01*
X146730686Y-104816686D01*
X146814894Y-104690659D01*
X146838298Y-104573000D01*
X147430632Y-104573000D01*
X153173816Y-110316184D01*
X153378527Y-110452968D01*
X153620000Y-110501000D01*
X154329863Y-110501000D01*
X154340446Y-110526612D01*
X154661697Y-110848423D01*
X155081646Y-111022801D01*
X155536359Y-111023198D01*
X155956612Y-110849554D01*
X156278423Y-110528303D01*
X156452801Y-110108354D01*
X156453198Y-109653641D01*
X156279554Y-109233388D01*
X155958303Y-108911577D01*
X155538354Y-108737199D01*
X155083641Y-108736802D01*
X154663388Y-108910446D01*
X154341577Y-109231697D01*
X154338545Y-109239000D01*
X153881368Y-109239000D01*
X150996351Y-106353983D01*
X151678804Y-106353983D01*
X151850625Y-106769823D01*
X152168503Y-107088256D01*
X152584043Y-107260804D01*
X153033983Y-107261196D01*
X153449823Y-107089375D01*
X153768256Y-106771497D01*
X153940804Y-106355957D01*
X153941196Y-105906017D01*
X153769375Y-105490177D01*
X153451497Y-105171744D01*
X153035957Y-104999196D01*
X152586017Y-104998804D01*
X152170177Y-105170625D01*
X151851744Y-105488503D01*
X151679196Y-105904043D01*
X151678804Y-106353983D01*
X150996351Y-106353983D01*
X148138184Y-103495816D01*
X147933473Y-103359032D01*
X147692000Y-103311000D01*
X146838298Y-103311000D01*
X146814894Y-103193341D01*
X146730686Y-103067314D01*
X146637000Y-103004715D01*
X146637000Y-97414000D01*
X146691536Y-97414000D01*
X146691536Y-98614000D01*
X146721106Y-98762659D01*
X146805314Y-98888686D01*
X146931341Y-98972894D01*
X147080000Y-99002464D01*
X147626096Y-99002464D01*
X149069816Y-100446184D01*
X149274526Y-100582968D01*
X149314589Y-100590937D01*
X149516000Y-100631000D01*
X152610445Y-100631000D01*
X152884231Y-100813938D01*
X153221375Y-100881000D01*
X154178625Y-100881000D01*
X154515769Y-100813938D01*
X154801586Y-100622961D01*
X154992563Y-100337144D01*
X155059625Y-100000000D01*
X154992563Y-99662856D01*
X154801586Y-99377039D01*
X154761119Y-99350000D01*
X154801586Y-99322961D01*
X154992563Y-99037144D01*
X155059625Y-98700000D01*
X155007927Y-98440096D01*
X155012198Y-98438327D01*
X155190827Y-98259699D01*
X155287500Y-98026310D01*
X155287500Y-97685750D01*
X155128750Y-97527000D01*
X153827000Y-97527000D01*
X153827000Y-97547000D01*
X153573000Y-97547000D01*
X153573000Y-97527000D01*
X152271250Y-97527000D01*
X152112500Y-97685750D01*
X152112500Y-98026310D01*
X152130183Y-98069000D01*
X150255369Y-98069000D01*
X150146464Y-97960095D01*
X150146464Y-97414000D01*
X150116894Y-97265341D01*
X150032686Y-97139314D01*
X149906659Y-97055106D01*
X149758000Y-97025536D01*
X148858000Y-97025536D01*
X148709341Y-97055106D01*
X148583314Y-97139314D01*
X148499106Y-97265341D01*
X148469536Y-97414000D01*
X148469536Y-98061168D01*
X148368464Y-97960096D01*
X148368464Y-97414000D01*
X148338894Y-97265341D01*
X148254686Y-97139314D01*
X148128659Y-97055106D01*
X147980000Y-97025536D01*
X147080000Y-97025536D01*
X146931341Y-97055106D01*
X146805314Y-97139314D01*
X146721106Y-97265341D01*
X146691536Y-97414000D01*
X146637000Y-97414000D01*
X146637000Y-93704220D01*
X146588968Y-93462747D01*
X146588968Y-93462746D01*
X146452184Y-93258036D01*
X145988514Y-92794366D01*
X145988514Y-92498170D01*
X145958944Y-92349511D01*
X145874736Y-92223484D01*
X145748709Y-92139276D01*
X145600050Y-92109706D01*
X144799950Y-92109706D01*
X144651291Y-92139276D01*
X144525264Y-92223484D01*
X144441056Y-92349511D01*
X144411486Y-92498170D01*
X144411486Y-93298270D01*
X144441056Y-93446929D01*
X144525264Y-93572956D01*
X144651291Y-93657164D01*
X144799950Y-93686734D01*
X145096146Y-93686734D01*
X145375000Y-93965588D01*
X145375000Y-103004715D01*
X145281314Y-103067314D01*
X145197106Y-103193341D01*
X145167536Y-103342000D01*
X145167536Y-104415168D01*
X144716184Y-103963816D01*
X144511473Y-103827032D01*
X144270000Y-103779000D01*
X137146369Y-103779000D01*
X136898464Y-103531095D01*
X136898464Y-102970000D01*
X136868894Y-102821341D01*
X136784686Y-102695314D01*
X136658659Y-102611106D01*
X136531000Y-102585713D01*
X136531000Y-102400000D01*
X136482968Y-102158527D01*
X136482968Y-102158526D01*
X136346184Y-101953815D01*
X134987000Y-100594631D01*
X134987000Y-97328416D01*
X134991673Y-97339698D01*
X135170301Y-97518327D01*
X135403690Y-97615000D01*
X135412038Y-97615000D01*
X135381341Y-97621106D01*
X135255314Y-97705314D01*
X135171106Y-97831341D01*
X135141536Y-97980000D01*
X135141536Y-99180000D01*
X135171106Y-99328659D01*
X135255314Y-99454686D01*
X135381341Y-99538894D01*
X135530000Y-99568464D01*
X136430000Y-99568464D01*
X136578659Y-99538894D01*
X136704686Y-99454686D01*
X136788894Y-99328659D01*
X136812298Y-99211000D01*
X138349000Y-99211000D01*
X138349000Y-101603995D01*
X138333388Y-101610446D01*
X138011577Y-101931697D01*
X137837199Y-102351646D01*
X137836802Y-102806359D01*
X138010446Y-103226612D01*
X138331697Y-103548423D01*
X138751646Y-103722801D01*
X139206359Y-103723198D01*
X139626612Y-103549554D01*
X139948423Y-103228303D01*
X140122801Y-102808354D01*
X140123198Y-102353641D01*
X139949554Y-101933388D01*
X139628303Y-101611577D01*
X139611000Y-101604392D01*
X139611000Y-97056005D01*
X139626612Y-97049554D01*
X139948423Y-96728303D01*
X140122801Y-96308354D01*
X140123198Y-95853641D01*
X139949554Y-95433388D01*
X139628303Y-95111577D01*
X139208354Y-94937199D01*
X138753641Y-94936802D01*
X138333388Y-95110446D01*
X138011577Y-95431697D01*
X137837199Y-95851646D01*
X137836802Y-96306359D01*
X138010446Y-96726612D01*
X138331697Y-97048423D01*
X138349000Y-97055608D01*
X138349000Y-97949000D01*
X136812298Y-97949000D01*
X136788894Y-97831341D01*
X136704686Y-97705314D01*
X136578659Y-97621106D01*
X136547962Y-97615000D01*
X136556310Y-97615000D01*
X136789699Y-97518327D01*
X136968327Y-97339698D01*
X137065000Y-97106309D01*
X137065000Y-96665750D01*
X136906250Y-96507000D01*
X136107000Y-96507000D01*
X136107000Y-96527000D01*
X135853000Y-96527000D01*
X135853000Y-96507000D01*
X135833000Y-96507000D01*
X135833000Y-96253000D01*
X135853000Y-96253000D01*
X135853000Y-95303750D01*
X136107000Y-95303750D01*
X136107000Y-96253000D01*
X136906250Y-96253000D01*
X137065000Y-96094250D01*
X137065000Y-95653691D01*
X136968327Y-95420302D01*
X136789699Y-95241673D01*
X136556310Y-95145000D01*
X136265750Y-95145000D01*
X136107000Y-95303750D01*
X135853000Y-95303750D01*
X135694250Y-95145000D01*
X135403690Y-95145000D01*
X135170301Y-95241673D01*
X134991673Y-95420302D01*
X134987000Y-95431584D01*
X134987000Y-93710000D01*
X134977333Y-93661399D01*
X134949803Y-93620197D01*
X134908601Y-93592667D01*
X134860000Y-93583000D01*
X127731000Y-93583000D01*
X127731000Y-77161368D01*
X128361369Y-76531000D01*
X128539242Y-76531000D01*
X128330140Y-76843943D01*
X128235400Y-77320231D01*
X128235400Y-77679769D01*
X128330140Y-78156057D01*
X128599935Y-78559834D01*
X128849000Y-78726254D01*
X128849000Y-79873746D01*
X128599935Y-80040166D01*
X128330140Y-80443943D01*
X128235400Y-80920231D01*
X128235400Y-81279769D01*
X128330140Y-81756057D01*
X128599935Y-82159834D01*
X128849000Y-82326254D01*
X128849000Y-83473746D01*
X128599935Y-83640166D01*
X128330140Y-84043943D01*
X128235400Y-84520231D01*
X128235400Y-84879769D01*
X128330140Y-85356057D01*
X128599935Y-85759834D01*
X128849000Y-85926254D01*
X128849000Y-87073746D01*
X128599935Y-87240166D01*
X128330140Y-87643943D01*
X128235400Y-88120231D01*
X128235400Y-88479769D01*
X128330140Y-88956057D01*
X128599935Y-89359834D01*
X128849000Y-89526254D01*
X128849000Y-90673746D01*
X128599935Y-90840166D01*
X128330140Y-91243943D01*
X128235400Y-91720231D01*
X128235400Y-92079769D01*
X128330140Y-92556057D01*
X128599935Y-92959834D01*
X129003712Y-93229629D01*
X129480000Y-93324369D01*
X129956288Y-93229629D01*
X130360065Y-92959834D01*
X130629860Y-92556057D01*
X130724600Y-92079769D01*
X130724600Y-91720231D01*
X130629860Y-91243943D01*
X130360065Y-90840166D01*
X130111000Y-90673746D01*
X130111000Y-89526254D01*
X130360065Y-89359834D01*
X130629860Y-88956057D01*
X130724600Y-88479769D01*
X130724600Y-88120231D01*
X130629860Y-87643943D01*
X130360065Y-87240166D01*
X130111000Y-87073746D01*
X130111000Y-85926254D01*
X130360065Y-85759834D01*
X130629860Y-85356057D01*
X130724600Y-84879769D01*
X130724600Y-84520231D01*
X130629860Y-84043943D01*
X130360065Y-83640166D01*
X130111000Y-83473746D01*
X130111000Y-82326254D01*
X130360065Y-82159834D01*
X130629860Y-81756057D01*
X130724600Y-81279769D01*
X130724600Y-80920231D01*
X130629860Y-80443943D01*
X130360065Y-80040166D01*
X130111000Y-79873746D01*
X130111000Y-78726254D01*
X130360065Y-78559834D01*
X130629860Y-78156057D01*
X130724600Y-77679769D01*
X130724600Y-77320231D01*
X130775400Y-77320231D01*
X130775400Y-77679769D01*
X130870140Y-78156057D01*
X131139935Y-78559834D01*
X131389000Y-78726254D01*
X131389000Y-79873746D01*
X131139935Y-80040166D01*
X130870140Y-80443943D01*
X130775400Y-80920231D01*
X130775400Y-81279769D01*
X130870140Y-81756057D01*
X131139935Y-82159834D01*
X131389000Y-82326254D01*
X131389000Y-83473746D01*
X131139935Y-83640166D01*
X130870140Y-84043943D01*
X130775400Y-84520231D01*
X130775400Y-84879769D01*
X130870140Y-85356057D01*
X131139935Y-85759834D01*
X131389000Y-85926254D01*
X131389000Y-87073746D01*
X131139935Y-87240166D01*
X130870140Y-87643943D01*
X130775400Y-88120231D01*
X130775400Y-88479769D01*
X130870140Y-88956057D01*
X131139935Y-89359834D01*
X131389000Y-89526254D01*
X131389000Y-90673746D01*
X131139935Y-90840166D01*
X130870140Y-91243943D01*
X130775400Y-91720231D01*
X130775400Y-92079769D01*
X130870140Y-92556057D01*
X131139935Y-92959834D01*
X131543712Y-93229629D01*
X132020000Y-93324369D01*
X132496288Y-93229629D01*
X132900065Y-92959834D01*
X133169860Y-92556057D01*
X133172704Y-92541757D01*
X133268046Y-92814320D01*
X133657964Y-93250732D01*
X134185209Y-93504709D01*
X134200974Y-93507358D01*
X134433000Y-93386217D01*
X134433000Y-92027000D01*
X134413000Y-92027000D01*
X134413000Y-91773000D01*
X134433000Y-91773000D01*
X134433000Y-90413783D01*
X134200974Y-90292642D01*
X134185209Y-90295291D01*
X133657964Y-90549268D01*
X133268046Y-90985680D01*
X133172704Y-91258243D01*
X133169860Y-91243943D01*
X132900065Y-90840166D01*
X132651000Y-90673746D01*
X132651000Y-89526254D01*
X132900065Y-89359834D01*
X133169860Y-88956057D01*
X133172704Y-88941757D01*
X133268046Y-89214320D01*
X133657964Y-89650732D01*
X134185209Y-89904709D01*
X134200974Y-89907358D01*
X134433000Y-89786217D01*
X134433000Y-88427000D01*
X134413000Y-88427000D01*
X134413000Y-88173000D01*
X134433000Y-88173000D01*
X134433000Y-86813783D01*
X134200974Y-86692642D01*
X134185209Y-86695291D01*
X133657964Y-86949268D01*
X133268046Y-87385680D01*
X133172704Y-87658243D01*
X133169860Y-87643943D01*
X132900065Y-87240166D01*
X132651000Y-87073746D01*
X132651000Y-85926254D01*
X132900065Y-85759834D01*
X133169860Y-85356057D01*
X133172704Y-85341757D01*
X133268046Y-85614320D01*
X133657964Y-86050732D01*
X134185209Y-86304709D01*
X134200974Y-86307358D01*
X134433000Y-86186217D01*
X134433000Y-84827000D01*
X134413000Y-84827000D01*
X134413000Y-84573000D01*
X134433000Y-84573000D01*
X134433000Y-83213783D01*
X134200974Y-83092642D01*
X134185209Y-83095291D01*
X133657964Y-83349268D01*
X133268046Y-83785680D01*
X133172704Y-84058243D01*
X133169860Y-84043943D01*
X132900065Y-83640166D01*
X132651000Y-83473746D01*
X132651000Y-82326254D01*
X132900065Y-82159834D01*
X133169860Y-81756057D01*
X133172704Y-81741757D01*
X133268046Y-82014320D01*
X133657964Y-82450732D01*
X134185209Y-82704709D01*
X134200974Y-82707358D01*
X134433000Y-82586217D01*
X134433000Y-81227000D01*
X134413000Y-81227000D01*
X134413000Y-80973000D01*
X134433000Y-80973000D01*
X134433000Y-79613783D01*
X134200974Y-79492642D01*
X134185209Y-79495291D01*
X133657964Y-79749268D01*
X133268046Y-80185680D01*
X133172704Y-80458243D01*
X133169860Y-80443943D01*
X132900065Y-80040166D01*
X132651000Y-79873746D01*
X132651000Y-78726254D01*
X132900065Y-78559834D01*
X133169860Y-78156057D01*
X133172704Y-78141757D01*
X133268046Y-78414320D01*
X133657964Y-78850732D01*
X134185209Y-79104709D01*
X134200974Y-79107358D01*
X134433000Y-78986217D01*
X134433000Y-77627000D01*
X134413000Y-77627000D01*
X134413000Y-77373000D01*
X134433000Y-77373000D01*
X134433000Y-76013783D01*
X134200974Y-75892642D01*
X134185209Y-75895291D01*
X133657964Y-76149268D01*
X133268046Y-76585680D01*
X133172704Y-76858243D01*
X133169860Y-76843943D01*
X132900065Y-76440166D01*
X132496288Y-76170371D01*
X132020000Y-76075631D01*
X131543712Y-76170371D01*
X131139935Y-76440166D01*
X130870140Y-76843943D01*
X130775400Y-77320231D01*
X130724600Y-77320231D01*
X130629860Y-76843943D01*
X130420758Y-76531000D01*
X130700000Y-76531000D01*
X130941473Y-76482968D01*
X131146184Y-76346184D01*
X132216185Y-75276184D01*
X132352968Y-75071473D01*
X132401000Y-74830000D01*
X132401000Y-74440868D01*
X132650065Y-74274448D01*
X132919860Y-73870671D01*
X133014600Y-73394383D01*
X133014600Y-73345617D01*
X133065400Y-73345617D01*
X133065400Y-73394383D01*
X133160140Y-73870671D01*
X133429935Y-74274448D01*
X133833712Y-74544243D01*
X134310000Y-74638983D01*
X134624130Y-74576498D01*
X135763816Y-75716185D01*
X135914745Y-75817032D01*
X135968527Y-75852968D01*
X136210000Y-75901000D01*
X137508632Y-75901000D01*
X137703168Y-76095536D01*
X136236400Y-76095536D01*
X136087741Y-76125106D01*
X135961714Y-76209314D01*
X135877506Y-76335341D01*
X135847936Y-76484000D01*
X135847936Y-76581183D01*
X135462036Y-76149268D01*
X134934791Y-75895291D01*
X134919026Y-75892642D01*
X134687000Y-76013783D01*
X134687000Y-77373000D01*
X134707000Y-77373000D01*
X134707000Y-77627000D01*
X134687000Y-77627000D01*
X134687000Y-78986217D01*
X134919026Y-79107358D01*
X134934791Y-79104709D01*
X135462036Y-78850732D01*
X135847936Y-78418817D01*
X135847936Y-78516000D01*
X135877506Y-78664659D01*
X135961714Y-78790686D01*
X136087741Y-78874894D01*
X136236400Y-78904464D01*
X136469000Y-78904464D01*
X136469000Y-79695536D01*
X136236400Y-79695536D01*
X136087741Y-79725106D01*
X135961714Y-79809314D01*
X135877506Y-79935341D01*
X135847936Y-80084000D01*
X135847936Y-80181183D01*
X135462036Y-79749268D01*
X134934791Y-79495291D01*
X134919026Y-79492642D01*
X134687000Y-79613783D01*
X134687000Y-80973000D01*
X134707000Y-80973000D01*
X134707000Y-81227000D01*
X134687000Y-81227000D01*
X134687000Y-82586217D01*
X134919026Y-82707358D01*
X134934791Y-82704709D01*
X135462036Y-82450732D01*
X135847936Y-82018817D01*
X135847936Y-82116000D01*
X135877506Y-82264659D01*
X135961714Y-82390686D01*
X136087741Y-82474894D01*
X136236400Y-82504464D01*
X136469000Y-82504464D01*
X136469000Y-83295536D01*
X136236400Y-83295536D01*
X136087741Y-83325106D01*
X135961714Y-83409314D01*
X135877506Y-83535341D01*
X135847936Y-83684000D01*
X135847936Y-83781183D01*
X135462036Y-83349268D01*
X134934791Y-83095291D01*
X134919026Y-83092642D01*
X134687000Y-83213783D01*
X134687000Y-84573000D01*
X134707000Y-84573000D01*
X134707000Y-84827000D01*
X134687000Y-84827000D01*
X134687000Y-86186217D01*
X134919026Y-86307358D01*
X134934791Y-86304709D01*
X135462036Y-86050732D01*
X135847936Y-85618817D01*
X135847936Y-85716000D01*
X135877506Y-85864659D01*
X135961714Y-85990686D01*
X136087741Y-86074894D01*
X136236400Y-86104464D01*
X136469000Y-86104464D01*
X136469000Y-86895536D01*
X136236400Y-86895536D01*
X136087741Y-86925106D01*
X135961714Y-87009314D01*
X135877506Y-87135341D01*
X135847936Y-87284000D01*
X135847936Y-87381183D01*
X135462036Y-86949268D01*
X134934791Y-86695291D01*
X134919026Y-86692642D01*
X134687000Y-86813783D01*
X134687000Y-88173000D01*
X134707000Y-88173000D01*
X134707000Y-88427000D01*
X134687000Y-88427000D01*
X134687000Y-89786217D01*
X134919026Y-89907358D01*
X134934791Y-89904709D01*
X135462036Y-89650732D01*
X135847936Y-89218817D01*
X135847936Y-89316000D01*
X135877506Y-89464659D01*
X135961714Y-89590686D01*
X136087741Y-89674894D01*
X136236400Y-89704464D01*
X136469000Y-89704464D01*
X136469000Y-90495536D01*
X136236400Y-90495536D01*
X136087741Y-90525106D01*
X135961714Y-90609314D01*
X135877506Y-90735341D01*
X135847936Y-90884000D01*
X135847936Y-90981183D01*
X135462036Y-90549268D01*
X134934791Y-90295291D01*
X134919026Y-90292642D01*
X134687000Y-90413783D01*
X134687000Y-91773000D01*
X134707000Y-91773000D01*
X134707000Y-92027000D01*
X134687000Y-92027000D01*
X134687000Y-93386217D01*
X134919026Y-93507358D01*
X134934791Y-93504709D01*
X135462036Y-93250732D01*
X135847936Y-92818817D01*
X135847936Y-92916000D01*
X135877506Y-93064659D01*
X135961714Y-93190686D01*
X136087741Y-93274894D01*
X136236400Y-93304464D01*
X137963600Y-93304464D01*
X138112259Y-93274894D01*
X138238286Y-93190686D01*
X138322494Y-93064659D01*
X138352064Y-92916000D01*
X138352064Y-90884000D01*
X138322494Y-90735341D01*
X138238286Y-90609314D01*
X138112259Y-90525106D01*
X137963600Y-90495536D01*
X137731000Y-90495536D01*
X137731000Y-89704464D01*
X137963600Y-89704464D01*
X138112259Y-89674894D01*
X138238286Y-89590686D01*
X138322494Y-89464659D01*
X138352064Y-89316000D01*
X138352064Y-87284000D01*
X138322494Y-87135341D01*
X138238286Y-87009314D01*
X138112259Y-86925106D01*
X137963600Y-86895536D01*
X137731000Y-86895536D01*
X137731000Y-86104464D01*
X137963600Y-86104464D01*
X138112259Y-86074894D01*
X138238286Y-85990686D01*
X138322494Y-85864659D01*
X138352064Y-85716000D01*
X138352064Y-83684000D01*
X138322494Y-83535341D01*
X138238286Y-83409314D01*
X138112259Y-83325106D01*
X137963600Y-83295536D01*
X137731000Y-83295536D01*
X137731000Y-82504464D01*
X137963600Y-82504464D01*
X138112259Y-82474894D01*
X138238286Y-82390686D01*
X138322494Y-82264659D01*
X138352064Y-82116000D01*
X138352064Y-80084000D01*
X138322494Y-79935341D01*
X138238286Y-79809314D01*
X138112259Y-79725106D01*
X137963600Y-79695536D01*
X137731000Y-79695536D01*
X137731000Y-78904464D01*
X137963600Y-78904464D01*
X138112259Y-78874894D01*
X138238286Y-78790686D01*
X138322494Y-78664659D01*
X138352064Y-78516000D01*
X138352064Y-76744433D01*
X138479000Y-76871369D01*
X138479000Y-93700000D01*
X138487716Y-93743816D01*
X138527032Y-93941473D01*
X138663816Y-94146184D01*
X141063816Y-96546185D01*
X141268527Y-96682968D01*
X141510000Y-96731000D01*
X142514826Y-96731000D01*
X142831697Y-97048423D01*
X142849000Y-97055608D01*
X142849000Y-101603995D01*
X142833388Y-101610446D01*
X142511577Y-101931697D01*
X142337199Y-102351646D01*
X142336802Y-102806359D01*
X142510446Y-103226612D01*
X142831697Y-103548423D01*
X143251646Y-103722801D01*
X143706359Y-103723198D01*
X144126612Y-103549554D01*
X144448423Y-103228303D01*
X144622801Y-102808354D01*
X144623198Y-102353641D01*
X144449554Y-101933388D01*
X144128303Y-101611577D01*
X144111000Y-101604392D01*
X144111000Y-97056005D01*
X144126612Y-97049554D01*
X144448423Y-96728303D01*
X144622801Y-96308354D01*
X144623198Y-95853641D01*
X144449554Y-95433388D01*
X144128303Y-95111577D01*
X143708354Y-94937199D01*
X143253641Y-94936802D01*
X142833388Y-95110446D01*
X142511577Y-95431697D01*
X142496087Y-95469000D01*
X142118918Y-95469000D01*
X142155966Y-95453692D01*
X142382895Y-95227158D01*
X142505859Y-94931027D01*
X142506139Y-94610380D01*
X142383692Y-94314034D01*
X142331000Y-94261250D01*
X142331000Y-93602179D01*
X142374736Y-93572956D01*
X142458944Y-93446929D01*
X142488514Y-93298270D01*
X142488514Y-92498170D01*
X142458944Y-92349511D01*
X142374736Y-92223484D01*
X142248709Y-92139276D01*
X142100050Y-92109706D01*
X141299950Y-92109706D01*
X141151291Y-92139276D01*
X141025264Y-92223484D01*
X140941056Y-92349511D01*
X140911486Y-92498170D01*
X140911486Y-93298270D01*
X140941056Y-93446929D01*
X141025264Y-93572956D01*
X141069000Y-93602179D01*
X141069000Y-94261037D01*
X141017105Y-94312842D01*
X140899188Y-94596819D01*
X139741000Y-93438632D01*
X139741000Y-91488490D01*
X139811623Y-91658989D01*
X139990252Y-91837617D01*
X140223641Y-91934290D01*
X140464250Y-91934290D01*
X140623000Y-91775540D01*
X140623000Y-91026240D01*
X140877000Y-91026240D01*
X140877000Y-91775540D01*
X141035750Y-91934290D01*
X141276359Y-91934290D01*
X141509748Y-91837617D01*
X141688377Y-91658989D01*
X141785050Y-91425600D01*
X141785050Y-91184990D01*
X141626300Y-91026240D01*
X140877000Y-91026240D01*
X140623000Y-91026240D01*
X140603000Y-91026240D01*
X140603000Y-90772240D01*
X140623000Y-90772240D01*
X140623000Y-90022940D01*
X140877000Y-90022940D01*
X140877000Y-90772240D01*
X141626300Y-90772240D01*
X141785050Y-90613490D01*
X141785050Y-90372880D01*
X141688377Y-90139491D01*
X141509748Y-89960863D01*
X141276359Y-89864190D01*
X141035750Y-89864190D01*
X140877000Y-90022940D01*
X140623000Y-90022940D01*
X140464250Y-89864190D01*
X140223641Y-89864190D01*
X139990252Y-89960863D01*
X139811623Y-90139491D01*
X139741000Y-90309990D01*
X139741000Y-85873691D01*
X139815000Y-85873691D01*
X139815000Y-86314250D01*
X139973750Y-86473000D01*
X140773000Y-86473000D01*
X140773000Y-85523750D01*
X140614250Y-85365000D01*
X140323690Y-85365000D01*
X140090301Y-85461673D01*
X139911673Y-85640302D01*
X139815000Y-85873691D01*
X139741000Y-85873691D01*
X139741000Y-76610000D01*
X139692968Y-76368527D01*
X139692968Y-76368526D01*
X139556184Y-76163815D01*
X138216184Y-74823816D01*
X138011473Y-74687032D01*
X137770000Y-74639000D01*
X137639943Y-74639000D01*
X138056821Y-74258490D01*
X138239676Y-73868338D01*
X138240140Y-73870671D01*
X138509935Y-74274448D01*
X138759000Y-74440868D01*
X138759000Y-74800000D01*
X138792801Y-74969928D01*
X138807032Y-75041473D01*
X138943816Y-75246184D01*
X140159000Y-76461368D01*
X140159000Y-77811037D01*
X140107105Y-77862842D01*
X139984141Y-78158973D01*
X139983861Y-78479620D01*
X140106308Y-78775966D01*
X140332842Y-79002895D01*
X140628973Y-79125859D01*
X140949620Y-79126139D01*
X141245966Y-79003692D01*
X141299000Y-78950750D01*
X141299000Y-79130000D01*
X141330826Y-79290000D01*
X141347032Y-79371473D01*
X141483816Y-79576184D01*
X141969000Y-80061368D01*
X141969000Y-85662715D01*
X141913086Y-85700076D01*
X141888327Y-85640302D01*
X141709699Y-85461673D01*
X141476310Y-85365000D01*
X141185750Y-85365000D01*
X141027000Y-85523750D01*
X141027000Y-86473000D01*
X141047000Y-86473000D01*
X141047000Y-86727000D01*
X141027000Y-86727000D01*
X141027000Y-86747000D01*
X140773000Y-86747000D01*
X140773000Y-86727000D01*
X139973750Y-86727000D01*
X139815000Y-86885750D01*
X139815000Y-87326309D01*
X139911673Y-87559698D01*
X140090301Y-87738327D01*
X140323690Y-87835000D01*
X140332038Y-87835000D01*
X140301341Y-87841106D01*
X140175314Y-87925314D01*
X140091106Y-88051341D01*
X140061536Y-88200000D01*
X140061536Y-89400000D01*
X140091106Y-89548659D01*
X140175314Y-89674686D01*
X140301341Y-89758894D01*
X140450000Y-89788464D01*
X141350000Y-89788464D01*
X141498659Y-89758894D01*
X141624686Y-89674686D01*
X141708894Y-89548659D01*
X141732298Y-89431000D01*
X141767702Y-89431000D01*
X141791106Y-89548659D01*
X141875314Y-89674686D01*
X142001341Y-89758894D01*
X142019000Y-89762407D01*
X142019000Y-90195281D01*
X141975264Y-90224504D01*
X141891056Y-90350531D01*
X141861486Y-90499190D01*
X141861486Y-91299290D01*
X141891056Y-91447949D01*
X141975264Y-91573976D01*
X142101291Y-91658184D01*
X142249950Y-91687754D01*
X143050050Y-91687754D01*
X143198709Y-91658184D01*
X143286885Y-91599267D01*
X143311623Y-91658989D01*
X143490252Y-91837617D01*
X143723641Y-91934290D01*
X143964250Y-91934290D01*
X144123000Y-91775540D01*
X144123000Y-91026240D01*
X144377000Y-91026240D01*
X144377000Y-91775540D01*
X144535750Y-91934290D01*
X144776359Y-91934290D01*
X145009748Y-91837617D01*
X145188377Y-91658989D01*
X145285050Y-91425600D01*
X145285050Y-91184990D01*
X145126300Y-91026240D01*
X144377000Y-91026240D01*
X144123000Y-91026240D01*
X144103000Y-91026240D01*
X144103000Y-90772240D01*
X144123000Y-90772240D01*
X144123000Y-90022940D01*
X144377000Y-90022940D01*
X144377000Y-90772240D01*
X145126300Y-90772240D01*
X145285050Y-90613490D01*
X145285050Y-90372880D01*
X145188377Y-90139491D01*
X145009748Y-89960863D01*
X144776359Y-89864190D01*
X144535750Y-89864190D01*
X144377000Y-90022940D01*
X144123000Y-90022940D01*
X143964250Y-89864190D01*
X143723641Y-89864190D01*
X143490252Y-89960863D01*
X143311623Y-90139491D01*
X143286885Y-90199213D01*
X143281000Y-90195281D01*
X143281000Y-89703876D01*
X143324686Y-89674686D01*
X143408894Y-89548659D01*
X143438464Y-89400000D01*
X143438464Y-88200000D01*
X143408894Y-88051341D01*
X143324686Y-87925314D01*
X143198659Y-87841106D01*
X143050000Y-87811536D01*
X142150000Y-87811536D01*
X142001341Y-87841106D01*
X141875314Y-87925314D01*
X141791106Y-88051341D01*
X141767702Y-88169000D01*
X141732298Y-88169000D01*
X141708894Y-88051341D01*
X141624686Y-87925314D01*
X141498659Y-87841106D01*
X141467962Y-87835000D01*
X141476310Y-87835000D01*
X141709699Y-87738327D01*
X141888327Y-87559698D01*
X141913086Y-87499924D01*
X142001341Y-87558894D01*
X142150000Y-87588464D01*
X143050000Y-87588464D01*
X143198659Y-87558894D01*
X143324686Y-87474686D01*
X143408894Y-87348659D01*
X143438464Y-87200000D01*
X143438464Y-86000000D01*
X143408894Y-85851341D01*
X143324686Y-85725314D01*
X143231000Y-85662715D01*
X143231000Y-79800000D01*
X143182968Y-79558527D01*
X143046184Y-79353816D01*
X142561000Y-78868632D01*
X142561000Y-74440868D01*
X142810065Y-74274448D01*
X143079860Y-73870671D01*
X143174600Y-73394383D01*
X143174600Y-73345617D01*
X143225400Y-73345617D01*
X143225400Y-73394383D01*
X143320140Y-73870671D01*
X143589935Y-74274448D01*
X143839000Y-74440868D01*
X143839000Y-79270000D01*
X143878192Y-79467032D01*
X143887032Y-79511473D01*
X144023816Y-79716184D01*
X145369000Y-81061369D01*
X145369000Y-85662715D01*
X145275314Y-85725314D01*
X145191106Y-85851341D01*
X145161536Y-86000000D01*
X145161536Y-87200000D01*
X145191106Y-87348659D01*
X145275314Y-87474686D01*
X145401341Y-87558894D01*
X145550000Y-87588464D01*
X146450000Y-87588464D01*
X146598659Y-87558894D01*
X146724686Y-87474686D01*
X146808894Y-87348659D01*
X146838464Y-87200000D01*
X146838464Y-86000000D01*
X146808894Y-85851341D01*
X146724686Y-85725314D01*
X146631000Y-85662715D01*
X146631000Y-80800000D01*
X146582968Y-80558527D01*
X146523148Y-80469000D01*
X146446185Y-80353816D01*
X145101000Y-79008632D01*
X145101000Y-74440868D01*
X145350065Y-74274448D01*
X145619860Y-73870671D01*
X145714600Y-73394383D01*
X145714600Y-73345617D01*
X145619860Y-72869329D01*
X145350065Y-72465552D01*
X144946288Y-72195757D01*
X144470000Y-72101017D01*
X143993712Y-72195757D01*
X143589935Y-72465552D01*
X143320140Y-72869329D01*
X143225400Y-73345617D01*
X143174600Y-73345617D01*
X143079860Y-72869329D01*
X142810065Y-72465552D01*
X142443828Y-72220841D01*
X142704947Y-72112688D01*
X143136821Y-71718490D01*
X143319676Y-71328338D01*
X143320140Y-71330671D01*
X143589935Y-71734448D01*
X143993712Y-72004243D01*
X144470000Y-72098983D01*
X144946288Y-72004243D01*
X145350065Y-71734448D01*
X145619860Y-71330671D01*
X145620324Y-71328338D01*
X145803179Y-71718490D01*
X146235053Y-72112688D01*
X146496172Y-72220841D01*
X146129935Y-72465552D01*
X145860140Y-72869329D01*
X145765400Y-73345617D01*
X145765400Y-73394383D01*
X145860140Y-73870671D01*
X146129935Y-74274448D01*
X146379000Y-74440868D01*
X146379000Y-76410000D01*
X146418783Y-76610000D01*
X146427032Y-76651473D01*
X146563816Y-76856184D01*
X146899000Y-77191368D01*
X146899000Y-90335649D01*
X146824736Y-90224504D01*
X146781000Y-90195281D01*
X146781000Y-89590406D01*
X146808894Y-89548659D01*
X146838464Y-89400000D01*
X146838464Y-88200000D01*
X146808894Y-88051341D01*
X146724686Y-87925314D01*
X146598659Y-87841106D01*
X146450000Y-87811536D01*
X145550000Y-87811536D01*
X145401341Y-87841106D01*
X145275314Y-87925314D01*
X145191106Y-88051341D01*
X145161536Y-88200000D01*
X145161536Y-89400000D01*
X145191106Y-89548659D01*
X145275314Y-89674686D01*
X145401341Y-89758894D01*
X145519000Y-89782298D01*
X145519000Y-90195281D01*
X145475264Y-90224504D01*
X145391056Y-90350531D01*
X145361486Y-90499190D01*
X145361486Y-91299290D01*
X145391056Y-91447949D01*
X145475264Y-91573976D01*
X145601291Y-91658184D01*
X145749950Y-91687754D01*
X146550050Y-91687754D01*
X146698709Y-91658184D01*
X146824736Y-91573976D01*
X146899000Y-91462831D01*
X146899000Y-94876715D01*
X146805314Y-94939314D01*
X146721106Y-95065341D01*
X146691536Y-95214000D01*
X146691536Y-96414000D01*
X146721106Y-96562659D01*
X146805314Y-96688686D01*
X146931341Y-96772894D01*
X147080000Y-96802464D01*
X147980000Y-96802464D01*
X148128659Y-96772894D01*
X148254686Y-96688686D01*
X148338894Y-96562659D01*
X148368464Y-96414000D01*
X148368464Y-95214000D01*
X148338894Y-95065341D01*
X148254686Y-94939314D01*
X148161000Y-94876715D01*
X148161000Y-92654223D01*
X148620959Y-92871914D01*
X148843000Y-92750629D01*
X148843000Y-91607000D01*
X148823000Y-91607000D01*
X148823000Y-91353000D01*
X148843000Y-91353000D01*
X148843000Y-89067000D01*
X148823000Y-89067000D01*
X148823000Y-88813000D01*
X148843000Y-88813000D01*
X148843000Y-86527000D01*
X148823000Y-86527000D01*
X148823000Y-86273000D01*
X148843000Y-86273000D01*
X148843000Y-83987000D01*
X148823000Y-83987000D01*
X148823000Y-83733000D01*
X148843000Y-83733000D01*
X148843000Y-82589371D01*
X148620959Y-82468086D01*
X148161000Y-82685777D01*
X148161000Y-76930000D01*
X148112968Y-76688527D01*
X147976184Y-76483816D01*
X147641000Y-76148632D01*
X147641000Y-74440868D01*
X147890065Y-74274448D01*
X148159860Y-73870671D01*
X148254600Y-73394383D01*
X148254600Y-73345617D01*
X148305400Y-73345617D01*
X148305400Y-73394383D01*
X148400140Y-73870671D01*
X148669935Y-74274448D01*
X148919000Y-74440868D01*
X148919000Y-76550000D01*
X148962960Y-76771000D01*
X148967032Y-76791473D01*
X149103816Y-76996184D01*
X150269000Y-78161369D01*
X150269000Y-83286656D01*
X150201041Y-83122577D01*
X149825134Y-82707611D01*
X149319041Y-82468086D01*
X149097000Y-82589371D01*
X149097000Y-83733000D01*
X149117000Y-83733000D01*
X149117000Y-83987000D01*
X149097000Y-83987000D01*
X149097000Y-86273000D01*
X149117000Y-86273000D01*
X149117000Y-86527000D01*
X149097000Y-86527000D01*
X149097000Y-88813000D01*
X149117000Y-88813000D01*
X149117000Y-89067000D01*
X149097000Y-89067000D01*
X149097000Y-91353000D01*
X149117000Y-91353000D01*
X149117000Y-91607000D01*
X149097000Y-91607000D01*
X149097000Y-92750629D01*
X149319041Y-92871914D01*
X149825134Y-92632389D01*
X150201041Y-92217423D01*
X150269000Y-92053344D01*
X150269000Y-92738632D01*
X148861816Y-94145816D01*
X148725032Y-94350527D01*
X148677000Y-94592000D01*
X148677000Y-94876715D01*
X148583314Y-94939314D01*
X148499106Y-95065341D01*
X148469536Y-95214000D01*
X148469536Y-96414000D01*
X148499106Y-96562659D01*
X148583314Y-96688686D01*
X148709341Y-96772894D01*
X148858000Y-96802464D01*
X149758000Y-96802464D01*
X149902657Y-96773690D01*
X152112500Y-96773690D01*
X152112500Y-97114250D01*
X152271250Y-97273000D01*
X153573000Y-97273000D01*
X153573000Y-97253000D01*
X153827000Y-97253000D01*
X153827000Y-97273000D01*
X155128750Y-97273000D01*
X155287500Y-97114250D01*
X155287500Y-96773690D01*
X155269817Y-96731000D01*
X155438632Y-96731000D01*
X155609000Y-96901369D01*
X155609000Y-100770000D01*
X155638247Y-100917032D01*
X155657032Y-101011473D01*
X155793816Y-101216184D01*
X156716517Y-102138886D01*
X156717032Y-102141473D01*
X156811536Y-102282908D01*
X156811536Y-102350000D01*
X156841106Y-102498659D01*
X156925314Y-102624686D01*
X157051341Y-102708894D01*
X157200000Y-102738464D01*
X158400000Y-102738464D01*
X158548659Y-102708894D01*
X158674686Y-102624686D01*
X158758894Y-102498659D01*
X158788464Y-102350000D01*
X158788464Y-101450000D01*
X158758894Y-101301341D01*
X158674686Y-101175314D01*
X158548659Y-101091106D01*
X158400000Y-101061536D01*
X157423905Y-101061536D01*
X156871000Y-100508632D01*
X156871000Y-99422944D01*
X157194025Y-99422944D01*
X157393615Y-99904818D01*
X157831621Y-100377188D01*
X158417054Y-100645983D01*
X158673000Y-100527367D01*
X158673000Y-99167000D01*
X157313164Y-99167000D01*
X157194025Y-99422944D01*
X156871000Y-99422944D01*
X156871000Y-96640000D01*
X156822968Y-96398527D01*
X156822968Y-96398526D01*
X156686184Y-96193815D01*
X156146184Y-95653816D01*
X155941473Y-95517032D01*
X155700000Y-95469000D01*
X154789555Y-95469000D01*
X154515769Y-95286062D01*
X154178625Y-95219000D01*
X153221375Y-95219000D01*
X152884231Y-95286062D01*
X152598414Y-95477039D01*
X152407437Y-95762856D01*
X152340375Y-96100000D01*
X152392073Y-96359904D01*
X152387802Y-96361673D01*
X152209173Y-96540301D01*
X152112500Y-96773690D01*
X149902657Y-96773690D01*
X149906659Y-96772894D01*
X150032686Y-96688686D01*
X150116894Y-96562659D01*
X150146464Y-96414000D01*
X150146464Y-95214000D01*
X150116894Y-95065341D01*
X150032686Y-94939314D01*
X149939000Y-94876715D01*
X149939000Y-94853368D01*
X151346184Y-93446184D01*
X151482968Y-93241473D01*
X151506881Y-93121252D01*
X151531000Y-93000000D01*
X151531000Y-78509620D01*
X151613861Y-78509620D01*
X151736308Y-78805966D01*
X151789000Y-78858750D01*
X151789000Y-87260000D01*
X151819273Y-87412193D01*
X151837032Y-87501473D01*
X151973816Y-87706184D01*
X155445884Y-91178253D01*
X155385863Y-91480000D01*
X155475761Y-91931949D01*
X155731770Y-92315093D01*
X156114914Y-92571102D01*
X156566863Y-92661000D01*
X156613137Y-92661000D01*
X157065086Y-92571102D01*
X157448230Y-92315093D01*
X157704239Y-91931949D01*
X157794137Y-91480000D01*
X157704239Y-91028051D01*
X157448230Y-90644907D01*
X157065086Y-90388898D01*
X156613137Y-90299000D01*
X156566863Y-90299000D01*
X156387122Y-90334753D01*
X156020154Y-89967785D01*
X156114914Y-90031102D01*
X156566863Y-90121000D01*
X156613137Y-90121000D01*
X157065086Y-90031102D01*
X157448230Y-89775093D01*
X157704239Y-89391949D01*
X157794137Y-88940000D01*
X157704239Y-88488051D01*
X157448230Y-88104907D01*
X157065086Y-87848898D01*
X156613137Y-87759000D01*
X156566863Y-87759000D01*
X156114914Y-87848898D01*
X155890929Y-87998561D01*
X155031000Y-87138632D01*
X155031000Y-83860000D01*
X155385863Y-83860000D01*
X155475761Y-84311949D01*
X155731770Y-84695093D01*
X156114914Y-84951102D01*
X156566863Y-85041000D01*
X156613137Y-85041000D01*
X157065086Y-84951102D01*
X157448230Y-84695093D01*
X157584601Y-84491000D01*
X157987702Y-84491000D01*
X158011106Y-84608659D01*
X158095314Y-84734686D01*
X158221341Y-84818894D01*
X158370000Y-84848464D01*
X159270000Y-84848464D01*
X159418659Y-84818894D01*
X159544686Y-84734686D01*
X159628894Y-84608659D01*
X159658464Y-84460000D01*
X159658464Y-83260000D01*
X159628894Y-83111341D01*
X159544686Y-82985314D01*
X159418659Y-82901106D01*
X159270000Y-82871536D01*
X158370000Y-82871536D01*
X158221341Y-82901106D01*
X158095314Y-82985314D01*
X158011106Y-83111341D01*
X157987702Y-83229000D01*
X157584601Y-83229000D01*
X157448230Y-83024907D01*
X157221000Y-82873077D01*
X157221000Y-80934287D01*
X157348659Y-80908894D01*
X157474686Y-80824686D01*
X157558894Y-80698659D01*
X157562407Y-80681000D01*
X157992702Y-80681000D01*
X158016106Y-80798659D01*
X158100314Y-80924686D01*
X158226341Y-81008894D01*
X158375000Y-81038464D01*
X159125000Y-81038464D01*
X159273659Y-81008894D01*
X159399686Y-80924686D01*
X159483894Y-80798659D01*
X159513464Y-80650000D01*
X159513464Y-79450000D01*
X159483894Y-79301341D01*
X159477258Y-79291409D01*
X159484699Y-79288327D01*
X159663327Y-79109698D01*
X159760000Y-78876309D01*
X159760000Y-78435750D01*
X159601250Y-78277000D01*
X158877000Y-78277000D01*
X158877000Y-78297000D01*
X158623000Y-78297000D01*
X158623000Y-78277000D01*
X157898750Y-78277000D01*
X157740000Y-78435750D01*
X157740000Y-78876309D01*
X157836673Y-79109698D01*
X158015301Y-79288327D01*
X158022742Y-79291409D01*
X158016106Y-79301341D01*
X157992702Y-79419000D01*
X157503876Y-79419000D01*
X157474686Y-79375314D01*
X157348659Y-79291106D01*
X157231000Y-79267702D01*
X157231000Y-79182298D01*
X157348659Y-79158894D01*
X157474686Y-79074686D01*
X157558894Y-78948659D01*
X157588464Y-78800000D01*
X157588464Y-77900000D01*
X157558894Y-77751341D01*
X157474686Y-77625314D01*
X157348659Y-77541106D01*
X157200000Y-77511536D01*
X156000000Y-77511536D01*
X155851341Y-77541106D01*
X155725314Y-77625314D01*
X155641106Y-77751341D01*
X155611536Y-77900000D01*
X155611536Y-78800000D01*
X155641106Y-78948659D01*
X155725314Y-79074686D01*
X155851341Y-79158894D01*
X155969000Y-79182298D01*
X155969000Y-79267702D01*
X155851341Y-79291106D01*
X155725314Y-79375314D01*
X155641106Y-79501341D01*
X155611536Y-79650000D01*
X155611536Y-80550000D01*
X155641106Y-80698659D01*
X155725314Y-80824686D01*
X155851341Y-80908894D01*
X155959000Y-80930309D01*
X155959000Y-82873077D01*
X155731770Y-83024907D01*
X155475761Y-83408051D01*
X155385863Y-83860000D01*
X155031000Y-83860000D01*
X155031000Y-80932298D01*
X155148659Y-80908894D01*
X155274686Y-80824686D01*
X155358894Y-80698659D01*
X155388464Y-80550000D01*
X155388464Y-79650000D01*
X155358894Y-79501341D01*
X155274686Y-79375314D01*
X155148659Y-79291106D01*
X155000000Y-79261536D01*
X153800000Y-79261536D01*
X153651341Y-79291106D01*
X153525314Y-79375314D01*
X153441106Y-79501341D01*
X153411536Y-79650000D01*
X153411536Y-80550000D01*
X153441106Y-80698659D01*
X153525314Y-80824686D01*
X153651341Y-80908894D01*
X153769000Y-80932298D01*
X153769000Y-87400000D01*
X153803691Y-87574401D01*
X153817032Y-87641473D01*
X153953816Y-87846184D01*
X155469846Y-89362214D01*
X155475761Y-89391949D01*
X155539078Y-89486709D01*
X153051000Y-86998632D01*
X153051000Y-78981000D01*
X153462715Y-78981000D01*
X153525314Y-79074686D01*
X153651341Y-79158894D01*
X153800000Y-79188464D01*
X155000000Y-79188464D01*
X155148659Y-79158894D01*
X155274686Y-79074686D01*
X155358894Y-78948659D01*
X155388464Y-78800000D01*
X155388464Y-77900000D01*
X155358894Y-77751341D01*
X155274686Y-77625314D01*
X155148659Y-77541106D01*
X155000000Y-77511536D01*
X153800000Y-77511536D01*
X153651341Y-77541106D01*
X153525314Y-77625314D01*
X153462715Y-77719000D01*
X152928963Y-77719000D01*
X152877158Y-77667105D01*
X152581027Y-77544141D01*
X152260380Y-77543861D01*
X151964034Y-77666308D01*
X151737105Y-77892842D01*
X151614141Y-78188973D01*
X151613861Y-78509620D01*
X151531000Y-78509620D01*
X151531000Y-77900000D01*
X151482968Y-77658527D01*
X151482968Y-77658526D01*
X151346184Y-77453815D01*
X150181000Y-76288632D01*
X150181000Y-74440868D01*
X150430065Y-74274448D01*
X150699860Y-73870671D01*
X150794600Y-73394383D01*
X150794600Y-73345617D01*
X150699860Y-72869329D01*
X150430065Y-72465552D01*
X150026288Y-72195757D01*
X149550000Y-72101017D01*
X149073712Y-72195757D01*
X148669935Y-72465552D01*
X148400140Y-72869329D01*
X148305400Y-73345617D01*
X148254600Y-73345617D01*
X148159860Y-72869329D01*
X147890065Y-72465552D01*
X147523828Y-72220841D01*
X147784947Y-72112688D01*
X148216821Y-71718490D01*
X148399676Y-71328338D01*
X148400140Y-71330671D01*
X148669935Y-71734448D01*
X149073712Y-72004243D01*
X149550000Y-72098983D01*
X150026288Y-72004243D01*
X150430065Y-71734448D01*
X150699860Y-71330671D01*
X150794600Y-70854383D01*
X150794600Y-70805617D01*
X150845400Y-70805617D01*
X150845400Y-70854383D01*
X150940140Y-71330671D01*
X151209935Y-71734448D01*
X151613712Y-72004243D01*
X152090000Y-72098983D01*
X152566288Y-72004243D01*
X152970065Y-71734448D01*
X153239860Y-71330671D01*
X153334600Y-70854383D01*
X153334600Y-70805617D01*
X153239860Y-70329329D01*
X152970065Y-69925552D01*
X152566288Y-69655757D01*
X152090000Y-69561017D01*
X151613712Y-69655757D01*
X151209935Y-69925552D01*
X150940140Y-70329329D01*
X150845400Y-70805617D01*
X150794600Y-70805617D01*
X150699860Y-70329329D01*
X150430065Y-69925552D01*
X150026288Y-69655757D01*
X149550000Y-69561017D01*
X149073712Y-69655757D01*
X148669935Y-69925552D01*
X148400140Y-70329329D01*
X148399676Y-70331662D01*
X148216821Y-69941510D01*
X147784947Y-69547312D01*
X147369026Y-69375042D01*
X147137000Y-69496183D01*
X147137000Y-70703000D01*
X147157000Y-70703000D01*
X147157000Y-70957000D01*
X147137000Y-70957000D01*
X147137000Y-70977000D01*
X146883000Y-70977000D01*
X146883000Y-70957000D01*
X146863000Y-70957000D01*
X146863000Y-70703000D01*
X146883000Y-70703000D01*
X146883000Y-69496183D01*
X146650974Y-69375042D01*
X146235053Y-69547312D01*
X145803179Y-69941510D01*
X145620324Y-70331662D01*
X145619860Y-70329329D01*
X145350065Y-69925552D01*
X144946288Y-69655757D01*
X144470000Y-69561017D01*
X143993712Y-69655757D01*
X143589935Y-69925552D01*
X143320140Y-70329329D01*
X143319676Y-70331662D01*
X143136821Y-69941510D01*
X142704947Y-69547312D01*
X142289026Y-69375042D01*
X142057000Y-69496183D01*
X142057000Y-70703000D01*
X142077000Y-70703000D01*
X142077000Y-70957000D01*
X142057000Y-70957000D01*
X142057000Y-70977000D01*
X141803000Y-70977000D01*
X141803000Y-70957000D01*
X141783000Y-70957000D01*
X141783000Y-70703000D01*
X141803000Y-70703000D01*
X141803000Y-69496183D01*
X141570974Y-69375042D01*
X141155053Y-69547312D01*
X140723179Y-69941510D01*
X140540324Y-70331662D01*
X140539860Y-70329329D01*
X140270065Y-69925552D01*
X139866288Y-69655757D01*
X139390000Y-69561017D01*
X138913712Y-69655757D01*
X138509935Y-69925552D01*
X138240140Y-70329329D01*
X138145400Y-70805617D01*
X138145400Y-70854383D01*
X138240140Y-71330671D01*
X138509935Y-71734448D01*
X138913712Y-72004243D01*
X139390000Y-72098983D01*
X139866288Y-72004243D01*
X140270065Y-71734448D01*
X140539860Y-71330671D01*
X140540324Y-71328338D01*
X140723179Y-71718490D01*
X141155053Y-72112688D01*
X141416172Y-72220841D01*
X141049935Y-72465552D01*
X140780140Y-72869329D01*
X140685400Y-73345617D01*
X140685400Y-73394383D01*
X140780140Y-73870671D01*
X141049935Y-74274448D01*
X141299000Y-74440868D01*
X141299000Y-75847826D01*
X141236184Y-75753816D01*
X140021000Y-74538632D01*
X140021000Y-74440868D01*
X140270065Y-74274448D01*
X140539860Y-73870671D01*
X140634600Y-73394383D01*
X140634600Y-73345617D01*
X140539860Y-72869329D01*
X140270065Y-72465552D01*
X139866288Y-72195757D01*
X139390000Y-72101017D01*
X138913712Y-72195757D01*
X138509935Y-72465552D01*
X138240140Y-72869329D01*
X138239676Y-72871662D01*
X138056821Y-72481510D01*
X137624947Y-72087312D01*
X137363828Y-71979159D01*
X137730065Y-71734448D01*
X137999860Y-71330671D01*
X138094600Y-70854383D01*
X138094600Y-70805617D01*
X137999860Y-70329329D01*
X137730065Y-69925552D01*
X137326288Y-69655757D01*
X136850000Y-69561017D01*
X136373712Y-69655757D01*
X135969935Y-69925552D01*
X135700140Y-70329329D01*
X135605400Y-70805617D01*
X135605400Y-70854383D01*
X135700140Y-71330671D01*
X135969935Y-71734448D01*
X136336172Y-71979159D01*
X136075053Y-72087312D01*
X135643179Y-72481510D01*
X135460324Y-72871662D01*
X135459860Y-72869329D01*
X135190065Y-72465552D01*
X134786288Y-72195757D01*
X134310000Y-72101017D01*
X133833712Y-72195757D01*
X133429935Y-72465552D01*
X133160140Y-72869329D01*
X133065400Y-73345617D01*
X133014600Y-73345617D01*
X132919860Y-72869329D01*
X132650065Y-72465552D01*
X132246288Y-72195757D01*
X131770000Y-72101017D01*
X131293712Y-72195757D01*
X130889935Y-72465552D01*
X130620140Y-72869329D01*
X130525400Y-73345617D01*
X130525400Y-73394383D01*
X130620140Y-73870671D01*
X130889935Y-74274448D01*
X131139000Y-74440868D01*
X131139000Y-74568631D01*
X130438632Y-75269000D01*
X128523369Y-75269000D01*
X129166097Y-74626272D01*
X129230000Y-74638983D01*
X129706288Y-74544243D01*
X130110065Y-74274448D01*
X130379860Y-73870671D01*
X130474600Y-73394383D01*
X130474600Y-73345617D01*
X130379860Y-72869329D01*
X130110065Y-72465552D01*
X129743828Y-72220841D01*
X130004947Y-72112688D01*
X130436821Y-71718490D01*
X130619676Y-71328338D01*
X130620140Y-71330671D01*
X130889935Y-71734448D01*
X131293712Y-72004243D01*
X131770000Y-72098983D01*
X132246288Y-72004243D01*
X132650065Y-71734448D01*
X132919860Y-71330671D01*
X133014600Y-70854383D01*
X133014600Y-70805617D01*
X133065400Y-70805617D01*
X133065400Y-70854383D01*
X133160140Y-71330671D01*
X133429935Y-71734448D01*
X133833712Y-72004243D01*
X134310000Y-72098983D01*
X134786288Y-72004243D01*
X135190065Y-71734448D01*
X135459860Y-71330671D01*
X135554600Y-70854383D01*
X135554600Y-70805617D01*
X135459860Y-70329329D01*
X135190065Y-69925552D01*
X134786288Y-69655757D01*
X134310000Y-69561017D01*
X133833712Y-69655757D01*
X133429935Y-69925552D01*
X133160140Y-70329329D01*
X133065400Y-70805617D01*
X133014600Y-70805617D01*
X132919860Y-70329329D01*
X132650065Y-69925552D01*
X132246288Y-69655757D01*
X131770000Y-69561017D01*
X131293712Y-69655757D01*
X130889935Y-69925552D01*
X130620140Y-70329329D01*
X130619676Y-70331662D01*
X130436821Y-69941510D01*
X130004947Y-69547312D01*
X129589026Y-69375042D01*
X129357000Y-69496183D01*
X129357000Y-70703000D01*
X129377000Y-70703000D01*
X129377000Y-70957000D01*
X129357000Y-70957000D01*
X129357000Y-70977000D01*
X129103000Y-70977000D01*
X129103000Y-70957000D01*
X129083000Y-70957000D01*
X129083000Y-70703000D01*
X129103000Y-70703000D01*
X129103000Y-69496183D01*
X128870974Y-69375042D01*
X128455053Y-69547312D01*
X128023179Y-69941510D01*
X127840324Y-70331662D01*
X127839860Y-70329329D01*
X127570065Y-69925552D01*
X127166288Y-69655757D01*
X126690000Y-69561017D01*
X126213712Y-69655757D01*
X125809935Y-69925552D01*
X125540140Y-70329329D01*
X125445400Y-70805617D01*
X125445400Y-70854383D01*
X125540140Y-71330671D01*
X125809935Y-71734448D01*
X126213712Y-72004243D01*
X126690000Y-72098983D01*
X127166288Y-72004243D01*
X127570065Y-71734448D01*
X127839860Y-71330671D01*
X127840324Y-71328338D01*
X128023179Y-71718490D01*
X128455053Y-72112688D01*
X128716172Y-72220841D01*
X128349935Y-72465552D01*
X128080140Y-72869329D01*
X127985400Y-73345617D01*
X127985400Y-73394383D01*
X128080140Y-73870671D01*
X128102899Y-73904732D01*
X125853816Y-76153816D01*
X125717032Y-76358527D01*
X125669000Y-76600000D01*
X125669000Y-76676631D01*
X124781000Y-75788632D01*
X124781000Y-74440868D01*
X125030065Y-74274448D01*
X125299860Y-73870671D01*
X125394600Y-73394383D01*
X125394600Y-73345617D01*
X125445400Y-73345617D01*
X125445400Y-73394383D01*
X125540140Y-73870671D01*
X125809935Y-74274448D01*
X126213712Y-74544243D01*
X126690000Y-74638983D01*
X127166288Y-74544243D01*
X127570065Y-74274448D01*
X127839860Y-73870671D01*
X127934600Y-73394383D01*
X127934600Y-73345617D01*
X127839860Y-72869329D01*
X127570065Y-72465552D01*
X127166288Y-72195757D01*
X126690000Y-72101017D01*
X126213712Y-72195757D01*
X125809935Y-72465552D01*
X125540140Y-72869329D01*
X125445400Y-73345617D01*
X125394600Y-73345617D01*
X125299860Y-72869329D01*
X125030065Y-72465552D01*
X124626288Y-72195757D01*
X124150000Y-72101017D01*
X123673712Y-72195757D01*
X123269935Y-72465552D01*
X123000140Y-72869329D01*
X122905400Y-73345617D01*
X122905400Y-73394383D01*
X123000140Y-73870671D01*
X123269935Y-74274448D01*
X123519000Y-74440868D01*
X123519000Y-76026632D01*
X122241000Y-74748632D01*
X122241000Y-74440868D01*
X122490065Y-74274448D01*
X122759860Y-73870671D01*
X122854600Y-73394383D01*
X122854600Y-73345617D01*
X122759860Y-72869329D01*
X122490065Y-72465552D01*
X122123828Y-72220841D01*
X122384947Y-72112688D01*
X122816821Y-71718490D01*
X122999676Y-71328338D01*
X123000140Y-71330671D01*
X123269935Y-71734448D01*
X123673712Y-72004243D01*
X124150000Y-72098983D01*
X124626288Y-72004243D01*
X125030065Y-71734448D01*
X125299860Y-71330671D01*
X125394600Y-70854383D01*
X125394600Y-70805617D01*
X125299860Y-70329329D01*
X125030065Y-69925552D01*
X124626288Y-69655757D01*
X124150000Y-69561017D01*
X123673712Y-69655757D01*
X123269935Y-69925552D01*
X123000140Y-70329329D01*
X122999676Y-70331662D01*
X122816821Y-69941510D01*
X122384947Y-69547312D01*
X121969026Y-69375042D01*
X121737000Y-69496183D01*
X121737000Y-70703000D01*
X121757000Y-70703000D01*
X121757000Y-70957000D01*
X121737000Y-70957000D01*
X121737000Y-70977000D01*
X121483000Y-70977000D01*
X121483000Y-70957000D01*
X121463000Y-70957000D01*
X121463000Y-70703000D01*
X121483000Y-70703000D01*
X121483000Y-69496183D01*
X121250974Y-69375042D01*
X120835053Y-69547312D01*
X120403179Y-69941510D01*
X120220324Y-70331662D01*
X120219860Y-70329329D01*
X119950065Y-69925552D01*
X119546288Y-69655757D01*
X119070000Y-69561017D01*
X118755870Y-69623502D01*
X118188368Y-69056000D01*
X159955089Y-69056000D01*
X160970128Y-69257904D01*
G36*
X136977000Y-73243000D02*
X136997000Y-73243000D01*
X136997000Y-73497000D01*
X136977000Y-73497000D01*
X136977000Y-73517000D01*
X136723000Y-73517000D01*
X136723000Y-73497000D01*
X136703000Y-73497000D01*
X136703000Y-73243000D01*
X136723000Y-73243000D01*
X136723000Y-73223000D01*
X136977000Y-73223000D01*
X136977000Y-73243000D01*
X136977000Y-73243000D01*
G37*
X136977000Y-73243000D02*
X136997000Y-73243000D01*
X136997000Y-73497000D01*
X136977000Y-73497000D01*
X136977000Y-73517000D01*
X136723000Y-73517000D01*
X136723000Y-73497000D01*
X136703000Y-73497000D01*
X136703000Y-73243000D01*
X136723000Y-73243000D01*
X136723000Y-73223000D01*
X136977000Y-73223000D01*
X136977000Y-73243000D01*
G36*
X117879794Y-70532162D02*
X117825400Y-70805617D01*
X117825400Y-70854383D01*
X117920140Y-71330671D01*
X118189935Y-71734448D01*
X118593712Y-72004243D01*
X119070000Y-72098983D01*
X119546288Y-72004243D01*
X119950065Y-71734448D01*
X120219860Y-71330671D01*
X120220324Y-71328338D01*
X120403179Y-71718490D01*
X120835053Y-72112688D01*
X121096172Y-72220841D01*
X120729935Y-72465552D01*
X120460140Y-72869329D01*
X120365400Y-73345617D01*
X120365400Y-73394383D01*
X120460140Y-73870671D01*
X120729935Y-74274448D01*
X120979000Y-74440868D01*
X120979000Y-75010000D01*
X121004859Y-75140000D01*
X121027032Y-75251473D01*
X121163816Y-75456184D01*
X124069000Y-78361368D01*
X124069000Y-93583000D01*
X121731000Y-93583000D01*
X121731000Y-88658963D01*
X121782895Y-88607158D01*
X121905859Y-88311027D01*
X121906139Y-87990380D01*
X121783692Y-87694034D01*
X121557158Y-87467105D01*
X121261027Y-87344141D01*
X120940380Y-87343861D01*
X120644034Y-87466308D01*
X120417105Y-87692842D01*
X120294141Y-87988973D01*
X120293861Y-88309620D01*
X120416308Y-88605966D01*
X120469000Y-88658750D01*
X120469000Y-93583000D01*
X106761000Y-93583000D01*
X106761000Y-84792298D01*
X106878659Y-84768894D01*
X106929000Y-84735257D01*
X106929000Y-88170000D01*
X106966203Y-88357032D01*
X106977032Y-88411473D01*
X107113816Y-88616184D01*
X109353526Y-90855895D01*
X109347936Y-90884000D01*
X109347936Y-92916000D01*
X109377506Y-93064659D01*
X109461714Y-93190686D01*
X109587741Y-93274894D01*
X109736400Y-93304464D01*
X111463600Y-93304464D01*
X111612259Y-93274894D01*
X111738286Y-93190686D01*
X111822494Y-93064659D01*
X111852064Y-92916000D01*
X111852064Y-90884000D01*
X111822494Y-90735341D01*
X111738286Y-90609314D01*
X111612259Y-90525106D01*
X111463600Y-90495536D01*
X110777905Y-90495536D01*
X108191000Y-87908632D01*
X108191000Y-86659620D01*
X109053861Y-86659620D01*
X109176308Y-86955966D01*
X109402842Y-87182895D01*
X109698973Y-87305859D01*
X110019620Y-87306139D01*
X110315966Y-87183692D01*
X110542895Y-86957158D01*
X110665859Y-86661027D01*
X110666139Y-86340380D01*
X110543692Y-86044034D01*
X110491000Y-85991250D01*
X110491000Y-85522179D01*
X110534736Y-85492956D01*
X110618944Y-85366929D01*
X110648514Y-85218270D01*
X110648514Y-84418170D01*
X110618944Y-84269511D01*
X110534736Y-84143484D01*
X110408709Y-84059276D01*
X110260050Y-84029706D01*
X109459950Y-84029706D01*
X109311291Y-84059276D01*
X109185264Y-84143484D01*
X109101056Y-84269511D01*
X109071486Y-84418170D01*
X109071486Y-85218270D01*
X109101056Y-85366929D01*
X109185264Y-85492956D01*
X109229000Y-85522179D01*
X109229000Y-85991037D01*
X109177105Y-86042842D01*
X109054141Y-86338973D01*
X109053861Y-86659620D01*
X108191000Y-86659620D01*
X108191000Y-83774495D01*
X108383641Y-83854290D01*
X108624250Y-83854290D01*
X108783000Y-83695540D01*
X108783000Y-82946240D01*
X108763000Y-82946240D01*
X108763000Y-82692240D01*
X108783000Y-82692240D01*
X108783000Y-82672240D01*
X109037000Y-82672240D01*
X109037000Y-82692240D01*
X109057000Y-82692240D01*
X109057000Y-82946240D01*
X109037000Y-82946240D01*
X109037000Y-83695540D01*
X109195750Y-83854290D01*
X109436359Y-83854290D01*
X109669748Y-83757617D01*
X109848377Y-83578989D01*
X109945050Y-83345600D01*
X109945050Y-83104990D01*
X109786302Y-82946242D01*
X109945050Y-82946242D01*
X109945050Y-82846659D01*
X110021486Y-82923095D01*
X110021486Y-83219290D01*
X110051056Y-83367949D01*
X110135264Y-83493976D01*
X110261291Y-83578184D01*
X110409950Y-83607754D01*
X111210050Y-83607754D01*
X111358709Y-83578184D01*
X111484736Y-83493976D01*
X111568944Y-83367949D01*
X111598514Y-83219290D01*
X111598514Y-82419190D01*
X111568944Y-82270531D01*
X111484736Y-82144504D01*
X111358709Y-82060296D01*
X111210050Y-82030726D01*
X110913855Y-82030726D01*
X110321593Y-81438464D01*
X111230000Y-81438464D01*
X111378659Y-81408894D01*
X111504686Y-81324686D01*
X111567285Y-81231000D01*
X113091020Y-81231000D01*
X113132842Y-81272895D01*
X113428973Y-81395859D01*
X113749620Y-81396139D01*
X114045966Y-81273692D01*
X114272895Y-81047158D01*
X114395859Y-80751027D01*
X114396139Y-80430380D01*
X114273692Y-80134034D01*
X114047158Y-79907105D01*
X113751027Y-79784141D01*
X113430380Y-79783861D01*
X113337814Y-79822108D01*
X113412895Y-79747158D01*
X113535859Y-79451027D01*
X113536139Y-79130380D01*
X113413692Y-78834034D01*
X113361000Y-78781250D01*
X113361000Y-76550055D01*
X113387047Y-76681000D01*
X113407032Y-76781473D01*
X113543816Y-76986184D01*
X114399000Y-77841368D01*
X114399000Y-84338632D01*
X111393707Y-87343925D01*
X111320380Y-87343861D01*
X111024034Y-87466308D01*
X110797105Y-87692842D01*
X110674141Y-87988973D01*
X110673861Y-88309620D01*
X110796308Y-88605966D01*
X111022842Y-88832895D01*
X111318973Y-88955859D01*
X111639620Y-88956139D01*
X111935966Y-88833692D01*
X112162895Y-88607158D01*
X112285859Y-88311027D01*
X112285924Y-88236444D01*
X112555341Y-87967027D01*
X112509000Y-88200000D01*
X112509000Y-90673746D01*
X112259935Y-90840166D01*
X111990140Y-91243943D01*
X111895400Y-91720231D01*
X111895400Y-92079769D01*
X111990140Y-92556057D01*
X112259935Y-92959834D01*
X112663712Y-93229629D01*
X113140000Y-93324369D01*
X113616288Y-93229629D01*
X114020065Y-92959834D01*
X114289860Y-92556057D01*
X114384600Y-92079769D01*
X114384600Y-91720231D01*
X114289860Y-91243943D01*
X114020065Y-90840166D01*
X113771000Y-90673746D01*
X113771000Y-88461368D01*
X116816185Y-85416184D01*
X116952968Y-85211473D01*
X117001000Y-84970000D01*
X117001000Y-77810000D01*
X116952968Y-77568527D01*
X116816184Y-77363816D01*
X116611473Y-77227032D01*
X116479127Y-77200707D01*
X115768000Y-76489580D01*
X115768000Y-74658051D01*
X116170974Y-74824958D01*
X116403000Y-74703817D01*
X116403000Y-73497000D01*
X116383000Y-73497000D01*
X116383000Y-73243000D01*
X116403000Y-73243000D01*
X116403000Y-73223000D01*
X116657000Y-73223000D01*
X116657000Y-73243000D01*
X116677000Y-73243000D01*
X116677000Y-73497000D01*
X116657000Y-73497000D01*
X116657000Y-74703817D01*
X116889026Y-74824958D01*
X117302000Y-74653909D01*
X117302000Y-77246330D01*
X117227032Y-77358527D01*
X117179000Y-77600000D01*
X117179000Y-85268632D01*
X115233816Y-87213816D01*
X115097032Y-87418527D01*
X115049000Y-87660000D01*
X115049000Y-90673746D01*
X114799935Y-90840166D01*
X114530140Y-91243943D01*
X114435400Y-91720231D01*
X114435400Y-92079769D01*
X114530140Y-92556057D01*
X114799935Y-92959834D01*
X115203712Y-93229629D01*
X115680000Y-93324369D01*
X116156288Y-93229629D01*
X116560065Y-92959834D01*
X116829860Y-92556057D01*
X116832704Y-92541757D01*
X116928046Y-92814320D01*
X117317964Y-93250732D01*
X117845209Y-93504709D01*
X117860974Y-93507358D01*
X118093000Y-93386217D01*
X118093000Y-92027000D01*
X118347000Y-92027000D01*
X118347000Y-93386217D01*
X118579026Y-93507358D01*
X118594791Y-93504709D01*
X119122036Y-93250732D01*
X119511954Y-92814320D01*
X119705184Y-92261913D01*
X119560924Y-92027000D01*
X118347000Y-92027000D01*
X118093000Y-92027000D01*
X118073000Y-92027000D01*
X118073000Y-91773000D01*
X118093000Y-91773000D01*
X118093000Y-90413783D01*
X118347000Y-90413783D01*
X118347000Y-91773000D01*
X119560924Y-91773000D01*
X119705184Y-91538087D01*
X119511954Y-90985680D01*
X119122036Y-90549268D01*
X118594791Y-90295291D01*
X118579026Y-90292642D01*
X118347000Y-90413783D01*
X118093000Y-90413783D01*
X117860974Y-90292642D01*
X117845209Y-90295291D01*
X117317964Y-90549268D01*
X116928046Y-90985680D01*
X116832704Y-91258243D01*
X116829860Y-91243943D01*
X116560065Y-90840166D01*
X116311000Y-90673746D01*
X116311000Y-87921368D01*
X118256184Y-85976184D01*
X118392968Y-85771473D01*
X118441000Y-85530000D01*
X118441000Y-81100753D01*
X118612842Y-81272895D01*
X118908973Y-81395859D01*
X119229620Y-81396139D01*
X119525966Y-81273692D01*
X119752895Y-81047158D01*
X119875859Y-80751027D01*
X119876139Y-80430380D01*
X119753692Y-80134034D01*
X119701000Y-80081250D01*
X119701000Y-74440868D01*
X119950065Y-74274448D01*
X120219860Y-73870671D01*
X120314600Y-73394383D01*
X120314600Y-73345617D01*
X120219860Y-72869329D01*
X119950065Y-72465552D01*
X119546288Y-72195757D01*
X119070000Y-72101017D01*
X118593712Y-72195757D01*
X118318000Y-72379982D01*
X118318000Y-72130000D01*
X118285746Y-71967850D01*
X118279331Y-71935596D01*
X118169210Y-71770790D01*
X117688028Y-71289608D01*
X117774600Y-70854383D01*
X117774600Y-70805617D01*
X117680580Y-70332948D01*
X117879794Y-70532162D01*
X117879794Y-70532162D01*
G37*
X117879794Y-70532162D02*
X117825400Y-70805617D01*
X117825400Y-70854383D01*
X117920140Y-71330671D01*
X118189935Y-71734448D01*
X118593712Y-72004243D01*
X119070000Y-72098983D01*
X119546288Y-72004243D01*
X119950065Y-71734448D01*
X120219860Y-71330671D01*
X120220324Y-71328338D01*
X120403179Y-71718490D01*
X120835053Y-72112688D01*
X121096172Y-72220841D01*
X120729935Y-72465552D01*
X120460140Y-72869329D01*
X120365400Y-73345617D01*
X120365400Y-73394383D01*
X120460140Y-73870671D01*
X120729935Y-74274448D01*
X120979000Y-74440868D01*
X120979000Y-75010000D01*
X121004859Y-75140000D01*
X121027032Y-75251473D01*
X121163816Y-75456184D01*
X124069000Y-78361368D01*
X124069000Y-93583000D01*
X121731000Y-93583000D01*
X121731000Y-88658963D01*
X121782895Y-88607158D01*
X121905859Y-88311027D01*
X121906139Y-87990380D01*
X121783692Y-87694034D01*
X121557158Y-87467105D01*
X121261027Y-87344141D01*
X120940380Y-87343861D01*
X120644034Y-87466308D01*
X120417105Y-87692842D01*
X120294141Y-87988973D01*
X120293861Y-88309620D01*
X120416308Y-88605966D01*
X120469000Y-88658750D01*
X120469000Y-93583000D01*
X106761000Y-93583000D01*
X106761000Y-84792298D01*
X106878659Y-84768894D01*
X106929000Y-84735257D01*
X106929000Y-88170000D01*
X106966203Y-88357032D01*
X106977032Y-88411473D01*
X107113816Y-88616184D01*
X109353526Y-90855895D01*
X109347936Y-90884000D01*
X109347936Y-92916000D01*
X109377506Y-93064659D01*
X109461714Y-93190686D01*
X109587741Y-93274894D01*
X109736400Y-93304464D01*
X111463600Y-93304464D01*
X111612259Y-93274894D01*
X111738286Y-93190686D01*
X111822494Y-93064659D01*
X111852064Y-92916000D01*
X111852064Y-90884000D01*
X111822494Y-90735341D01*
X111738286Y-90609314D01*
X111612259Y-90525106D01*
X111463600Y-90495536D01*
X110777905Y-90495536D01*
X108191000Y-87908632D01*
X108191000Y-86659620D01*
X109053861Y-86659620D01*
X109176308Y-86955966D01*
X109402842Y-87182895D01*
X109698973Y-87305859D01*
X110019620Y-87306139D01*
X110315966Y-87183692D01*
X110542895Y-86957158D01*
X110665859Y-86661027D01*
X110666139Y-86340380D01*
X110543692Y-86044034D01*
X110491000Y-85991250D01*
X110491000Y-85522179D01*
X110534736Y-85492956D01*
X110618944Y-85366929D01*
X110648514Y-85218270D01*
X110648514Y-84418170D01*
X110618944Y-84269511D01*
X110534736Y-84143484D01*
X110408709Y-84059276D01*
X110260050Y-84029706D01*
X109459950Y-84029706D01*
X109311291Y-84059276D01*
X109185264Y-84143484D01*
X109101056Y-84269511D01*
X109071486Y-84418170D01*
X109071486Y-85218270D01*
X109101056Y-85366929D01*
X109185264Y-85492956D01*
X109229000Y-85522179D01*
X109229000Y-85991037D01*
X109177105Y-86042842D01*
X109054141Y-86338973D01*
X109053861Y-86659620D01*
X108191000Y-86659620D01*
X108191000Y-83774495D01*
X108383641Y-83854290D01*
X108624250Y-83854290D01*
X108783000Y-83695540D01*
X108783000Y-82946240D01*
X108763000Y-82946240D01*
X108763000Y-82692240D01*
X108783000Y-82692240D01*
X108783000Y-82672240D01*
X109037000Y-82672240D01*
X109037000Y-82692240D01*
X109057000Y-82692240D01*
X109057000Y-82946240D01*
X109037000Y-82946240D01*
X109037000Y-83695540D01*
X109195750Y-83854290D01*
X109436359Y-83854290D01*
X109669748Y-83757617D01*
X109848377Y-83578989D01*
X109945050Y-83345600D01*
X109945050Y-83104990D01*
X109786302Y-82946242D01*
X109945050Y-82946242D01*
X109945050Y-82846659D01*
X110021486Y-82923095D01*
X110021486Y-83219290D01*
X110051056Y-83367949D01*
X110135264Y-83493976D01*
X110261291Y-83578184D01*
X110409950Y-83607754D01*
X111210050Y-83607754D01*
X111358709Y-83578184D01*
X111484736Y-83493976D01*
X111568944Y-83367949D01*
X111598514Y-83219290D01*
X111598514Y-82419190D01*
X111568944Y-82270531D01*
X111484736Y-82144504D01*
X111358709Y-82060296D01*
X111210050Y-82030726D01*
X110913855Y-82030726D01*
X110321593Y-81438464D01*
X111230000Y-81438464D01*
X111378659Y-81408894D01*
X111504686Y-81324686D01*
X111567285Y-81231000D01*
X113091020Y-81231000D01*
X113132842Y-81272895D01*
X113428973Y-81395859D01*
X113749620Y-81396139D01*
X114045966Y-81273692D01*
X114272895Y-81047158D01*
X114395859Y-80751027D01*
X114396139Y-80430380D01*
X114273692Y-80134034D01*
X114047158Y-79907105D01*
X113751027Y-79784141D01*
X113430380Y-79783861D01*
X113337814Y-79822108D01*
X113412895Y-79747158D01*
X113535859Y-79451027D01*
X113536139Y-79130380D01*
X113413692Y-78834034D01*
X113361000Y-78781250D01*
X113361000Y-76550055D01*
X113387047Y-76681000D01*
X113407032Y-76781473D01*
X113543816Y-76986184D01*
X114399000Y-77841368D01*
X114399000Y-84338632D01*
X111393707Y-87343925D01*
X111320380Y-87343861D01*
X111024034Y-87466308D01*
X110797105Y-87692842D01*
X110674141Y-87988973D01*
X110673861Y-88309620D01*
X110796308Y-88605966D01*
X111022842Y-88832895D01*
X111318973Y-88955859D01*
X111639620Y-88956139D01*
X111935966Y-88833692D01*
X112162895Y-88607158D01*
X112285859Y-88311027D01*
X112285924Y-88236444D01*
X112555341Y-87967027D01*
X112509000Y-88200000D01*
X112509000Y-90673746D01*
X112259935Y-90840166D01*
X111990140Y-91243943D01*
X111895400Y-91720231D01*
X111895400Y-92079769D01*
X111990140Y-92556057D01*
X112259935Y-92959834D01*
X112663712Y-93229629D01*
X113140000Y-93324369D01*
X113616288Y-93229629D01*
X114020065Y-92959834D01*
X114289860Y-92556057D01*
X114384600Y-92079769D01*
X114384600Y-91720231D01*
X114289860Y-91243943D01*
X114020065Y-90840166D01*
X113771000Y-90673746D01*
X113771000Y-88461368D01*
X116816185Y-85416184D01*
X116952968Y-85211473D01*
X117001000Y-84970000D01*
X117001000Y-77810000D01*
X116952968Y-77568527D01*
X116816184Y-77363816D01*
X116611473Y-77227032D01*
X116479127Y-77200707D01*
X115768000Y-76489580D01*
X115768000Y-74658051D01*
X116170974Y-74824958D01*
X116403000Y-74703817D01*
X116403000Y-73497000D01*
X116383000Y-73497000D01*
X116383000Y-73243000D01*
X116403000Y-73243000D01*
X116403000Y-73223000D01*
X116657000Y-73223000D01*
X116657000Y-73243000D01*
X116677000Y-73243000D01*
X116677000Y-73497000D01*
X116657000Y-73497000D01*
X116657000Y-74703817D01*
X116889026Y-74824958D01*
X117302000Y-74653909D01*
X117302000Y-77246330D01*
X117227032Y-77358527D01*
X117179000Y-77600000D01*
X117179000Y-85268632D01*
X115233816Y-87213816D01*
X115097032Y-87418527D01*
X115049000Y-87660000D01*
X115049000Y-90673746D01*
X114799935Y-90840166D01*
X114530140Y-91243943D01*
X114435400Y-91720231D01*
X114435400Y-92079769D01*
X114530140Y-92556057D01*
X114799935Y-92959834D01*
X115203712Y-93229629D01*
X115680000Y-93324369D01*
X116156288Y-93229629D01*
X116560065Y-92959834D01*
X116829860Y-92556057D01*
X116832704Y-92541757D01*
X116928046Y-92814320D01*
X117317964Y-93250732D01*
X117845209Y-93504709D01*
X117860974Y-93507358D01*
X118093000Y-93386217D01*
X118093000Y-92027000D01*
X118347000Y-92027000D01*
X118347000Y-93386217D01*
X118579026Y-93507358D01*
X118594791Y-93504709D01*
X119122036Y-93250732D01*
X119511954Y-92814320D01*
X119705184Y-92261913D01*
X119560924Y-92027000D01*
X118347000Y-92027000D01*
X118093000Y-92027000D01*
X118073000Y-92027000D01*
X118073000Y-91773000D01*
X118093000Y-91773000D01*
X118093000Y-90413783D01*
X118347000Y-90413783D01*
X118347000Y-91773000D01*
X119560924Y-91773000D01*
X119705184Y-91538087D01*
X119511954Y-90985680D01*
X119122036Y-90549268D01*
X118594791Y-90295291D01*
X118579026Y-90292642D01*
X118347000Y-90413783D01*
X118093000Y-90413783D01*
X117860974Y-90292642D01*
X117845209Y-90295291D01*
X117317964Y-90549268D01*
X116928046Y-90985680D01*
X116832704Y-91258243D01*
X116829860Y-91243943D01*
X116560065Y-90840166D01*
X116311000Y-90673746D01*
X116311000Y-87921368D01*
X118256184Y-85976184D01*
X118392968Y-85771473D01*
X118441000Y-85530000D01*
X118441000Y-81100753D01*
X118612842Y-81272895D01*
X118908973Y-81395859D01*
X119229620Y-81396139D01*
X119525966Y-81273692D01*
X119752895Y-81047158D01*
X119875859Y-80751027D01*
X119876139Y-80430380D01*
X119753692Y-80134034D01*
X119701000Y-80081250D01*
X119701000Y-74440868D01*
X119950065Y-74274448D01*
X120219860Y-73870671D01*
X120314600Y-73394383D01*
X120314600Y-73345617D01*
X120219860Y-72869329D01*
X119950065Y-72465552D01*
X119546288Y-72195757D01*
X119070000Y-72101017D01*
X118593712Y-72195757D01*
X118318000Y-72379982D01*
X118318000Y-72130000D01*
X118285746Y-71967850D01*
X118279331Y-71935596D01*
X118169210Y-71770790D01*
X117688028Y-71289608D01*
X117774600Y-70854383D01*
X117774600Y-70805617D01*
X117680580Y-70332948D01*
X117879794Y-70532162D01*
G36*
X105489935Y-69925552D02*
X105220140Y-70329329D01*
X105125400Y-70805617D01*
X105125400Y-70854383D01*
X105220140Y-71330671D01*
X105489935Y-71734448D01*
X105893712Y-72004243D01*
X106370000Y-72098983D01*
X106846288Y-72004243D01*
X107250065Y-71734448D01*
X107432777Y-71461000D01*
X107847223Y-71461000D01*
X108029935Y-71734448D01*
X108433712Y-72004243D01*
X108910000Y-72098983D01*
X109386288Y-72004243D01*
X109790065Y-71734448D01*
X110059860Y-71330671D01*
X110060324Y-71328338D01*
X110243179Y-71718490D01*
X110675053Y-72112688D01*
X110936172Y-72220841D01*
X110569935Y-72465552D01*
X110300140Y-72869329D01*
X110205400Y-73345617D01*
X110205400Y-73394383D01*
X110299420Y-73867051D01*
X110100206Y-73667838D01*
X110154600Y-73394383D01*
X110154600Y-73345617D01*
X110059860Y-72869329D01*
X109790065Y-72465552D01*
X109386288Y-72195757D01*
X108910000Y-72101017D01*
X108433712Y-72195757D01*
X108029935Y-72465552D01*
X107760140Y-72869329D01*
X107665400Y-73345617D01*
X107665400Y-73394383D01*
X107760140Y-73870671D01*
X108029935Y-74274448D01*
X108433712Y-74544243D01*
X108910000Y-74638983D01*
X109224130Y-74576498D01*
X109823925Y-75176294D01*
X109823861Y-75249620D01*
X109946308Y-75545966D01*
X109999000Y-75598750D01*
X109999000Y-76437702D01*
X109881341Y-76461106D01*
X109755314Y-76545314D01*
X109671106Y-76671341D01*
X109641536Y-76820000D01*
X109641536Y-77720000D01*
X109671106Y-77868659D01*
X109755314Y-77994686D01*
X109881341Y-78078894D01*
X109987448Y-78100000D01*
X109881341Y-78121106D01*
X109755314Y-78205314D01*
X109671106Y-78331341D01*
X109641536Y-78480000D01*
X109641536Y-79380000D01*
X109671106Y-79528659D01*
X109755314Y-79654686D01*
X109881341Y-79738894D01*
X110012585Y-79765000D01*
X109881341Y-79791106D01*
X109755314Y-79875314D01*
X109671106Y-80001341D01*
X109641536Y-80150000D01*
X109641536Y-80758408D01*
X109418464Y-80535336D01*
X109418464Y-80150000D01*
X109388894Y-80001341D01*
X109304686Y-79875314D01*
X109178659Y-79791106D01*
X109047415Y-79765000D01*
X109178659Y-79738894D01*
X109304686Y-79654686D01*
X109388894Y-79528659D01*
X109418464Y-79380000D01*
X109418464Y-78480000D01*
X109388894Y-78331341D01*
X109304686Y-78205314D01*
X109178659Y-78121106D01*
X109072552Y-78100000D01*
X109178659Y-78078894D01*
X109304686Y-77994686D01*
X109388894Y-77868659D01*
X109418464Y-77720000D01*
X109418464Y-76820000D01*
X109388894Y-76671341D01*
X109304686Y-76545314D01*
X109178659Y-76461106D01*
X109030000Y-76431536D01*
X107830000Y-76431536D01*
X107681341Y-76461106D01*
X107555314Y-76545314D01*
X107471106Y-76671341D01*
X107441536Y-76820000D01*
X107441536Y-77720000D01*
X107471106Y-77868659D01*
X107555314Y-77994686D01*
X107681341Y-78078894D01*
X107787448Y-78100000D01*
X107681341Y-78121106D01*
X107555314Y-78205314D01*
X107486034Y-78309000D01*
X106526385Y-78309000D01*
X106518894Y-78271341D01*
X106434686Y-78145314D01*
X106341000Y-78082715D01*
X106341000Y-74622064D01*
X107233600Y-74622064D01*
X107382259Y-74592494D01*
X107508286Y-74508286D01*
X107592494Y-74382259D01*
X107622064Y-74233600D01*
X107622064Y-72506400D01*
X107592494Y-72357741D01*
X107508286Y-72231714D01*
X107382259Y-72147506D01*
X107233600Y-72117936D01*
X105506400Y-72117936D01*
X105357741Y-72147506D01*
X105231714Y-72231714D01*
X105147506Y-72357741D01*
X105117936Y-72506400D01*
X105117936Y-73834256D01*
X105079000Y-74030000D01*
X105079000Y-78082715D01*
X104985314Y-78145314D01*
X104901106Y-78271341D01*
X104871536Y-78420000D01*
X104871536Y-79620000D01*
X104901106Y-79768659D01*
X104985314Y-79894686D01*
X105111341Y-79978894D01*
X105260000Y-80008464D01*
X106160000Y-80008464D01*
X106308659Y-79978894D01*
X106434686Y-79894686D01*
X106449000Y-79873263D01*
X106449000Y-80366737D01*
X106434686Y-80345314D01*
X106308659Y-80261106D01*
X106160000Y-80231536D01*
X105260000Y-80231536D01*
X105111341Y-80261106D01*
X104985314Y-80345314D01*
X104901106Y-80471341D01*
X104877702Y-80589000D01*
X104503464Y-80589000D01*
X104503464Y-80470000D01*
X104473894Y-80321341D01*
X104389686Y-80195314D01*
X104263659Y-80111106D01*
X104232962Y-80105000D01*
X104241310Y-80105000D01*
X104474699Y-80008327D01*
X104653327Y-79829698D01*
X104750000Y-79596309D01*
X104750000Y-79005750D01*
X104591250Y-78847000D01*
X103617000Y-78847000D01*
X103617000Y-78867000D01*
X103363000Y-78867000D01*
X103363000Y-78847000D01*
X102388750Y-78847000D01*
X102230000Y-79005750D01*
X102230000Y-79596309D01*
X102326673Y-79829698D01*
X102505301Y-80008327D01*
X102738690Y-80105000D01*
X102747038Y-80105000D01*
X102716341Y-80111106D01*
X102590314Y-80195314D01*
X102506106Y-80321341D01*
X102476536Y-80470000D01*
X102476536Y-80589000D01*
X101773520Y-80589000D01*
X101711437Y-80438749D01*
X101384836Y-80111577D01*
X101414264Y-80099387D01*
X101512927Y-79832532D01*
X100540000Y-78859605D01*
X99567073Y-79832532D01*
X99665736Y-80099387D01*
X99696418Y-80110786D01*
X99369928Y-80436705D01*
X99159241Y-80944097D01*
X99158761Y-81493493D01*
X99368563Y-82001251D01*
X99756705Y-82390072D01*
X100228770Y-82586090D01*
X99738749Y-82788563D01*
X99349928Y-83176705D01*
X99139241Y-83684097D01*
X99138761Y-84233493D01*
X99348563Y-84741251D01*
X99718201Y-85111536D01*
X99520000Y-85111536D01*
X99371341Y-85141106D01*
X99245314Y-85225314D01*
X99161106Y-85351341D01*
X99131536Y-85500000D01*
X99131536Y-87500000D01*
X99160179Y-87644000D01*
X98544911Y-87644000D01*
X98486582Y-87632398D01*
X98475204Y-87624796D01*
X98467602Y-87613418D01*
X98456000Y-87555089D01*
X98456000Y-78415461D01*
X98894092Y-78415461D01*
X98918144Y-79065460D01*
X99120613Y-79554264D01*
X99387468Y-79652927D01*
X100360395Y-78680000D01*
X100719605Y-78680000D01*
X101692532Y-79652927D01*
X101959387Y-79554264D01*
X102185908Y-78944539D01*
X102161856Y-78294540D01*
X101975109Y-77843691D01*
X102230000Y-77843691D01*
X102230000Y-78434250D01*
X102388750Y-78593000D01*
X103363000Y-78593000D01*
X103363000Y-77493750D01*
X103617000Y-77493750D01*
X103617000Y-78593000D01*
X104591250Y-78593000D01*
X104750000Y-78434250D01*
X104750000Y-77843691D01*
X104653327Y-77610302D01*
X104474699Y-77431673D01*
X104241310Y-77335000D01*
X103775750Y-77335000D01*
X103617000Y-77493750D01*
X103363000Y-77493750D01*
X103204250Y-77335000D01*
X102738690Y-77335000D01*
X102505301Y-77431673D01*
X102326673Y-77610302D01*
X102230000Y-77843691D01*
X101975109Y-77843691D01*
X101959387Y-77805736D01*
X101692532Y-77707073D01*
X100719605Y-78680000D01*
X100360395Y-78680000D01*
X99387468Y-77707073D01*
X99120613Y-77805736D01*
X98894092Y-78415461D01*
X98456000Y-78415461D01*
X98456000Y-76048368D01*
X98993815Y-76586184D01*
X99198526Y-76722968D01*
X99238589Y-76730937D01*
X99294524Y-76742063D01*
X99368563Y-76921251D01*
X99695164Y-77248423D01*
X99665736Y-77260613D01*
X99567073Y-77527468D01*
X100540000Y-78500395D01*
X101512927Y-77527468D01*
X101414264Y-77260613D01*
X101383582Y-77249214D01*
X101710072Y-76923295D01*
X101920759Y-76415903D01*
X101921239Y-75866507D01*
X101711437Y-75358749D01*
X101323295Y-74969928D01*
X100987642Y-74830553D01*
X102040846Y-74831473D01*
X103044966Y-74416579D01*
X103813879Y-73649007D01*
X104230524Y-72645613D01*
X104231473Y-71559154D01*
X103816579Y-70555034D01*
X103093808Y-69831000D01*
X105631442Y-69831000D01*
X105489935Y-69925552D01*
X105489935Y-69925552D01*
G37*
X105489935Y-69925552D02*
X105220140Y-70329329D01*
X105125400Y-70805617D01*
X105125400Y-70854383D01*
X105220140Y-71330671D01*
X105489935Y-71734448D01*
X105893712Y-72004243D01*
X106370000Y-72098983D01*
X106846288Y-72004243D01*
X107250065Y-71734448D01*
X107432777Y-71461000D01*
X107847223Y-71461000D01*
X108029935Y-71734448D01*
X108433712Y-72004243D01*
X108910000Y-72098983D01*
X109386288Y-72004243D01*
X109790065Y-71734448D01*
X110059860Y-71330671D01*
X110060324Y-71328338D01*
X110243179Y-71718490D01*
X110675053Y-72112688D01*
X110936172Y-72220841D01*
X110569935Y-72465552D01*
X110300140Y-72869329D01*
X110205400Y-73345617D01*
X110205400Y-73394383D01*
X110299420Y-73867051D01*
X110100206Y-73667838D01*
X110154600Y-73394383D01*
X110154600Y-73345617D01*
X110059860Y-72869329D01*
X109790065Y-72465552D01*
X109386288Y-72195757D01*
X108910000Y-72101017D01*
X108433712Y-72195757D01*
X108029935Y-72465552D01*
X107760140Y-72869329D01*
X107665400Y-73345617D01*
X107665400Y-73394383D01*
X107760140Y-73870671D01*
X108029935Y-74274448D01*
X108433712Y-74544243D01*
X108910000Y-74638983D01*
X109224130Y-74576498D01*
X109823925Y-75176294D01*
X109823861Y-75249620D01*
X109946308Y-75545966D01*
X109999000Y-75598750D01*
X109999000Y-76437702D01*
X109881341Y-76461106D01*
X109755314Y-76545314D01*
X109671106Y-76671341D01*
X109641536Y-76820000D01*
X109641536Y-77720000D01*
X109671106Y-77868659D01*
X109755314Y-77994686D01*
X109881341Y-78078894D01*
X109987448Y-78100000D01*
X109881341Y-78121106D01*
X109755314Y-78205314D01*
X109671106Y-78331341D01*
X109641536Y-78480000D01*
X109641536Y-79380000D01*
X109671106Y-79528659D01*
X109755314Y-79654686D01*
X109881341Y-79738894D01*
X110012585Y-79765000D01*
X109881341Y-79791106D01*
X109755314Y-79875314D01*
X109671106Y-80001341D01*
X109641536Y-80150000D01*
X109641536Y-80758408D01*
X109418464Y-80535336D01*
X109418464Y-80150000D01*
X109388894Y-80001341D01*
X109304686Y-79875314D01*
X109178659Y-79791106D01*
X109047415Y-79765000D01*
X109178659Y-79738894D01*
X109304686Y-79654686D01*
X109388894Y-79528659D01*
X109418464Y-79380000D01*
X109418464Y-78480000D01*
X109388894Y-78331341D01*
X109304686Y-78205314D01*
X109178659Y-78121106D01*
X109072552Y-78100000D01*
X109178659Y-78078894D01*
X109304686Y-77994686D01*
X109388894Y-77868659D01*
X109418464Y-77720000D01*
X109418464Y-76820000D01*
X109388894Y-76671341D01*
X109304686Y-76545314D01*
X109178659Y-76461106D01*
X109030000Y-76431536D01*
X107830000Y-76431536D01*
X107681341Y-76461106D01*
X107555314Y-76545314D01*
X107471106Y-76671341D01*
X107441536Y-76820000D01*
X107441536Y-77720000D01*
X107471106Y-77868659D01*
X107555314Y-77994686D01*
X107681341Y-78078894D01*
X107787448Y-78100000D01*
X107681341Y-78121106D01*
X107555314Y-78205314D01*
X107486034Y-78309000D01*
X106526385Y-78309000D01*
X106518894Y-78271341D01*
X106434686Y-78145314D01*
X106341000Y-78082715D01*
X106341000Y-74622064D01*
X107233600Y-74622064D01*
X107382259Y-74592494D01*
X107508286Y-74508286D01*
X107592494Y-74382259D01*
X107622064Y-74233600D01*
X107622064Y-72506400D01*
X107592494Y-72357741D01*
X107508286Y-72231714D01*
X107382259Y-72147506D01*
X107233600Y-72117936D01*
X105506400Y-72117936D01*
X105357741Y-72147506D01*
X105231714Y-72231714D01*
X105147506Y-72357741D01*
X105117936Y-72506400D01*
X105117936Y-73834256D01*
X105079000Y-74030000D01*
X105079000Y-78082715D01*
X104985314Y-78145314D01*
X104901106Y-78271341D01*
X104871536Y-78420000D01*
X104871536Y-79620000D01*
X104901106Y-79768659D01*
X104985314Y-79894686D01*
X105111341Y-79978894D01*
X105260000Y-80008464D01*
X106160000Y-80008464D01*
X106308659Y-79978894D01*
X106434686Y-79894686D01*
X106449000Y-79873263D01*
X106449000Y-80366737D01*
X106434686Y-80345314D01*
X106308659Y-80261106D01*
X106160000Y-80231536D01*
X105260000Y-80231536D01*
X105111341Y-80261106D01*
X104985314Y-80345314D01*
X104901106Y-80471341D01*
X104877702Y-80589000D01*
X104503464Y-80589000D01*
X104503464Y-80470000D01*
X104473894Y-80321341D01*
X104389686Y-80195314D01*
X104263659Y-80111106D01*
X104232962Y-80105000D01*
X104241310Y-80105000D01*
X104474699Y-80008327D01*
X104653327Y-79829698D01*
X104750000Y-79596309D01*
X104750000Y-79005750D01*
X104591250Y-78847000D01*
X103617000Y-78847000D01*
X103617000Y-78867000D01*
X103363000Y-78867000D01*
X103363000Y-78847000D01*
X102388750Y-78847000D01*
X102230000Y-79005750D01*
X102230000Y-79596309D01*
X102326673Y-79829698D01*
X102505301Y-80008327D01*
X102738690Y-80105000D01*
X102747038Y-80105000D01*
X102716341Y-80111106D01*
X102590314Y-80195314D01*
X102506106Y-80321341D01*
X102476536Y-80470000D01*
X102476536Y-80589000D01*
X101773520Y-80589000D01*
X101711437Y-80438749D01*
X101384836Y-80111577D01*
X101414264Y-80099387D01*
X101512927Y-79832532D01*
X100540000Y-78859605D01*
X99567073Y-79832532D01*
X99665736Y-80099387D01*
X99696418Y-80110786D01*
X99369928Y-80436705D01*
X99159241Y-80944097D01*
X99158761Y-81493493D01*
X99368563Y-82001251D01*
X99756705Y-82390072D01*
X100228770Y-82586090D01*
X99738749Y-82788563D01*
X99349928Y-83176705D01*
X99139241Y-83684097D01*
X99138761Y-84233493D01*
X99348563Y-84741251D01*
X99718201Y-85111536D01*
X99520000Y-85111536D01*
X99371341Y-85141106D01*
X99245314Y-85225314D01*
X99161106Y-85351341D01*
X99131536Y-85500000D01*
X99131536Y-87500000D01*
X99160179Y-87644000D01*
X98544911Y-87644000D01*
X98486582Y-87632398D01*
X98475204Y-87624796D01*
X98467602Y-87613418D01*
X98456000Y-87555089D01*
X98456000Y-78415461D01*
X98894092Y-78415461D01*
X98918144Y-79065460D01*
X99120613Y-79554264D01*
X99387468Y-79652927D01*
X100360395Y-78680000D01*
X100719605Y-78680000D01*
X101692532Y-79652927D01*
X101959387Y-79554264D01*
X102185908Y-78944539D01*
X102161856Y-78294540D01*
X101975109Y-77843691D01*
X102230000Y-77843691D01*
X102230000Y-78434250D01*
X102388750Y-78593000D01*
X103363000Y-78593000D01*
X103363000Y-77493750D01*
X103617000Y-77493750D01*
X103617000Y-78593000D01*
X104591250Y-78593000D01*
X104750000Y-78434250D01*
X104750000Y-77843691D01*
X104653327Y-77610302D01*
X104474699Y-77431673D01*
X104241310Y-77335000D01*
X103775750Y-77335000D01*
X103617000Y-77493750D01*
X103363000Y-77493750D01*
X103204250Y-77335000D01*
X102738690Y-77335000D01*
X102505301Y-77431673D01*
X102326673Y-77610302D01*
X102230000Y-77843691D01*
X101975109Y-77843691D01*
X101959387Y-77805736D01*
X101692532Y-77707073D01*
X100719605Y-78680000D01*
X100360395Y-78680000D01*
X99387468Y-77707073D01*
X99120613Y-77805736D01*
X98894092Y-78415461D01*
X98456000Y-78415461D01*
X98456000Y-76048368D01*
X98993815Y-76586184D01*
X99198526Y-76722968D01*
X99238589Y-76730937D01*
X99294524Y-76742063D01*
X99368563Y-76921251D01*
X99695164Y-77248423D01*
X99665736Y-77260613D01*
X99567073Y-77527468D01*
X100540000Y-78500395D01*
X101512927Y-77527468D01*
X101414264Y-77260613D01*
X101383582Y-77249214D01*
X101710072Y-76923295D01*
X101920759Y-76415903D01*
X101921239Y-75866507D01*
X101711437Y-75358749D01*
X101323295Y-74969928D01*
X100987642Y-74830553D01*
X102040846Y-74831473D01*
X103044966Y-74416579D01*
X103813879Y-73649007D01*
X104230524Y-72645613D01*
X104231473Y-71559154D01*
X103816579Y-70555034D01*
X103093808Y-69831000D01*
X105631442Y-69831000D01*
X105489935Y-69925552D01*
G36*
X154757000Y-73243000D02*
X154777000Y-73243000D01*
X154777000Y-73497000D01*
X154757000Y-73497000D01*
X154757000Y-74703817D01*
X154989026Y-74824958D01*
X155404947Y-74652688D01*
X155794350Y-74297256D01*
X155873816Y-74416184D01*
X157043816Y-75586184D01*
X157248527Y-75722968D01*
X157479945Y-75769000D01*
X153861369Y-75769000D01*
X152721000Y-74628632D01*
X152721000Y-74440868D01*
X152970065Y-74274448D01*
X153239860Y-73870671D01*
X153240324Y-73868338D01*
X153423179Y-74258490D01*
X153855053Y-74652688D01*
X154270974Y-74824958D01*
X154503000Y-74703817D01*
X154503000Y-73497000D01*
X154483000Y-73497000D01*
X154483000Y-73243000D01*
X154503000Y-73243000D01*
X154503000Y-73223000D01*
X154757000Y-73223000D01*
X154757000Y-73243000D01*
X154757000Y-73243000D01*
G37*
X154757000Y-73243000D02*
X154777000Y-73243000D01*
X154777000Y-73497000D01*
X154757000Y-73497000D01*
X154757000Y-74703817D01*
X154989026Y-74824958D01*
X155404947Y-74652688D01*
X155794350Y-74297256D01*
X155873816Y-74416184D01*
X157043816Y-75586184D01*
X157248527Y-75722968D01*
X157479945Y-75769000D01*
X153861369Y-75769000D01*
X152721000Y-74628632D01*
X152721000Y-74440868D01*
X152970065Y-74274448D01*
X153239860Y-73870671D01*
X153240324Y-73868338D01*
X153423179Y-74258490D01*
X153855053Y-74652688D01*
X154270974Y-74824958D01*
X154503000Y-74703817D01*
X154503000Y-73497000D01*
X154483000Y-73497000D01*
X154483000Y-73243000D01*
X154503000Y-73243000D01*
X154503000Y-73223000D01*
X154757000Y-73223000D01*
X154757000Y-73243000D01*
G36*
X111577000Y-70703000D02*
X111597000Y-70703000D01*
X111597000Y-70957000D01*
X111577000Y-70957000D01*
X111577000Y-70977000D01*
X111323000Y-70977000D01*
X111323000Y-70957000D01*
X111303000Y-70957000D01*
X111303000Y-70703000D01*
X111323000Y-70703000D01*
X111323000Y-70683000D01*
X111577000Y-70683000D01*
X111577000Y-70703000D01*
X111577000Y-70703000D01*
G37*
X111577000Y-70703000D02*
X111597000Y-70703000D01*
X111597000Y-70957000D01*
X111577000Y-70957000D01*
X111577000Y-70977000D01*
X111323000Y-70977000D01*
X111323000Y-70957000D01*
X111303000Y-70957000D01*
X111303000Y-70703000D01*
X111323000Y-70703000D01*
X111323000Y-70683000D01*
X111577000Y-70683000D01*
X111577000Y-70703000D01*
M02*
