M48
;DRILL file {KiCad 4.0.2+dfsg1-stable} date  6.06.2016 (пн) 11:52:42 EEST
;FORMAT={-:-/ absolute / inch / decimal}
FMAT,2
INCH,TZ
T1C0.016
T2C0.030
T3C0.031
T4C0.035
T5C0.039
T6C0.040
T7C0.051
T8C0.055
T9C0.106
%
G90
G05
M72
T1
X4.1783Y-3.2531
X4.1783Y-3.7083
X4.3252Y-3.4055
X4.3555Y-2.9563
X4.389Y-3.4705
X4.4382Y-3.1217
X4.472Y-3.1728
X4.6878Y-3.1728
X4.7677Y-3.4705
X5.5429Y-3.0835
X5.5791Y-3.7079
X6.0008Y-3.0846
T2
X5.4665Y-3.7748
X5.4665Y-4.011
X5.565Y-3.7748
X5.565Y-4.011
X5.6634Y-3.7748
X5.6634Y-4.011
X6.0512Y-3.7835
X6.0512Y-3.8346
X6.0512Y-3.8858
X6.0512Y-3.937
T3
X5.865Y-3.3016
X5.865Y-3.4016
X5.865Y-3.5016
X5.865Y-3.6016
X5.9183Y-4.3259
X6.165Y-3.3016
X6.165Y-3.4016
X6.165Y-3.5016
X6.165Y-3.6016
X6.2183Y-4.3251
T4
X3.9583Y-2.9976
X3.9583Y-3.0976
X3.9583Y-3.1976
T5
X3.9575Y-3.3055
X3.9575Y-3.4055
T6
X3.9583Y-4.5355
X4.0583Y-4.5355
X4.1583Y-4.5355
X4.1878Y-2.7886
X4.1878Y-2.8886
X4.2583Y-4.5355
X4.2878Y-2.7886
X4.2878Y-2.8886
X4.3543Y-3.6181
X4.3583Y-4.5355
X4.3878Y-2.7886
X4.3878Y-2.8886
X4.4543Y-3.6181
X4.4583Y-4.5355
X4.4878Y-2.7886
X4.4878Y-2.8886
X4.5543Y-3.6181
X4.5583Y-4.5355
X4.5878Y-2.7886
X4.5878Y-2.8886
X4.6543Y-3.6181
X4.6583Y-4.5355
X4.6878Y-2.7886
X4.6878Y-2.8886
X4.7583Y-4.5355
X4.7878Y-2.7886
X4.7878Y-2.8886
X4.8583Y-4.5355
X4.8878Y-2.7886
X4.8878Y-2.8886
X4.9583Y-4.5355
X4.9878Y-2.7886
X4.9878Y-2.8886
X5.0583Y-4.5355
X5.0878Y-2.7886
X5.0878Y-2.8886
X5.0976Y-3.0512
X5.0976Y-3.1929
X5.0976Y-3.3346
X5.0976Y-3.4764
X5.0976Y-3.6181
X5.1583Y-4.5355
X5.1878Y-2.7886
X5.1878Y-2.8886
X5.1976Y-3.0512
X5.1976Y-3.1929
X5.1976Y-3.3346
X5.1976Y-3.4764
X5.1976Y-3.6181
X5.2583Y-4.5355
X5.2878Y-2.7886
X5.2878Y-2.8886
X5.2976Y-3.0512
X5.2976Y-3.1929
X5.2976Y-3.3346
X5.2976Y-3.4764
X5.2976Y-3.6181
X5.3583Y-4.5355
X5.3878Y-2.7886
X5.3878Y-2.8886
X5.3976Y-3.0512
X5.3976Y-3.1929
X5.3976Y-3.3346
X5.3976Y-3.4764
X5.3976Y-3.6181
X5.4583Y-4.5355
X5.4878Y-2.7886
X5.4878Y-2.8886
X5.5878Y-2.7886
X5.5878Y-2.8886
X5.6878Y-2.7886
X5.6878Y-2.8886
X5.7878Y-2.7886
X5.7878Y-2.8886
X5.8878Y-2.7886
X5.8878Y-2.8886
X5.9878Y-2.7886
X5.9878Y-2.8886
X6.0878Y-2.7886
X6.0878Y-2.8886
X6.252Y-3.7992
X6.252Y-3.8992
T7
X4.6024Y-3.8031
X4.6024Y-4.2756
X5.0827Y-3.8031
X5.0827Y-4.2756
X5.1614Y-4.0394
T8
X4.3307Y-3.813
X4.3307Y-4.0098
X4.3307Y-4.2067
T9
X3.9961Y-2.8386
X3.9961Y-4.7677
X6.2795Y-2.8386
X6.2795Y-4.7677
T0
M30
