G04 #@! TF.FileFunction,Soldermask,Top*
%FSLAX46Y46*%
G04 Gerber Fmt 4.6, Leading zero omitted, Abs format (unit mm)*
G04 Created by KiCad (PCBNEW 4.0.2+dfsg1-stable) date  6.06.2016 (пн) 11:52:17 EEST*
%MOMM*%
G01*
G04 APERTURE LIST*
%ADD10C,0.100000*%
%ADD11R,2.127200X2.127200*%
%ADD12O,2.127200X2.127200*%
%ADD13O,2.305000X1.400000*%
%ADD14R,2.305000X1.400000*%
%ADD15C,1.924000*%
%ADD16R,1.200100X1.200100*%
%ADD17C,2.400000*%
%ADD18C,5.100000*%
%ADD19R,1.150000X1.600000*%
%ADD20R,1.300000X1.600000*%
%ADD21R,1.600000X1.300000*%
%ADD22R,1.650000X1.900000*%
%ADD23R,0.850000X0.990000*%
%ADD24R,2.432000X2.432000*%
%ADD25O,2.432000X2.432000*%
%ADD26O,2.000000X2.000000*%
%ADD27C,3.400000*%
%ADD28C,2.700000*%
%ADD29R,2.127200X2.432000*%
%ADD30O,2.127200X2.432000*%
%ADD31R,2.400000X2.400000*%
G04 APERTURE END LIST*
D10*
D11*
X106370000Y-73370000D03*
D12*
X106370000Y-70830000D03*
X108910000Y-73370000D03*
X108910000Y-70830000D03*
X111450000Y-73370000D03*
X111450000Y-70830000D03*
X113990000Y-73370000D03*
X113990000Y-70830000D03*
X116530000Y-73370000D03*
X116530000Y-70830000D03*
X119070000Y-73370000D03*
X119070000Y-70830000D03*
X121610000Y-73370000D03*
X121610000Y-70830000D03*
X124150000Y-73370000D03*
X124150000Y-70830000D03*
X126690000Y-73370000D03*
X126690000Y-70830000D03*
X129230000Y-73370000D03*
X129230000Y-70830000D03*
X131770000Y-73370000D03*
X131770000Y-70830000D03*
X134310000Y-73370000D03*
X134310000Y-70830000D03*
X136850000Y-73370000D03*
X136850000Y-70830000D03*
X139390000Y-73370000D03*
X139390000Y-70830000D03*
X141930000Y-73370000D03*
X141930000Y-70830000D03*
X144470000Y-73370000D03*
X144470000Y-70830000D03*
X147010000Y-73370000D03*
X147010000Y-70830000D03*
X149550000Y-73370000D03*
X149550000Y-70830000D03*
X152090000Y-73370000D03*
X152090000Y-70830000D03*
X154630000Y-73370000D03*
X154630000Y-70830000D03*
D13*
X153700000Y-96100000D03*
D14*
X153700000Y-97400000D03*
D13*
X153700000Y-98700000D03*
X153700000Y-100000000D03*
D15*
X141350000Y-101880000D03*
X143850000Y-101880000D03*
X138850000Y-101880000D03*
X143850000Y-95880000D03*
X141350000Y-95880000D03*
X138850000Y-95880000D03*
D16*
X110810000Y-82819240D03*
X108910000Y-82819240D03*
X109860000Y-84818220D03*
D17*
X150324000Y-109878000D03*
X157944000Y-109858000D03*
D18*
X159500000Y-121100000D03*
X159500000Y-72100000D03*
X101500000Y-72100000D03*
X101500000Y-121100000D03*
D19*
X158750000Y-80050000D03*
X158750000Y-78150000D03*
D20*
X158820000Y-83860000D03*
X158820000Y-86060000D03*
D21*
X156600000Y-80100000D03*
X154400000Y-80100000D03*
X156600000Y-78350000D03*
X154400000Y-78350000D03*
D22*
X103490000Y-81220000D03*
X103490000Y-78720000D03*
D21*
X106130000Y-83960000D03*
X103930000Y-83960000D03*
D20*
X105710000Y-79020000D03*
X105710000Y-81220000D03*
D23*
X135920000Y-104605000D03*
X135920000Y-106715000D03*
D20*
X140900000Y-86600000D03*
X140900000Y-88800000D03*
X142600000Y-88800000D03*
X142600000Y-86600000D03*
X138420000Y-106800000D03*
X138420000Y-104600000D03*
D24*
X158800000Y-96500000D03*
D25*
X158800000Y-99040000D03*
D16*
X142650000Y-90899240D03*
X140750000Y-90899240D03*
X141700000Y-92898220D03*
X146150000Y-90899240D03*
X144250000Y-90899240D03*
X145200000Y-92898220D03*
D21*
X108430000Y-77270000D03*
X110630000Y-77270000D03*
X108430000Y-78930000D03*
X110630000Y-78930000D03*
X108430000Y-80600000D03*
X110630000Y-80600000D03*
D20*
X146000000Y-88800000D03*
X146000000Y-86600000D03*
X146006000Y-106142000D03*
X146006000Y-103942000D03*
X135980000Y-98580000D03*
X135980000Y-96380000D03*
D26*
X148970000Y-83860000D03*
X148970000Y-86400000D03*
X148970000Y-88940000D03*
X148970000Y-91480000D03*
X156590000Y-91480000D03*
X156590000Y-88940000D03*
X156590000Y-86400000D03*
X156590000Y-83860000D03*
D20*
X147530000Y-95814000D03*
X147530000Y-98014000D03*
X149308000Y-95814000D03*
X149308000Y-98014000D03*
D27*
X110000000Y-96850000D03*
X110000000Y-101850000D03*
X110000000Y-106850000D03*
D28*
X116900000Y-96600000D03*
X129100000Y-96600000D03*
X116900000Y-108600000D03*
X129100000Y-108600000D03*
X131100000Y-102600000D03*
D29*
X100540000Y-115202000D03*
D30*
X103080000Y-115202000D03*
X105620000Y-115202000D03*
X108160000Y-115202000D03*
X110700000Y-115202000D03*
X113240000Y-115202000D03*
X115780000Y-115202000D03*
X118320000Y-115202000D03*
X120860000Y-115202000D03*
X123400000Y-115202000D03*
X125940000Y-115202000D03*
X128480000Y-115202000D03*
X131020000Y-115202000D03*
X133560000Y-115202000D03*
X136100000Y-115202000D03*
X138640000Y-115202000D03*
D21*
X157800000Y-101900000D03*
X160000000Y-101900000D03*
D17*
X100540000Y-76140000D03*
X100540000Y-78680000D03*
X100540000Y-81220000D03*
D31*
X100520000Y-86500000D03*
D17*
X100520000Y-83960000D03*
D29*
X110600000Y-91900000D03*
D30*
X113140000Y-91900000D03*
X115680000Y-91900000D03*
X118220000Y-91900000D03*
D29*
X137100000Y-91900000D03*
D30*
X134560000Y-91900000D03*
X132020000Y-91900000D03*
X129480000Y-91900000D03*
D29*
X137100000Y-77500000D03*
D30*
X134560000Y-77500000D03*
X132020000Y-77500000D03*
X129480000Y-77500000D03*
D29*
X137100000Y-88300000D03*
D30*
X134560000Y-88300000D03*
X132020000Y-88300000D03*
X129480000Y-88300000D03*
D29*
X137100000Y-84700000D03*
D30*
X134560000Y-84700000D03*
X132020000Y-84700000D03*
X129480000Y-84700000D03*
D29*
X137100000Y-81100000D03*
D30*
X134560000Y-81100000D03*
X132020000Y-81100000D03*
X129480000Y-81100000D03*
M02*
